<svg width="700" height="700" viewBox="0 0 700 700" fill="none" xmlns="http://www.w3.org/2000/svg">
<path d="M349.944 0.887451C156.881 0.887451 0.351562 157.417 0.351562 350.479C0.351562 543.542 156.881 700.071 349.944 700.071C543.006 700.071 699.536 543.542 699.536 350.479C699.536 157.417 543.006 0.887451 349.944 0.887451ZM359.557 453.242L266.765 546.319C240.772 572.384 198.47 572.455 172.406 546.462C146.27 520.468 146.27 478.167 172.263 452.103L265.056 359.025C291.049 332.889 333.351 332.889 359.415 358.883C385.48 384.876 385.551 427.177 359.557 453.242ZM573.343 586.128H512.669C479.198 586.128 451.994 558.995 451.994 525.453V327.264C451.994 293.793 424.861 266.589 391.319 266.589H193.129C159.658 266.589 132.454 239.456 132.454 205.914C132.454 172.372 159.587 145.239 193.129 145.239H518.793C548.917 145.239 573.343 169.666 573.343 199.79V586.128Z" fill="white" style="fill:white;fill-opacity:1;"/>
</svg>
