<svg width="3386" height="700" viewBox="0 0 3386 700" fill="none" xmlns="http://www.w3.org/2000/svg">
<g clip-path="url(#clip0_4_2169)">
<path d="M1618.89 260.125C1638.16 240.852 1638.16 209.604 1618.89 190.331C1599.62 171.058 1568.37 171.058 1549.1 190.331C1529.82 209.604 1529.82 240.852 1549.1 260.125C1568.37 279.398 1599.62 279.398 1618.89 260.125Z" fill="white" style="fill:white;fill-opacity:1;"/>
<path d="M1801.62 273.322C1828.15 267.061 1844.58 240.481 1838.32 213.954C1832.06 187.426 1805.48 170.997 1778.95 177.258C1752.42 183.519 1735.99 210.1 1742.25 236.627C1748.52 263.154 1775.1 279.583 1801.62 273.322Z" fill="white" style="fill:white;fill-opacity:1;"/>
<path d="M929.919 232.904V180.847H820.676V521.75C820.676 551.304 844.675 575.304 874.229 575.304H935.046V389.078C935.046 313.59 976.849 279.123 1039.87 279.123C1048.7 279.123 1056.04 279.835 1065.51 280.618V175.078C1004.62 175.078 957.764 194.876 929.848 232.976L929.919 232.904Z" fill="white" style="fill:white;fill-opacity:1;"/>
<path d="M1215.92 298.137C1215.92 277.627 1237.92 261.461 1289.27 261.461C1325.16 261.461 1364.04 268.796 1402.93 290.802L1441.03 209.404C1403.64 187.398 1343.53 174.936 1289.27 174.936C1174.18 174.936 1106.74 227.706 1106.74 302.481C1106.74 460.079 1345.03 394.134 1345.03 458.654C1345.03 480.66 1325.23 494.546 1272.46 494.546C1224.11 494.546 1170.55 479.164 1135.37 456.447L1097.27 538.557C1133.95 562.77 1201.39 581.072 1268.12 581.072C1386.12 581.072 1454.34 529.014 1454.34 455.735C1454.34 300.345 1216.06 365.577 1216.06 298.137H1215.92Z" fill="white" style="fill:white;fill-opacity:1;"/>
<path d="M1524.56 575.232H1575.98C1610.73 575.232 1638.93 547.031 1638.93 512.279V323.774H1524.56V575.232Z" fill="white" style="fill:white;fill-opacity:1;"/>
<path d="M1730.8 323.774V575.232H1782.21C1816.97 575.232 1845.17 547.031 1845.17 512.279V323.774H1730.8Z" fill="white" style="fill:white;fill-opacity:1;"/>
<path d="M1994.86 273.995C1997.42 267.159 2000.34 259.681 2003.62 251.634C2006.9 243.515 2010.31 235.254 2014.02 226.709C2017.65 218.163 2021.28 209.902 2024.98 201.855C2026.27 198.935 2027.76 196.87 2029.54 195.659C2031.32 194.377 2033.53 193.808 2036.24 193.808C2037.45 193.808 2038.94 194.092 2040.79 194.662C2042.65 195.232 2043.78 195.802 2044.35 196.3C2045.21 197.653 2046.35 200.003 2047.92 203.279C2049.48 206.555 2051.19 210.543 2053.26 215.101C2055.32 219.658 2057.46 224.643 2059.67 229.913C2061.87 235.183 2064.08 240.524 2066.29 245.865C2068.5 251.207 2070.56 256.334 2072.48 261.177C2074.41 266.019 2076.05 270.292 2077.33 273.924H2062.3C2061.66 272.286 2060.88 270.15 2059.88 267.586C2058.88 265.022 2057.96 262.458 2056.96 259.823C2056.03 257.189 2055.18 255.123 2054.54 253.485H2016.37C2015.16 256.548 2013.87 259.752 2012.59 263.099C2011.31 266.446 2009.96 270.078 2008.6 273.853H1994.93L1994.86 273.995ZM2031.04 217.664C2029.4 221.51 2027.69 225.498 2025.91 229.628C2024.13 233.759 2022.49 237.747 2021 241.664H2049.84C2048.7 238.673 2047.42 235.539 2046.06 232.121C2044.71 228.774 2043.36 225.427 2042 222.151C2040.65 218.875 2039.44 215.955 2038.3 213.392C2037.16 210.828 2036.24 208.905 2035.6 207.552C2034.24 210.472 2032.68 213.819 2031.04 217.664Z" fill="white" style="fill:white;fill-opacity:1;"/>
<path d="M2136.08 256.761C2136.08 262.672 2133.66 267.301 2128.81 270.577C2123.97 273.853 2117.63 275.562 2109.73 275.562C2106.17 275.562 2102.47 275.277 2098.62 274.565C2094.77 273.853 2091.28 273.069 2088.15 271.93C2085.02 270.862 2082.6 269.651 2080.89 268.44L2085.8 259.681C2088.22 261.177 2091.57 262.53 2095.84 263.669C2100.12 264.808 2104.53 265.378 2109.09 265.378C2118.06 265.378 2122.55 263.099 2122.55 258.542C2122.55 254.696 2118.92 252.275 2111.58 251.349L2099.97 249.853C2094.2 249.07 2089.72 247.361 2086.66 244.584C2083.52 241.877 2081.96 238.032 2081.96 233.189C2081.96 227.278 2084.31 222.792 2088.93 219.658C2093.56 216.596 2100.26 215.03 2109.09 215.03C2113.72 215.03 2117.85 215.457 2121.41 216.311C2124.97 217.166 2127.82 218.234 2129.81 219.658C2131.88 221.083 2132.87 222.649 2132.87 224.501C2132.87 225.641 2132.45 226.851 2131.66 228.062C2130.88 229.272 2129.95 230.127 2128.89 230.697C2127.89 229.7 2126.25 228.774 2123.97 227.919C2121.69 227.065 2119.13 226.353 2116.21 225.783C2113.29 225.213 2110.44 224.928 2107.52 224.928C2103.46 224.928 2100.33 225.498 2098.12 226.709C2095.91 227.919 2094.77 229.629 2094.77 231.907C2094.77 233.688 2095.56 235.112 2097.12 236.18C2098.69 237.248 2101.11 238.032 2104.46 238.53L2116.07 240.026C2129.38 241.664 2136.01 247.29 2136.01 256.761H2136.08Z" fill="white" style="fill:white;fill-opacity:1;"/>
<path d="M2198.68 256.761C2198.68 262.672 2196.26 267.301 2191.41 270.577C2186.57 273.853 2180.23 275.562 2172.33 275.562C2168.77 275.562 2165.06 275.277 2161.22 274.565C2157.37 273.853 2153.88 273.069 2150.75 271.93C2147.62 270.862 2145.19 269.651 2143.49 268.44L2148.4 259.681C2150.82 261.177 2154.17 262.53 2158.44 263.669C2162.71 264.808 2167.13 265.378 2171.69 265.378C2180.66 265.378 2185.15 263.099 2185.15 258.542C2185.15 254.696 2181.51 252.275 2174.18 251.349L2162.57 249.853C2156.8 249.07 2152.32 247.361 2149.25 244.584C2146.12 241.877 2144.55 238.032 2144.55 233.189C2144.55 227.278 2146.9 222.792 2151.53 219.658C2156.16 216.596 2162.86 215.03 2171.69 215.03C2176.32 215.03 2180.45 215.457 2184.01 216.311C2187.57 217.166 2190.42 218.234 2192.41 219.658C2194.47 221.083 2195.47 222.649 2195.47 224.501C2195.47 225.641 2195.04 226.851 2194.26 228.062C2193.48 229.272 2192.55 230.127 2191.48 230.697C2190.49 229.7 2188.85 228.774 2186.57 227.919C2184.29 227.065 2181.73 226.353 2178.81 225.783C2175.89 225.213 2173.04 224.928 2170.12 224.928C2166.06 224.928 2162.93 225.498 2160.72 226.709C2158.51 227.919 2157.37 229.629 2157.37 231.907C2157.37 233.688 2158.16 235.112 2159.72 236.18C2161.29 237.248 2163.71 238.032 2167.06 238.53L2178.67 240.026C2191.98 241.664 2198.61 247.29 2198.61 256.761H2198.68Z" fill="white" style="fill:white;fill-opacity:1;"/>
<path d="M2211.35 260.749C2208.58 256.191 2207.22 251.064 2207.22 245.367C2207.22 239.67 2208.58 234.542 2211.35 229.984C2214.13 225.427 2217.83 221.795 2222.6 219.16C2227.3 216.525 2232.65 215.172 2238.56 215.172C2244.47 215.172 2249.81 216.525 2254.58 219.16C2259.35 221.795 2263.05 225.427 2265.83 229.984C2268.54 234.542 2269.96 239.67 2269.96 245.367C2269.96 251.064 2268.61 256.191 2265.83 260.749C2263.13 265.307 2259.35 268.939 2254.58 271.574C2249.81 274.209 2244.47 275.562 2238.56 275.562C2232.65 275.562 2227.3 274.209 2222.6 271.574C2217.9 268.939 2214.13 265.307 2211.35 260.749ZM2254.08 255.123C2255.58 252.275 2256.36 248.999 2256.36 245.367C2256.36 241.735 2255.58 238.459 2254.08 235.61C2252.59 232.762 2250.45 230.554 2247.74 228.916C2245.04 227.35 2241.97 226.495 2238.56 226.495C2235.14 226.495 2232.08 227.278 2229.37 228.916C2226.66 230.483 2224.6 232.762 2223.03 235.61C2221.54 238.459 2220.75 241.735 2220.75 245.367C2220.75 248.999 2221.54 252.275 2223.03 255.123C2224.53 257.972 2226.66 260.179 2229.37 261.817C2232.08 263.384 2235.14 264.239 2238.56 264.239C2241.97 264.239 2245.04 263.455 2247.74 261.817C2250.45 260.179 2252.51 257.972 2254.08 255.123Z" fill="white" style="fill:white;fill-opacity:1;"/>
<path d="M2282.35 229.771C2284.92 225.213 2288.55 221.652 2293.32 219.089C2298.09 216.525 2303.79 215.243 2310.41 215.243C2314.19 215.243 2317.68 215.67 2320.74 216.525C2323.8 217.38 2326.22 218.59 2327.86 220.086C2329.5 221.51 2330.35 223.148 2330.35 224.857C2330.35 226.068 2329.92 227.278 2329.14 228.56C2328.36 229.842 2327.29 230.982 2325.87 232.05C2323.94 230.269 2321.66 228.988 2318.96 227.991C2316.25 227.065 2313.4 226.566 2310.34 226.566C2304.79 226.566 2300.37 228.204 2297.02 231.551C2293.68 234.898 2292.04 239.456 2292.04 245.296C2292.04 251.135 2293.75 255.622 2297.09 259.04C2300.44 262.387 2305.07 264.096 2310.84 264.096C2316.04 264.096 2320.74 262.814 2324.94 260.251L2330.42 269.936C2324.09 273.71 2317.11 275.633 2309.34 275.633C2303.22 275.633 2297.81 274.422 2293.18 271.93C2288.55 269.437 2284.92 266.019 2282.35 261.533C2279.79 257.046 2278.51 251.776 2278.51 245.723C2278.51 239.67 2279.79 234.471 2282.35 229.913V229.771Z" fill="white" style="fill:white;fill-opacity:1;"/>
<path d="M2339.47 204.846C2337.97 203.35 2337.26 201.428 2337.26 199.149C2337.26 196.87 2337.97 194.947 2339.47 193.451C2340.96 191.956 2342.81 191.173 2345.09 191.173C2347.37 191.173 2349.22 191.956 2350.72 193.451C2352.21 194.947 2352.93 196.87 2352.93 199.149C2352.93 201.428 2352.21 203.35 2350.72 204.846C2349.22 206.341 2347.37 207.125 2345.09 207.125C2342.81 207.125 2340.96 206.341 2339.47 204.846ZM2351.57 273.995H2338.61V222.863C2338.61 220.869 2339.25 219.374 2340.54 218.377C2341.82 217.38 2343.53 216.81 2345.52 216.81C2346.59 216.81 2347.66 216.952 2348.8 217.166C2349.94 217.38 2350.86 217.736 2351.5 218.092V274.066L2351.57 273.995Z" fill="white" style="fill:white;fill-opacity:1;"/>
<path d="M2417.02 273.781C2413.1 274.351 2408.83 274.778 2404.2 275.063C2399.57 275.419 2395.44 275.562 2391.74 275.562C2382.34 275.562 2375.15 274.066 2370.16 271.147C2365.18 268.156 2362.68 263.384 2362.68 256.69C2362.68 250.779 2364.82 246.221 2369.09 243.017C2373.37 239.812 2380.34 238.245 2390.03 238.245C2392.24 238.245 2394.73 238.317 2397.44 238.459C2400.14 238.602 2402.35 238.815 2404.06 239.029C2404.06 234.4 2402.63 231.053 2399.79 228.916C2396.94 226.78 2392.74 225.712 2387.11 225.712C2383.55 225.712 2380.27 226.068 2377.35 226.851C2374.43 227.634 2372.3 228.56 2371.02 229.7C2370.16 229.059 2369.45 228.204 2368.88 227.136C2368.24 226.068 2367.95 224.857 2367.95 223.646C2367.95 221.083 2369.52 219.018 2372.72 217.522C2375.93 216.027 2380.63 215.243 2386.83 215.243C2396.8 215.243 2404.27 217.308 2409.4 221.368C2414.46 225.427 2417.02 231.48 2417.02 239.527V273.853V273.781ZM2379.49 264.025C2382.05 265.449 2386.11 266.162 2391.67 266.162C2393.95 266.162 2396.3 266.09 2398.65 265.877C2401 265.663 2402.85 265.449 2404.13 265.165V248.5C2402.49 248.144 2400.28 247.859 2397.58 247.646C2394.87 247.432 2392.52 247.361 2390.46 247.361C2384.9 247.361 2381.06 248.215 2378.92 249.782C2376.78 251.42 2375.64 253.841 2375.64 257.046C2375.64 260.251 2376.93 262.672 2379.49 264.025Z" fill="white" style="fill:white;fill-opacity:1;"/>
<path d="M2430.34 206.626C2430.34 204.632 2430.98 203.137 2432.26 202.14C2433.54 201.143 2435.25 200.573 2437.24 200.573C2438.31 200.573 2439.38 200.715 2440.52 200.929C2441.66 201.143 2442.59 201.428 2443.23 201.855V216.81H2459.75C2464.31 216.81 2466.59 218.804 2466.59 222.863C2466.59 225.071 2466.09 227.065 2465.09 228.774H2443.23V254.055C2443.23 257.26 2444.08 259.681 2445.72 261.461C2447.36 263.242 2449.85 264.096 2453.13 264.096C2454.98 264.096 2456.83 263.811 2458.75 263.313C2460.67 262.814 2462.31 262.031 2463.74 261.177L2469.01 269.865C2467.01 271.503 2464.38 272.927 2460.96 273.995C2457.54 275.063 2454.12 275.633 2450.56 275.633C2444.44 275.633 2439.52 273.924 2435.82 270.577C2432.12 267.23 2430.27 262.601 2430.27 256.832V206.697L2430.34 206.626Z" fill="white" style="fill:white;fill-opacity:1;"/>
<path d="M2477.34 204.846C2475.84 203.35 2475.13 201.428 2475.13 199.149C2475.13 196.87 2475.84 194.947 2477.34 193.451C2478.83 191.956 2480.69 191.173 2482.96 191.173C2485.24 191.173 2487.1 191.956 2488.59 193.451C2490.09 194.947 2490.8 196.87 2490.8 199.149C2490.8 201.428 2490.09 203.35 2488.59 204.846C2487.1 206.341 2485.24 207.125 2482.96 207.125C2480.69 207.125 2478.83 206.341 2477.34 204.846ZM2489.45 273.995H2476.48V222.863C2476.48 220.869 2477.12 219.374 2478.41 218.377C2479.69 217.38 2481.4 216.81 2483.39 216.81C2484.46 216.81 2485.53 216.952 2486.67 217.166C2487.81 217.38 2488.73 217.736 2489.37 218.092V274.066L2489.45 273.995Z" fill="white" style="fill:white;fill-opacity:1;"/>
<path d="M2505.25 260.749C2502.48 256.191 2501.12 251.064 2501.12 245.367C2501.12 239.67 2502.48 234.542 2505.25 229.984C2508.03 225.427 2511.74 221.795 2516.51 219.16C2521.21 216.525 2526.55 215.172 2532.46 215.172C2538.37 215.172 2543.71 216.525 2548.48 219.16C2553.25 221.795 2556.96 225.427 2559.73 229.984C2562.44 234.542 2563.86 239.67 2563.86 245.367C2563.86 251.064 2562.51 256.191 2559.73 260.749C2557.03 265.307 2553.25 268.939 2548.48 271.574C2543.71 274.209 2538.37 275.562 2532.46 275.562C2526.55 275.562 2521.21 274.209 2516.51 271.574C2511.81 268.939 2508.03 265.307 2505.25 260.749ZM2547.91 255.123C2549.41 252.275 2550.19 248.999 2550.19 245.367C2550.19 241.735 2549.41 238.459 2547.91 235.61C2546.42 232.762 2544.28 230.554 2541.57 228.916C2538.87 227.35 2535.81 226.495 2532.39 226.495C2528.97 226.495 2525.91 227.278 2523.2 228.916C2520.49 230.483 2518.43 232.762 2516.86 235.61C2515.37 238.459 2514.58 241.735 2514.58 245.367C2514.58 248.999 2515.37 252.275 2516.86 255.123C2518.36 257.972 2520.49 260.179 2523.2 261.817C2525.91 263.384 2528.97 264.239 2532.39 264.239C2535.81 264.239 2538.87 263.455 2541.57 261.817C2544.28 260.179 2546.35 257.972 2547.91 255.123Z" fill="white" style="fill:white;fill-opacity:1;"/>
<path d="M2574.69 239.456C2574.69 234.614 2575.83 230.341 2578.18 226.709C2580.53 223.077 2583.73 220.228 2587.93 218.234C2592.14 216.24 2596.98 215.243 2602.53 215.243C2608.09 215.243 2613 216.24 2617.2 218.234C2621.33 220.228 2624.54 223.077 2626.89 226.709C2629.24 230.341 2630.38 234.614 2630.38 239.456V273.995H2617.42V242.803C2617.42 237.605 2616.14 233.688 2613.64 230.982C2611.15 228.275 2607.45 226.922 2602.6 226.922C2592.71 226.922 2587.79 232.192 2587.79 242.732V273.924H2574.83V239.385L2574.69 239.456Z" fill="white" style="fill:white;fill-opacity:1;"/>
<path d="M2731.36 242.661C2731.36 249.497 2730.15 255.408 2727.66 260.322C2725.17 265.236 2721.75 269.01 2717.26 271.645C2712.77 274.28 2707.43 275.562 2701.31 275.562C2695.18 275.562 2689.63 274.28 2684.93 271.716C2680.23 269.153 2676.53 265.592 2673.89 261.034C2671.26 256.476 2669.9 251.278 2669.9 245.438C2669.9 239.599 2671.18 234.4 2673.75 229.913C2676.31 225.427 2679.8 221.795 2684.22 219.231C2688.63 216.668 2693.55 215.314 2699.03 215.314C2703.23 215.314 2706.93 216.098 2710.28 217.665C2713.56 219.231 2716.33 221.368 2718.4 224.074V196.158C2718.4 194.164 2719.04 192.668 2720.32 191.671C2721.6 190.674 2723.31 190.104 2725.31 190.104C2726.38 190.104 2727.44 190.247 2728.58 190.461C2729.72 190.674 2730.65 191.03 2731.29 191.386V242.803L2731.36 242.661ZM2688.2 231.836C2684.93 235.254 2683.22 239.741 2683.22 245.296C2683.22 250.85 2684.86 255.337 2688.2 258.755C2691.48 262.174 2695.68 263.883 2700.81 263.883C2705.94 263.883 2710.21 262.174 2713.49 258.755C2716.76 255.337 2718.47 250.85 2718.47 245.296C2718.47 239.741 2716.83 235.254 2713.49 231.836C2710.21 228.418 2705.94 226.709 2700.81 226.709C2695.68 226.709 2691.55 228.418 2688.2 231.836Z" fill="white" style="fill:white;fill-opacity:1;"/>
<path d="M2771.45 275.562C2765.47 275.562 2760.13 274.28 2755.57 271.787C2750.94 269.295 2747.38 265.805 2744.82 261.39C2742.26 256.975 2740.97 251.776 2740.97 245.865C2740.97 239.955 2742.33 234.542 2744.96 229.985C2747.6 225.427 2751.3 221.795 2755.93 219.16C2760.63 216.525 2765.97 215.243 2771.95 215.243C2779.22 215.243 2785.13 216.952 2789.69 220.299C2794.17 223.646 2796.45 228.275 2796.45 234.115C2796.45 239.955 2793.82 244.512 2788.55 247.432C2783.28 250.423 2774.87 251.847 2763.41 251.847C2762.34 251.847 2761.06 251.847 2759.49 251.847C2757.92 251.847 2756.43 251.776 2754.86 251.705C2755.5 255.622 2757.5 258.826 2760.99 261.177C2764.48 263.527 2768.82 264.737 2774.02 264.737C2779.72 264.737 2784.91 263.384 2789.54 260.749L2794.31 269.865C2792.68 270.933 2790.54 271.93 2788.05 272.856C2785.56 273.781 2782.85 274.494 2779.93 274.992C2777.01 275.491 2774.23 275.704 2771.53 275.704L2771.45 275.562ZM2771.67 225.213C2766.68 225.213 2762.55 226.851 2759.28 230.056C2756.07 233.26 2754.36 237.533 2754.22 242.732C2755.5 242.803 2756.86 242.874 2758.35 242.874H2764.05C2777.22 242.874 2783.77 239.883 2783.77 233.901C2783.77 231.266 2782.64 229.13 2780.43 227.563C2778.22 225.997 2775.3 225.213 2771.74 225.213H2771.67Z" fill="white" style="fill:white;fill-opacity:1;"/>
<path d="M2836.4 203.208C2836.4 199.077 2838.47 196.656 2842.67 195.802C2843.74 195.588 2845.3 195.374 2847.37 195.232C2849.43 195.089 2851.78 194.947 2854.28 194.805C2856.77 194.662 2859.05 194.662 2861.11 194.662C2873.36 194.662 2882.62 196.87 2888.89 201.214C2895.15 205.558 2898.29 211.967 2898.29 220.299C2898.29 225.569 2897.08 229.913 2894.58 233.474C2892.09 237.035 2888.46 239.812 2883.62 241.949C2886.11 245.438 2888.96 249.996 2892.23 255.551C2895.44 261.105 2898.71 267.301 2902.06 273.924H2886.32C2885.33 271.716 2884.12 269.224 2882.55 266.375C2881.05 263.527 2879.49 260.678 2877.85 257.758C2876.21 254.838 2874.72 252.275 2873.36 249.996C2872.01 247.717 2870.94 246.079 2870.16 245.082C2869.09 245.224 2867.81 245.367 2866.31 245.438C2864.82 245.509 2863.39 245.58 2862.11 245.58C2859.76 245.58 2857.41 245.58 2855.06 245.367C2852.71 245.153 2850.93 245.011 2849.72 244.797V273.995H2836.47V203.208H2836.4ZM2878.99 230.554C2882.55 228.204 2884.33 224.715 2884.33 220.157C2884.33 210.828 2876.64 206.128 2861.33 206.128C2859.19 206.128 2856.98 206.199 2854.63 206.341C2852.28 206.484 2850.65 206.626 2849.58 206.769V233.118C2851.36 233.403 2853.28 233.616 2855.49 233.83C2857.7 233.973 2859.83 234.044 2861.97 234.044C2869.73 234.044 2875.36 232.833 2878.92 230.483L2878.99 230.554Z" fill="white" style="fill:white;fill-opacity:1;"/>
<path d="M2937.1 275.562C2931.12 275.562 2925.78 274.28 2921.22 271.787C2916.59 269.295 2913.03 265.805 2910.47 261.39C2907.9 256.975 2906.62 251.776 2906.62 245.865C2906.62 239.955 2907.97 234.542 2910.61 229.985C2913.24 225.427 2916.95 221.795 2921.57 219.16C2926.27 216.525 2931.62 215.243 2937.6 215.243C2944.86 215.243 2950.77 216.952 2955.33 220.299C2959.82 223.646 2962.1 228.275 2962.1 234.115C2962.1 239.955 2959.46 244.512 2954.19 247.432C2948.92 250.423 2940.52 251.847 2929.05 251.847C2927.98 251.847 2926.7 251.847 2925.14 251.847C2923.57 251.847 2922.07 251.776 2920.51 251.705C2921.15 255.622 2923.14 258.826 2926.63 261.177C2930.12 263.527 2934.46 264.737 2939.66 264.737C2945.36 264.737 2950.56 263.384 2955.19 260.749L2959.96 269.865C2958.32 270.933 2956.19 271.93 2953.69 272.856C2951.2 273.781 2948.49 274.494 2945.57 274.992C2942.65 275.491 2939.88 275.704 2937.17 275.704L2937.1 275.562ZM2937.38 225.213C2932.4 225.213 2928.27 226.851 2924.99 230.056C2921.79 233.26 2920.08 237.533 2919.94 242.732C2921.22 242.803 2922.57 242.874 2924.07 242.874H2929.76C2942.94 242.874 2949.49 239.883 2949.49 233.901C2949.49 231.266 2948.35 229.13 2946.14 227.563C2943.94 225.997 2941.02 225.213 2937.46 225.213H2937.38Z" fill="white" style="fill:white;fill-opacity:1;"/>
<path d="M2973.35 229.771C2975.91 225.213 2979.54 221.652 2984.31 219.089C2989.09 216.525 2994.78 215.243 3001.41 215.243C3005.18 215.243 3008.67 215.67 3011.73 216.525C3014.79 217.38 3017.22 218.59 3018.85 220.086C3020.49 221.51 3021.35 223.148 3021.35 224.857C3021.35 226.068 3020.92 227.278 3020.14 228.56C3019.35 229.842 3018.28 230.982 3016.86 232.05C3014.94 230.269 3012.66 228.988 3009.95 227.991C3007.25 227.065 3004.4 226.566 3001.34 226.566C2995.78 226.566 2991.36 228.204 2988.02 231.551C2984.67 234.898 2983.03 239.456 2983.03 245.296C2983.03 251.135 2984.74 255.622 2988.09 259.04C2991.44 262.387 2996.06 264.096 3001.83 264.096C3007.03 264.096 3011.73 262.814 3015.93 260.251L3021.42 269.936C3015.08 273.71 3008.1 275.633 3000.34 275.633C2994.21 275.633 2988.8 274.422 2984.17 271.93C2979.54 269.437 2975.91 266.019 2973.35 261.533C2970.78 257.046 2969.5 251.776 2969.5 245.723C2969.5 239.67 2970.78 234.471 2973.35 229.913V229.771Z" fill="white" style="fill:white;fill-opacity:1;"/>
<path d="M3028.9 196.086C3028.9 194.092 3029.54 192.597 3030.82 191.6C3032.1 190.603 3033.81 190.033 3035.8 190.033C3036.87 190.033 3037.94 190.176 3039.08 190.389C3040.22 190.603 3041.14 190.959 3041.78 191.315V222.792C3043.85 220.371 3046.48 218.519 3049.76 217.237C3053.04 215.955 3056.67 215.314 3060.73 215.314C3068.13 215.314 3073.97 217.38 3078.1 221.51C3082.23 225.64 3084.3 231.338 3084.3 238.53V274.066H3071.34V242.376C3071.34 237.248 3070.27 233.403 3068.13 230.839C3066 228.347 3062.58 227.065 3057.88 227.065C3052.89 227.065 3048.91 228.489 3046.06 231.266C3043.21 234.044 3041.78 238.174 3041.78 243.444V273.995H3028.82V196.086H3028.9Z" fill="white" style="fill:white;fill-opacity:1;"/>
<path d="M3125.68 275.562C3119.69 275.562 3114.35 274.28 3109.79 271.787C3105.17 269.295 3101.61 265.805 3099.04 261.39C3096.48 256.975 3095.2 251.776 3095.2 245.865C3095.2 239.955 3096.55 234.542 3099.18 229.985C3101.82 225.427 3105.52 221.795 3110.15 219.16C3114.85 216.525 3120.19 215.243 3126.17 215.243C3133.44 215.243 3139.35 216.952 3143.91 220.299C3148.39 223.646 3150.67 228.275 3150.67 234.115C3150.67 239.955 3148.04 244.512 3142.77 247.432C3137.5 250.423 3129.09 251.847 3117.63 251.847C3116.56 251.847 3115.28 251.847 3113.71 251.847C3112.14 251.847 3110.65 251.776 3109.08 251.705C3109.72 255.622 3111.72 258.826 3115.21 261.177C3118.7 263.527 3123.04 264.737 3128.24 264.737C3133.94 264.737 3139.14 263.384 3143.76 260.749L3148.54 269.865C3146.9 270.933 3144.76 271.93 3142.27 272.856C3139.78 273.781 3137.07 274.494 3134.15 274.992C3131.23 275.491 3128.45 275.704 3125.75 275.704L3125.68 275.562ZM3125.96 225.213C3120.98 225.213 3116.84 226.851 3113.57 230.056C3110.36 233.26 3108.66 237.533 3108.51 242.732C3109.79 242.803 3111.15 242.874 3112.64 242.874H3118.34C3131.52 242.874 3138.07 239.883 3138.07 233.901C3138.07 231.266 3136.93 229.13 3134.72 227.563C3132.51 225.997 3129.59 225.213 3126.03 225.213H3125.96Z" fill="white" style="fill:white;fill-opacity:1;"/>
<path d="M3160.36 237.177C3160.36 230.269 3162.49 224.857 3166.77 221.011C3171.04 217.166 3177.02 215.172 3184.57 215.172C3189.77 215.172 3193.76 215.955 3196.53 217.451C3199.31 218.946 3200.74 220.94 3200.74 223.29C3200.74 224.501 3200.38 225.712 3199.74 226.922C3199.1 228.133 3198.46 228.916 3197.89 229.344C3194.54 227.706 3190.77 226.851 3186.64 226.851C3177.73 226.851 3173.32 231.551 3173.32 240.952V273.995H3160.36V237.177Z" fill="white" style="fill:white;fill-opacity:1;"/>
<path d="M3207.79 229.771C3210.35 225.213 3213.98 221.652 3218.75 219.089C3223.52 216.525 3229.22 215.243 3235.84 215.243C3239.62 215.243 3243.11 215.67 3246.17 216.525C3249.23 217.38 3251.65 218.59 3253.29 220.086C3254.93 221.51 3255.78 223.148 3255.78 224.857C3255.78 226.068 3255.36 227.278 3254.57 228.56C3253.79 229.842 3252.72 230.982 3251.3 232.05C3249.37 230.269 3247.1 228.988 3244.39 227.991C3241.68 227.065 3238.84 226.566 3235.77 226.566C3230.22 226.566 3225.8 228.204 3222.46 231.551C3219.11 234.898 3217.47 239.456 3217.47 245.296C3217.47 251.135 3219.18 255.622 3222.53 259.04C3225.87 262.387 3230.5 264.096 3236.27 264.096C3241.47 264.096 3246.17 262.814 3250.37 260.251L3255.86 269.936C3249.52 273.71 3242.54 275.633 3234.78 275.633C3228.65 275.633 3223.24 274.422 3218.61 271.93C3213.98 269.437 3210.35 266.019 3207.79 261.533C3205.22 257.046 3203.94 251.776 3203.94 245.723C3203.94 239.67 3205.22 234.471 3207.79 229.913V229.771Z" fill="white" style="fill:white;fill-opacity:1;"/>
<path d="M3263.33 196.086C3263.33 194.092 3263.97 192.597 3265.26 191.6C3266.54 190.603 3268.25 190.033 3270.24 190.033C3271.31 190.033 3272.38 190.176 3273.52 190.389C3274.66 190.603 3275.58 190.959 3276.22 191.315V222.792C3278.29 220.371 3280.92 218.519 3284.2 217.237C3287.47 215.955 3291.11 215.314 3295.17 215.314C3302.57 215.314 3308.41 217.38 3312.54 221.51C3316.67 225.64 3318.74 231.338 3318.74 238.53V274.066H3305.78V242.376C3305.78 237.248 3304.71 233.403 3302.57 230.839C3300.44 228.347 3297.02 227.065 3292.32 227.065C3287.33 227.065 3283.34 228.489 3280.5 231.266C3277.65 234.044 3276.22 238.174 3276.22 243.444V273.995H3263.26V196.086H3263.33Z" fill="white" style="fill:white;fill-opacity:1;"/>
<path d="M3360.18 275.562C3354.2 275.562 3348.86 274.28 3344.3 271.787C3339.68 269.295 3336.11 265.805 3333.55 261.39C3330.99 256.975 3329.71 251.776 3329.71 245.865C3329.71 239.955 3331.06 234.542 3333.69 229.985C3336.33 225.427 3340.03 221.795 3344.66 219.16C3349.36 216.525 3354.7 215.243 3360.68 215.243C3367.95 215.243 3373.86 216.952 3378.42 220.299C3382.9 223.646 3385.18 228.275 3385.18 234.115C3385.18 239.955 3382.55 244.512 3377.28 247.432C3372.01 250.423 3363.6 251.847 3352.14 251.847C3351.07 251.847 3349.79 251.847 3348.22 251.847C3346.65 251.847 3345.16 251.776 3343.59 251.705C3344.23 255.622 3346.23 258.826 3349.72 261.177C3353.21 263.527 3357.55 264.737 3362.75 264.737C3368.45 264.737 3373.64 263.384 3378.27 260.749L3383.04 269.865C3381.41 270.933 3379.27 271.93 3376.78 272.856C3374.29 273.781 3371.58 274.494 3368.66 274.992C3365.74 275.491 3362.96 275.704 3360.26 275.704L3360.18 275.562ZM3360.47 225.213C3355.48 225.213 3351.35 226.851 3348.08 230.056C3344.87 233.26 3343.16 237.533 3343.02 242.732C3344.3 242.803 3345.66 242.874 3347.15 242.874H3352.85C3366.02 242.874 3372.58 239.883 3372.58 233.901C3372.58 231.266 3371.44 229.13 3369.23 227.563C3367.02 225.997 3364.1 225.213 3360.54 225.213H3360.47Z" fill="white" style="fill:white;fill-opacity:1;"/>
<path d="M1999.85 354.112C1999.85 346.705 2002.62 340.866 2008.25 336.735C2013.8 332.605 2021.57 330.54 2031.46 330.54C2036.73 330.54 2041.79 331.109 2046.63 332.177C2051.48 333.317 2055.25 334.67 2057.89 336.45C2060.59 338.302 2062.02 340.296 2062.02 342.575C2062.02 343.928 2061.59 345.423 2060.73 346.99C2059.88 348.557 2058.81 349.767 2057.46 350.551C2056.03 348.984 2053.9 347.56 2051.12 346.278C2048.34 344.996 2045.28 344.07 2041.86 343.287C2038.44 342.575 2035.1 342.219 2031.68 342.219C2019.64 342.219 2013.66 345.851 2013.66 353.186C2013.66 355.963 2014.8 358.242 2017.08 359.88C2019.36 361.518 2023.06 362.871 2028.26 363.868L2040.79 366.147C2049.62 367.714 2056.03 370.348 2060.02 373.909C2064.01 377.47 2066 382.384 2066 388.722C2066 396.271 2063.08 402.11 2057.24 406.383C2051.4 410.656 2043.29 412.792 2032.89 412.792C2028.9 412.792 2024.77 412.365 2020.36 411.51C2015.94 410.656 2011.81 409.588 2007.96 408.163C2004.12 406.739 2000.98 405.172 1998.42 403.463L2004.33 392.852C2006.61 394.348 2009.39 395.772 2012.59 396.983C2015.8 398.193 2019.22 399.119 2022.78 399.831C2026.34 400.543 2029.76 400.828 2033.03 400.828C2045.35 400.828 2051.48 397.125 2051.48 389.648C2051.48 386.514 2050.41 384.164 2048.2 382.526C2046.06 380.888 2042.29 379.606 2036.95 378.609L2024.41 376.33C2008.04 373.339 1999.77 365.933 1999.77 354.112H1999.85Z" fill="white" style="fill:white;fill-opacity:1;"/>
<path d="M2079.18 366.503C2081.74 361.945 2085.37 358.384 2090.15 355.821C2094.92 353.257 2100.61 351.975 2107.24 351.975C2111.01 351.975 2114.5 352.402 2117.56 353.257C2120.63 354.112 2123.05 355.322 2124.68 356.818C2126.32 358.242 2127.18 359.88 2127.18 361.589C2127.18 362.8 2126.75 364.01 2125.97 365.292C2125.18 366.574 2124.11 367.714 2122.69 368.782C2120.77 367.001 2118.49 365.72 2115.78 364.722C2113.08 363.797 2110.23 363.298 2107.17 363.298C2101.61 363.298 2097.2 364.936 2093.85 368.283C2090.5 371.63 2088.86 376.188 2088.86 382.028C2088.86 387.867 2090.57 392.354 2093.92 395.772C2097.27 399.119 2101.9 400.828 2107.66 400.828C2112.86 400.828 2117.56 399.546 2121.76 396.983L2127.25 406.668C2120.91 410.442 2113.93 412.365 2106.17 412.365C2100.04 412.365 2094.63 411.154 2090 408.662C2085.37 406.169 2081.74 402.751 2079.18 398.265C2076.61 393.778 2075.33 388.508 2075.33 382.455C2075.33 376.402 2076.61 371.203 2079.18 366.645V366.503Z" fill="white" style="fill:white;fill-opacity:1;"/>
<path d="M2136.29 341.578C2134.8 340.082 2134.08 338.159 2134.08 335.881C2134.08 333.602 2134.8 331.679 2136.29 330.183C2137.79 328.688 2139.64 327.905 2141.92 327.905C2144.2 327.905 2146.05 328.688 2147.54 330.183C2149.04 331.679 2149.75 333.602 2149.75 335.881C2149.75 338.159 2149.04 340.082 2147.54 341.578C2146.05 343.073 2144.2 343.857 2141.92 343.857C2139.64 343.857 2137.79 343.073 2136.29 341.578ZM2148.4 410.727H2135.44V359.595C2135.44 357.601 2136.08 356.106 2137.36 355.109C2138.64 354.112 2140.35 353.542 2142.35 353.542C2143.41 353.542 2144.48 353.684 2145.62 353.898C2146.76 354.111 2147.69 354.468 2148.33 354.824V410.798L2148.4 410.727Z" fill="white" style="fill:white;fill-opacity:1;"/>
<path d="M2190.49 412.294C2184.5 412.294 2179.16 411.012 2174.61 408.519C2169.98 406.027 2166.42 402.537 2163.85 398.122C2161.29 393.707 2160.01 388.508 2160.01 382.597C2160.01 376.687 2161.36 371.274 2163.99 366.716C2166.63 362.159 2170.33 358.527 2174.96 355.892C2179.66 353.257 2185 351.975 2190.99 351.975C2198.25 351.975 2204.16 353.684 2208.72 357.031C2213.2 360.378 2215.48 365.007 2215.48 370.847C2215.48 376.687 2212.85 381.244 2207.58 384.164C2202.31 387.155 2193.9 388.579 2182.44 388.579C2181.37 388.579 2180.09 388.579 2178.52 388.579C2176.96 388.579 2175.46 388.508 2173.89 388.437C2174.53 392.354 2176.53 395.558 2180.02 397.908C2183.51 400.259 2187.85 401.469 2193.05 401.469C2198.75 401.469 2203.95 400.116 2208.58 397.481L2213.35 406.597C2211.71 407.665 2209.57 408.662 2207.08 409.588C2204.59 410.513 2201.88 411.226 2198.96 411.724C2196.04 412.223 2193.26 412.436 2190.56 412.436L2190.49 412.294ZM2190.7 361.945C2185.72 361.945 2181.58 363.583 2178.31 366.788C2175.1 369.992 2173.4 374.265 2173.25 379.464C2174.53 379.535 2175.89 379.606 2177.38 379.606H2183.08C2196.25 379.606 2202.81 376.615 2202.81 370.633C2202.81 367.998 2201.67 365.862 2199.46 364.295C2197.25 362.728 2194.33 361.945 2190.77 361.945H2190.7Z" fill="white" style="fill:white;fill-opacity:1;"/>
<path d="M2225.1 376.188C2225.1 371.345 2226.24 367.073 2228.59 363.441C2230.94 359.809 2234.14 356.96 2238.34 354.966C2242.54 352.972 2247.39 351.975 2252.94 351.975C2258.5 351.975 2263.41 352.972 2267.61 354.966C2271.74 356.96 2274.95 359.809 2277.3 363.441C2279.65 367.073 2280.79 371.345 2280.79 376.188V410.727H2267.83V379.535C2267.83 374.336 2266.54 370.42 2264.05 367.713C2261.56 365.007 2257.86 363.654 2253.01 363.654C2243.11 363.654 2238.2 368.924 2238.2 379.464V410.656H2225.24V376.117L2225.1 376.188Z" fill="white" style="fill:white;fill-opacity:1;"/>
<path d="M2293.96 343.358C2293.96 341.364 2294.6 339.868 2295.88 338.871C2297.17 337.874 2298.88 337.305 2300.87 337.305C2301.94 337.305 2303.01 337.447 2304.14 337.661C2305.28 337.874 2306.21 338.159 2306.85 338.587V353.542H2323.37C2327.93 353.542 2330.21 355.536 2330.21 359.595C2330.21 361.802 2329.71 363.796 2328.71 365.506H2306.85V390.787C2306.85 393.991 2307.71 396.413 2309.34 398.193C2310.98 399.973 2313.47 400.828 2316.75 400.828C2318.6 400.828 2320.45 400.543 2322.38 400.045C2324.3 399.546 2325.94 398.763 2327.36 397.908L2332.63 406.596C2330.64 408.234 2328 409.659 2324.58 410.727C2321.17 411.795 2317.75 412.365 2314.19 412.365C2308.06 412.365 2303.15 410.656 2299.44 407.309C2295.74 403.961 2293.89 399.332 2293.89 393.564V343.429L2293.96 343.358Z" fill="white" style="fill:white;fill-opacity:1;"/>
<path d="M2340.96 341.578C2339.47 340.082 2338.76 338.159 2338.76 335.881C2338.76 333.602 2339.47 331.679 2340.96 330.183C2342.46 328.688 2344.31 327.905 2346.59 327.905C2348.87 327.905 2350.72 328.688 2352.21 330.183C2353.71 331.679 2354.42 333.602 2354.42 335.881C2354.42 338.159 2353.71 340.082 2352.21 341.578C2350.72 343.073 2348.87 343.857 2346.59 343.857C2344.31 343.857 2342.46 343.073 2340.96 341.578ZM2353.07 410.727H2340.11V359.595C2340.11 357.601 2340.75 356.106 2342.03 355.109C2343.31 354.112 2345.02 353.542 2347.02 353.542C2348.08 353.542 2349.15 353.684 2350.29 353.898C2351.43 354.111 2352.36 354.468 2353 354.824V410.798L2353.07 410.727Z" fill="white" style="fill:white;fill-opacity:1;"/>
<path d="M2367.31 349.981C2367.31 334.456 2376.21 326.765 2394.09 326.765C2398.01 326.765 2401.42 327.121 2404.2 327.762C2406.98 328.474 2409.04 329.4 2410.4 330.611C2411.68 331.75 2412.32 333.103 2412.32 334.599C2412.32 335.738 2411.96 336.878 2411.32 337.875C2410.61 338.943 2409.83 339.797 2408.9 340.367C2407.83 339.441 2405.91 338.658 2403.06 337.946C2400.21 337.234 2397.44 336.949 2394.8 336.949C2390.17 336.949 2386.61 338.088 2384.12 340.438C2381.63 342.788 2380.34 346.135 2380.34 350.622V353.471H2413.17C2415.6 353.471 2417.3 354.04 2418.3 355.037C2419.3 356.034 2419.8 357.957 2419.8 360.592V410.585H2406.84V365.363H2380.42V410.585H2367.45V349.839L2367.31 349.981Z" fill="white" style="fill:white;fill-opacity:1;"/>
<path d="M2491.51 433.516H2478.55V403.534C2476.41 406.241 2473.71 408.448 2470.43 409.944C2467.15 411.51 2463.38 412.294 2459.18 412.294C2453.7 412.294 2448.78 411.012 2444.37 408.377C2439.95 405.742 2436.46 402.181 2433.9 397.624C2431.33 393.066 2430.05 387.867 2430.05 382.099C2430.05 376.33 2431.41 371.061 2434.04 366.503C2436.68 361.945 2440.38 358.384 2445.08 355.821C2449.78 353.257 2455.26 351.975 2461.46 351.975C2467.65 351.975 2472.92 353.257 2477.41 355.892C2481.9 358.527 2485.39 362.301 2487.81 367.144C2490.3 372.058 2491.51 377.968 2491.51 384.876V433.516ZM2473.71 368.782C2470.43 365.363 2466.16 363.654 2461.03 363.654C2455.9 363.654 2451.77 365.363 2448.43 368.782C2445.15 372.2 2443.44 376.687 2443.44 382.241C2443.44 387.796 2445.08 392.283 2448.43 395.701C2451.7 399.119 2455.9 400.828 2461.03 400.828C2466.16 400.828 2470.43 399.119 2473.71 395.701C2476.98 392.283 2478.69 387.796 2478.69 382.241C2478.69 376.687 2477.05 372.2 2473.71 368.782Z" fill="white" style="fill:white;fill-opacity:1;"/>
<path d="M2559.09 387.582C2559.09 395.202 2556.6 401.184 2551.62 405.671C2546.63 410.157 2539.87 412.365 2531.25 412.365C2522.63 412.365 2516.01 410.157 2510.95 405.671C2505.9 401.184 2503.4 395.202 2503.4 387.582V359.524C2503.4 357.53 2504.04 356.034 2505.33 355.037C2506.61 354.04 2508.32 353.47 2510.31 353.47C2511.38 353.47 2512.45 353.613 2513.59 353.827C2514.73 354.04 2515.65 354.396 2516.29 354.752V384.734C2516.29 395.273 2521.21 400.543 2531.11 400.543C2541 400.543 2545.92 395.273 2545.92 384.734V359.524C2545.92 357.53 2546.56 356.034 2547.84 355.037C2549.12 354.04 2550.83 353.47 2552.83 353.47C2553.89 353.47 2554.96 353.613 2556.1 353.827C2557.24 354.04 2558.17 354.396 2558.81 354.752V387.582H2559.09Z" fill="white" style="fill:white;fill-opacity:1;"/>
<path d="M2600.47 412.294C2594.49 412.294 2589.15 411.012 2584.59 408.519C2579.96 406.027 2576.4 402.537 2573.83 398.122C2571.27 393.707 2569.99 388.508 2569.99 382.597C2569.99 376.687 2571.34 371.274 2573.98 366.716C2576.61 362.159 2580.31 358.527 2584.94 355.892C2589.64 353.257 2594.99 351.975 2600.97 351.975C2608.23 351.975 2614.14 353.684 2618.7 357.031C2623.19 360.378 2625.46 365.007 2625.46 370.847C2625.46 376.687 2622.83 381.244 2617.56 384.164C2612.29 387.155 2603.89 388.579 2592.42 388.579C2591.35 388.579 2590.07 388.579 2588.5 388.579C2586.94 388.579 2585.44 388.508 2583.88 388.437C2584.52 392.354 2586.51 395.558 2590 397.908C2593.49 400.259 2597.83 401.469 2603.03 401.469C2608.73 401.469 2613.93 400.116 2618.56 397.481L2623.33 406.597C2621.69 407.665 2619.55 408.662 2617.06 409.588C2614.57 410.513 2611.86 411.226 2608.94 411.724C2606.02 412.223 2603.25 412.436 2600.54 412.436L2600.47 412.294ZM2600.68 361.945C2595.7 361.945 2591.57 363.583 2588.29 366.788C2585.09 369.992 2583.38 374.265 2583.23 379.464C2584.52 379.535 2585.87 379.606 2587.37 379.606H2593.06C2606.24 379.606 2612.79 376.615 2612.79 370.633C2612.79 367.998 2611.65 365.862 2609.44 364.295C2607.23 362.728 2604.31 361.945 2600.75 361.945H2600.68Z" fill="white" style="fill:white;fill-opacity:1;"/>
<path d="M2691.84 412.294C2685.85 412.294 2680.51 411.012 2675.96 408.519C2671.33 406.027 2667.77 402.537 2665.2 398.122C2662.64 393.707 2661.36 388.508 2661.36 382.597C2661.36 376.687 2662.71 371.274 2665.34 366.716C2667.98 362.159 2671.68 358.527 2676.31 355.892C2681.01 353.257 2686.35 351.975 2692.34 351.975C2699.6 351.975 2705.51 353.684 2710.07 357.031C2714.55 360.378 2716.83 365.007 2716.83 370.847C2716.83 376.687 2714.2 381.244 2708.93 384.164C2703.66 387.155 2695.25 388.579 2683.79 388.579C2682.72 388.579 2681.44 388.579 2679.87 388.579C2678.31 388.579 2676.81 388.508 2675.24 388.437C2675.88 392.354 2677.88 395.558 2681.37 397.908C2684.86 400.259 2689.2 401.469 2694.4 401.469C2700.1 401.469 2705.3 400.116 2709.93 397.481L2714.7 406.597C2713.06 407.665 2710.92 408.662 2708.43 409.588C2705.94 410.513 2703.23 411.226 2700.31 411.724C2697.39 412.223 2694.61 412.436 2691.91 412.436L2691.84 412.294ZM2692.05 361.945C2687.07 361.945 2682.93 363.583 2679.66 366.788C2676.45 369.992 2674.75 374.265 2674.6 379.464C2675.88 379.535 2677.24 379.606 2678.73 379.606H2684.43C2697.61 379.606 2704.16 376.615 2704.16 370.633C2704.16 367.998 2703.02 365.862 2700.81 364.295C2698.6 362.728 2695.68 361.945 2692.12 361.945H2692.05Z" fill="white" style="fill:white;fill-opacity:1;"/>
<path d="M2726.45 343.358C2726.45 341.364 2727.09 339.868 2728.37 338.871C2729.65 337.874 2731.36 337.305 2733.35 337.305C2734.42 337.305 2735.49 337.447 2736.63 337.661C2737.77 337.874 2738.7 338.159 2739.34 338.587V353.542H2755.86C2760.42 353.542 2762.7 355.536 2762.7 359.595C2762.7 361.802 2762.2 363.796 2761.2 365.506H2739.34V390.787C2739.34 393.991 2740.19 396.413 2741.83 398.193C2743.47 399.973 2745.96 400.828 2749.24 400.828C2751.09 400.828 2752.94 400.543 2754.86 400.045C2756.78 399.546 2758.42 398.763 2759.85 397.908L2765.12 406.596C2763.12 408.234 2760.49 409.659 2757.07 410.727C2753.65 411.795 2750.23 412.365 2746.67 412.365C2740.55 412.365 2735.63 410.656 2731.93 407.309C2728.23 403.961 2726.38 399.332 2726.38 393.564V343.429L2726.45 343.358Z" fill="white" style="fill:white;fill-opacity:1;"/>
<path d="M2815.75 410.727H2802.22V338.8C2802.22 336.806 2802.86 335.311 2804.21 334.171C2805.57 333.103 2807.28 332.533 2809.41 332.533C2810.48 332.533 2811.55 332.676 2812.69 332.961C2813.83 333.246 2814.82 333.53 2815.82 333.958V410.727H2815.75Z" fill="white" style="fill:white;fill-opacity:1;"/>
<path d="M2830.7 376.188C2830.7 371.345 2831.84 367.073 2834.19 363.441C2836.54 359.809 2839.75 356.96 2843.95 354.966C2848.15 352.972 2853 351.975 2858.55 351.975C2864.1 351.975 2869.02 352.972 2873.22 354.966C2877.35 356.96 2880.56 359.809 2882.91 363.441C2885.26 367.073 2886.39 371.345 2886.39 376.188V410.727H2873.43V379.535C2873.43 374.336 2872.15 370.42 2869.66 367.713C2867.17 365.007 2863.46 363.654 2858.62 363.654C2848.72 363.654 2843.81 368.924 2843.81 379.464V410.656H2830.85V376.117L2830.7 376.188Z" fill="white" style="fill:white;fill-opacity:1;"/>
<path d="M2899.57 376.188C2899.57 371.345 2900.71 367.073 2903.06 363.441C2905.41 359.809 2908.61 356.96 2912.82 354.966C2917.02 352.972 2921.86 351.975 2927.41 351.975C2932.97 351.975 2937.88 352.972 2942.08 354.966C2946.21 356.96 2949.42 359.809 2951.77 363.441C2954.12 367.073 2955.26 371.345 2955.26 376.188V410.727H2942.3V379.535C2942.3 374.336 2941.02 370.42 2938.52 367.713C2936.03 365.007 2932.33 363.654 2927.49 363.654C2917.59 363.654 2912.67 368.924 2912.67 379.464V410.656H2899.71V376.117L2899.57 376.188Z" fill="white" style="fill:white;fill-opacity:1;"/>
<path d="M2970.21 397.481C2967.44 392.923 2966.08 387.796 2966.08 382.099C2966.08 376.402 2967.44 371.274 2970.21 366.716C2972.99 362.159 2976.69 358.527 2981.47 355.892C2986.17 353.257 2991.51 351.904 2997.42 351.904C3003.33 351.904 3008.67 353.257 3013.44 355.892C3018.21 358.527 3021.92 362.159 3024.69 366.716C3027.4 371.274 3028.82 376.402 3028.82 382.099C3028.82 387.796 3027.47 392.923 3024.69 397.481C3021.99 402.039 3018.21 405.671 3013.44 408.306C3008.67 410.941 3003.33 412.294 2997.42 412.294C2991.51 412.294 2986.17 410.941 2981.47 408.306C2976.77 405.671 2972.99 402.039 2970.21 397.481ZM3012.94 391.855C3014.44 389.007 3015.22 385.731 3015.22 382.099C3015.22 378.467 3014.44 375.191 3012.94 372.342C3011.45 369.494 3009.31 367.286 3006.6 365.648C3003.9 364.081 3000.84 363.227 2997.42 363.227C2994 363.227 2990.94 364.01 2988.23 365.648C2985.53 367.215 2983.46 369.494 2981.89 372.342C2980.4 375.191 2979.61 378.467 2979.61 382.099C2979.61 385.731 2980.4 389.007 2981.89 391.855C2983.39 394.704 2985.53 396.911 2988.23 398.549C2990.94 400.116 2994 400.971 2997.42 400.971C3000.84 400.971 3003.9 400.187 3006.6 398.549C3009.31 396.911 3011.38 394.704 3012.94 391.855Z" fill="white" style="fill:white;fill-opacity:1;"/>
<path d="M3053.61 374.194C3056.88 381.671 3060.44 389.22 3064.15 396.911C3065.36 394.632 3066.85 391.428 3068.7 387.369C3070.56 383.309 3072.48 378.823 3074.54 373.98C3076.61 369.138 3078.6 364.366 3080.53 359.595C3081.45 357.316 3082.45 355.749 3083.66 354.824C3084.87 353.898 3086.37 353.47 3088.29 353.47C3089.57 353.47 3090.99 353.755 3092.56 354.183C3094.13 354.61 3095.2 355.251 3095.69 355.821C3095.34 357.245 3094.48 359.595 3093.13 362.728C3091.78 365.862 3090.21 369.494 3088.36 373.695C3086.51 377.826 3084.51 382.099 3082.38 386.585C3080.24 391.001 3078.1 395.345 3075.97 399.546C3073.83 403.748 3071.91 407.451 3070.13 410.656H3057.38C3052.97 402.537 3048.98 394.775 3045.27 387.44C3041.64 380.033 3038.72 373.909 3036.59 368.995C3035.59 366.574 3034.81 364.509 3034.16 362.8C3033.52 361.09 3033.24 359.88 3033.24 359.239C3033.24 357.458 3033.81 356.105 3035.02 355.108C3036.23 354.111 3037.8 353.542 3039.72 353.542C3040.79 353.542 3041.86 353.684 3043 353.898C3044.13 354.111 3044.92 354.396 3045.42 354.681C3047.48 360.236 3050.12 366.716 3053.46 374.194H3053.61Z" fill="white" style="fill:white;fill-opacity:1;"/>
<path d="M3154.23 410.513C3150.32 411.083 3146.04 411.51 3141.41 411.795C3136.78 412.151 3132.65 412.294 3128.95 412.294C3119.55 412.294 3112.36 410.798 3107.37 407.878C3102.39 404.887 3099.9 400.116 3099.9 393.422C3099.9 387.511 3102.03 382.953 3106.31 379.749C3110.58 376.544 3117.56 374.977 3127.24 374.977C3129.45 374.977 3131.94 375.049 3134.65 375.191C3137.35 375.333 3139.56 375.547 3141.27 375.761C3141.27 371.132 3139.85 367.785 3137 365.648C3134.15 363.512 3129.95 362.444 3124.32 362.444C3120.76 362.444 3117.49 362.8 3114.57 363.583C3111.65 364.366 3109.51 365.292 3108.23 366.432C3107.37 365.791 3106.66 364.936 3106.09 363.868C3105.45 362.8 3105.17 361.589 3105.17 360.378C3105.17 357.815 3106.73 355.749 3109.94 354.254C3113.14 352.758 3117.84 351.975 3124.04 351.975C3134.01 351.975 3141.49 354.04 3146.61 358.1C3151.67 362.159 3154.23 368.212 3154.23 376.259V410.585V410.513ZM3116.7 400.757C3119.27 402.181 3123.33 402.893 3128.88 402.893C3131.16 402.893 3133.51 402.822 3135.86 402.609C3138.21 402.395 3140.06 402.181 3141.34 401.896V385.232C3139.7 384.876 3137.5 384.591 3134.79 384.378C3132.08 384.164 3129.73 384.093 3127.67 384.093C3122.11 384.093 3118.27 384.947 3116.13 386.514C3114 388.152 3112.86 390.573 3112.86 393.778C3112.86 396.983 3114.14 399.404 3116.7 400.757Z" fill="white" style="fill:white;fill-opacity:1;"/>
<path d="M3167.55 343.358C3167.55 341.364 3168.19 339.868 3169.47 338.871C3170.75 337.874 3172.46 337.305 3174.46 337.305C3175.53 337.305 3176.59 337.447 3177.73 337.661C3178.87 337.874 3179.8 338.159 3180.44 338.587V353.542H3196.96C3201.52 353.542 3203.8 355.536 3203.8 359.595C3203.8 361.802 3203.3 363.796 3202.3 365.506H3180.44V390.787C3180.44 393.991 3181.29 396.413 3182.93 398.193C3184.57 399.973 3187.06 400.828 3190.34 400.828C3192.19 400.828 3194.04 400.543 3195.96 400.045C3197.89 399.546 3199.53 398.763 3200.95 397.908L3206.22 406.596C3204.23 408.234 3201.59 409.659 3198.17 410.727C3194.75 411.795 3191.34 412.365 3187.77 412.365C3181.65 412.365 3176.74 410.656 3173.03 407.309C3169.33 403.961 3167.48 399.332 3167.48 393.564V343.429L3167.55 343.358Z" fill="white" style="fill:white;fill-opacity:1;"/>
<path d="M3214.55 341.578C3213.06 340.082 3212.34 338.159 3212.34 335.881C3212.34 333.602 3213.06 331.679 3214.55 330.183C3216.05 328.688 3217.9 327.905 3220.18 327.905C3222.46 327.905 3224.31 328.688 3225.8 330.183C3227.3 331.679 3228.01 333.602 3228.01 335.881C3228.01 338.159 3227.3 340.082 3225.8 341.578C3224.31 343.073 3222.46 343.857 3220.18 343.857C3217.9 343.857 3216.05 343.073 3214.55 341.578ZM3226.66 410.727H3213.7V359.595C3213.7 357.601 3214.34 356.106 3215.62 355.109C3216.9 354.112 3218.61 353.542 3220.6 353.542C3221.67 353.542 3222.74 353.684 3223.88 353.898C3225.02 354.111 3225.95 354.468 3226.59 354.824V410.798L3226.66 410.727Z" fill="white" style="fill:white;fill-opacity:1;"/>
<path d="M3242.47 397.481C3239.69 392.923 3238.34 387.796 3238.34 382.099C3238.34 376.402 3239.69 371.274 3242.47 366.716C3245.24 362.159 3248.95 358.527 3253.72 355.892C3258.42 353.257 3263.76 351.904 3269.67 351.904C3275.58 351.904 3280.92 353.257 3285.69 355.892C3290.47 358.527 3294.17 362.159 3296.95 366.716C3299.65 371.274 3301.08 376.402 3301.08 382.099C3301.08 387.796 3299.72 392.923 3296.95 397.481C3294.24 402.039 3290.47 405.671 3285.69 408.306C3280.92 410.941 3275.58 412.294 3269.67 412.294C3263.76 412.294 3258.42 410.941 3253.72 408.306C3249.02 405.671 3245.24 402.039 3242.47 397.481ZM3285.12 391.855C3286.62 389.007 3287.4 385.731 3287.4 382.099C3287.4 378.467 3286.62 375.191 3285.12 372.342C3283.63 369.494 3281.49 367.286 3278.79 365.648C3276.08 364.081 3273.02 363.227 3269.6 363.227C3266.18 363.227 3263.12 364.01 3260.41 365.648C3257.71 367.215 3255.64 369.494 3254.08 372.342C3252.58 375.191 3251.8 378.467 3251.8 382.099C3251.8 385.731 3252.58 389.007 3254.08 391.855C3255.57 394.704 3257.71 396.911 3260.41 398.549C3263.12 400.116 3266.18 400.971 3269.6 400.971C3273.02 400.971 3276.08 400.187 3278.79 398.549C3281.49 396.911 3283.56 394.704 3285.12 391.855Z" fill="white" style="fill:white;fill-opacity:1;"/>
<path d="M3311.9 376.188C3311.9 371.345 3313.04 367.073 3315.39 363.441C3317.74 359.809 3320.95 356.96 3325.15 354.966C3329.35 352.972 3334.19 351.975 3339.75 351.975C3345.3 351.975 3350.21 352.972 3354.42 354.966C3358.55 356.96 3361.75 359.809 3364.1 363.441C3366.45 367.073 3367.59 371.345 3367.59 376.188V410.727H3354.63V379.535C3354.63 374.336 3353.35 370.42 3350.86 367.713C3348.36 365.007 3344.66 363.654 3339.82 363.654C3329.92 363.654 3325 368.924 3325 379.464V410.656H3312.04V376.117L3311.9 376.188Z" fill="white" style="fill:white;fill-opacity:1;"/>
<path d="M2028.97 549.025C2022.99 549.025 2017.65 547.744 2013.09 545.251C2008.46 542.759 2004.9 539.269 2002.34 534.854C1999.77 530.439 1998.49 525.24 1998.49 519.329C1998.49 513.418 1999.85 508.006 2002.48 503.448C2005.12 498.89 2008.82 495.259 2013.45 492.624C2018.15 489.989 2023.49 488.707 2029.47 488.707C2036.73 488.707 2042.65 490.416 2047.2 493.763C2051.69 497.11 2053.97 501.739 2053.97 507.579C2053.97 513.418 2051.33 517.976 2046.06 520.896C2040.79 523.887 2032.39 525.311 2020.92 525.311C2019.86 525.311 2018.57 525.311 2017.01 525.311C2015.44 525.311 2013.95 525.24 2012.38 525.169C2013.02 529.085 2015.01 532.29 2018.5 534.64C2021.99 536.99 2026.34 538.201 2031.54 538.201C2037.23 538.201 2042.43 536.848 2047.06 534.213L2051.83 543.328C2050.19 544.397 2048.06 545.394 2045.57 546.319C2043.07 547.245 2040.37 547.957 2037.45 548.456C2034.53 548.954 2031.75 549.168 2029.04 549.168L2028.97 549.025ZM2029.26 498.677C2024.27 498.677 2020.14 500.315 2016.87 503.519C2013.66 506.724 2011.95 510.997 2011.81 516.196C2013.09 516.267 2014.44 516.338 2015.94 516.338H2021.64C2034.81 516.338 2041.36 513.347 2041.36 507.365C2041.36 504.73 2040.22 502.594 2038.02 501.027C2035.81 499.46 2032.89 498.677 2029.33 498.677H2029.26Z" fill="white" style="fill:white;fill-opacity:1;"/>
<path d="M2063.65 512.92C2063.65 508.077 2064.79 503.804 2067.14 500.172C2069.49 496.54 2072.7 493.692 2076.9 491.698C2081.1 489.704 2085.94 488.707 2091.5 488.707C2097.05 488.707 2101.97 489.704 2106.17 491.698C2110.3 493.692 2113.5 496.54 2115.85 500.172C2118.2 503.804 2119.34 508.077 2119.34 512.92V547.459H2106.38V516.267C2106.38 511.068 2105.1 507.151 2102.61 504.445C2100.12 501.739 2096.41 500.386 2091.57 500.386C2081.67 500.386 2076.76 505.656 2076.76 516.196V547.388H2063.8V512.848L2063.65 512.92Z" fill="white" style="fill:white;fill-opacity:1;"/>
<path d="M2176.32 547.459H2162.78V475.532C2162.78 473.538 2163.43 472.043 2164.78 470.903C2166.13 469.835 2167.84 469.265 2169.98 469.265C2171.05 469.265 2172.11 469.408 2173.25 469.692C2174.39 469.977 2175.39 470.262 2176.39 470.689V547.459H2176.32Z" fill="white" style="fill:white;fill-opacity:1;"/>
<path d="M2191.27 512.92C2191.27 508.077 2192.41 503.804 2194.76 500.172C2197.11 496.54 2200.31 493.692 2204.52 491.698C2208.72 489.704 2213.56 488.707 2219.11 488.707C2224.67 488.707 2229.58 489.704 2233.79 491.698C2237.92 493.692 2241.12 496.54 2243.47 500.172C2245.82 503.804 2246.96 508.077 2246.96 512.92V547.459H2234V516.267C2234 511.068 2232.72 507.151 2230.22 504.445C2227.73 501.739 2224.03 500.386 2219.19 500.386C2209.29 500.386 2204.37 505.656 2204.37 516.196V547.388H2191.41V512.848L2191.27 512.92Z" fill="white" style="fill:white;fill-opacity:1;"/>
<path d="M2260.42 486.713C2260.42 479.164 2262.41 473.467 2266.47 469.479C2270.46 465.491 2276.66 463.497 2284.92 463.497C2290.9 463.497 2295.39 464.494 2298.23 466.559C2300.01 467.841 2300.87 469.479 2300.87 471.33C2300.87 473.752 2299.73 475.675 2297.45 477.028C2296.17 475.959 2294.46 475.176 2292.32 474.606C2290.19 474.037 2288.05 473.752 2285.84 473.752C2277.58 473.752 2273.45 478.096 2273.45 486.855V490.273H2290.54C2295.1 490.273 2297.38 492.267 2297.38 496.327C2297.38 498.534 2296.88 500.528 2295.88 502.238H2273.45V547.459H2260.49V486.713H2260.42Z" fill="white" style="fill:white;fill-opacity:1;"/>
<path d="M2303.01 534.213C2300.23 529.655 2298.88 524.528 2298.88 518.83C2298.88 513.133 2300.23 508.006 2303.01 503.448C2305.78 498.89 2309.49 495.258 2314.26 492.624C2318.96 489.989 2324.3 488.635 2330.21 488.635C2336.12 488.635 2341.46 489.989 2346.23 492.624C2351 495.258 2354.71 498.89 2357.48 503.448C2360.19 508.006 2361.62 513.133 2361.62 518.83C2361.62 524.528 2360.26 529.655 2357.48 534.213C2354.78 538.771 2351 542.402 2346.23 545.037C2341.46 547.672 2336.12 549.025 2330.21 549.025C2324.3 549.025 2318.96 547.672 2314.26 545.037C2309.56 542.402 2305.78 538.771 2303.01 534.213ZM2345.66 528.587C2347.16 525.738 2347.94 522.462 2347.94 518.83C2347.94 515.199 2347.16 511.923 2345.66 509.074C2344.17 506.225 2342.03 504.018 2339.32 502.38C2336.62 500.813 2333.56 499.959 2330.14 499.959C2326.72 499.959 2323.66 500.742 2320.95 502.38C2318.25 503.947 2316.18 506.225 2314.61 509.074C2313.12 511.923 2312.33 515.199 2312.33 518.83C2312.33 522.462 2313.12 525.738 2314.61 528.587C2316.11 531.435 2318.25 533.643 2320.95 535.281C2323.66 536.848 2326.72 537.702 2330.14 537.702C2333.56 537.702 2336.62 536.919 2339.32 535.281C2342.03 533.643 2344.1 531.435 2345.66 528.587Z" fill="white" style="fill:white;fill-opacity:1;"/>
<path d="M2372.44 510.641C2372.44 503.733 2374.58 498.321 2378.85 494.475C2383.12 490.63 2389.1 488.635 2396.65 488.635C2401.85 488.635 2405.84 489.419 2408.62 490.914C2411.39 492.41 2412.82 494.404 2412.82 496.754C2412.82 497.965 2412.46 499.175 2411.82 500.386C2411.18 501.597 2410.54 502.38 2409.97 502.807C2406.62 501.169 2402.85 500.315 2398.72 500.315C2389.82 500.315 2385.4 505.015 2385.4 514.415V547.459H2372.44V510.641Z" fill="white" style="fill:white;fill-opacity:1;"/>
<path d="M2512.16 547.459H2499.2V514.985C2499.2 510.142 2498.13 506.439 2495.93 504.018C2493.72 501.597 2490.51 500.386 2486.38 500.386C2481.9 500.386 2478.48 501.81 2476.06 504.516C2473.64 507.294 2472.5 511.21 2472.5 516.338V547.459H2459.54V516.338C2459.54 511.282 2458.4 507.294 2456.05 504.516C2453.7 501.739 2450.35 500.386 2445.86 500.386C2441.66 500.386 2438.46 501.668 2436.11 504.16C2433.76 506.653 2432.62 510.285 2432.62 515.127V547.459H2419.65V510.641C2419.65 506.154 2420.72 502.238 2422.79 498.962C2424.85 495.686 2427.77 493.122 2431.55 491.342C2435.32 489.561 2439.67 488.635 2444.72 488.635C2454.62 488.635 2461.74 492.125 2466.23 499.033C2470.72 492.125 2477.77 488.635 2487.45 488.635C2492.37 488.635 2496.71 489.49 2500.41 491.342C2504.12 493.122 2507.04 495.686 2509.1 498.89C2511.17 502.166 2512.23 506.012 2512.23 510.498V547.387L2512.16 547.459Z" fill="white" style="fill:white;fill-opacity:1;"/>
<path d="M2576.83 547.245C2572.91 547.815 2568.64 548.242 2564.01 548.527C2559.38 548.883 2555.25 549.025 2551.54 549.025C2542.14 549.025 2534.95 547.53 2529.97 544.61C2524.98 541.619 2522.49 536.848 2522.49 530.154C2522.49 524.243 2524.63 519.685 2528.9 516.48C2533.17 513.276 2540.15 511.709 2549.83 511.709C2552.04 511.709 2554.54 511.78 2557.24 511.923C2559.95 512.065 2562.16 512.279 2563.86 512.492C2563.86 507.863 2562.44 504.516 2559.59 502.38C2556.74 500.244 2552.54 499.175 2546.92 499.175C2543.35 499.175 2540.08 499.531 2537.16 500.315C2534.24 501.098 2532.1 502.024 2530.82 503.163C2529.97 502.522 2529.25 501.668 2528.68 500.6C2528.04 499.531 2527.76 498.321 2527.76 497.11C2527.76 494.546 2529.33 492.481 2532.53 490.986C2535.73 489.49 2540.43 488.707 2546.63 488.707C2556.6 488.707 2564.08 490.772 2569.21 494.831C2574.26 498.89 2576.83 504.944 2576.83 512.991V547.316V547.245ZM2539.37 537.489C2541.93 538.913 2545.99 539.625 2551.54 539.625C2553.82 539.625 2556.17 539.554 2558.52 539.34C2560.87 539.127 2562.72 538.913 2564.01 538.628V521.964C2562.37 521.608 2560.16 521.323 2557.45 521.109C2554.75 520.896 2552.4 520.825 2550.33 520.825C2544.78 520.825 2540.93 521.679 2538.8 523.246C2536.66 524.884 2535.52 527.305 2535.52 530.51C2535.52 533.714 2536.8 536.136 2539.37 537.489Z" fill="white" style="fill:white;fill-opacity:1;"/>
<path d="M2590.21 480.09C2590.21 478.096 2590.85 476.6 2592.14 475.603C2593.42 474.606 2595.13 474.037 2597.12 474.037C2598.19 474.037 2599.26 474.179 2600.4 474.393C2601.54 474.606 2602.46 474.891 2603.1 475.318V490.274H2619.63C2624.18 490.274 2626.46 492.268 2626.46 496.327C2626.46 498.534 2625.96 500.528 2624.97 502.238H2603.1V527.519C2603.1 530.723 2603.96 533.145 2605.6 534.925C2607.23 536.705 2609.73 537.56 2613 537.56C2614.85 537.56 2616.71 537.275 2618.63 536.777C2620.55 536.278 2622.19 535.495 2623.61 534.64L2628.88 543.328C2626.89 544.966 2624.25 546.391 2620.84 547.459C2617.42 548.527 2614 549.097 2610.44 549.097C2604.31 549.097 2599.4 547.388 2595.7 544.04C2591.99 540.693 2590.14 536.064 2590.14 530.296V480.161L2590.21 480.09Z" fill="white" style="fill:white;fill-opacity:1;"/>
<path d="M2637.22 478.309C2635.72 476.814 2635.01 474.891 2635.01 472.612C2635.01 470.333 2635.72 468.411 2637.22 466.915C2638.71 465.42 2640.56 464.636 2642.84 464.636C2645.12 464.636 2646.97 465.42 2648.47 466.915C2649.96 468.411 2650.67 470.333 2650.67 472.612C2650.67 474.891 2649.96 476.814 2648.47 478.309C2646.97 479.805 2645.12 480.588 2642.84 480.588C2640.56 480.588 2638.71 479.805 2637.22 478.309ZM2649.32 547.459H2636.36V496.327C2636.36 494.333 2637 492.837 2638.28 491.84C2639.57 490.843 2641.27 490.273 2643.27 490.273C2644.34 490.273 2645.4 490.416 2646.54 490.629C2647.68 490.843 2648.61 491.199 2649.25 491.555V547.53L2649.32 547.459Z" fill="white" style="fill:white;fill-opacity:1;"/>
<path d="M2722.46 570.247H2709.5V540.266C2707.36 542.972 2704.66 545.18 2701.38 546.675C2698.1 548.242 2694.33 549.025 2690.13 549.025C2684.64 549.025 2679.73 547.744 2675.32 545.109C2670.9 542.474 2667.41 538.913 2664.85 534.355C2662.28 529.798 2661 524.599 2661 518.831C2661 513.062 2662.35 507.792 2664.99 503.235C2667.62 498.677 2671.33 495.116 2676.03 492.552C2680.73 489.989 2686.21 488.707 2692.41 488.707C2698.6 488.707 2703.87 489.989 2708.36 492.624C2712.84 495.259 2716.33 499.033 2718.76 503.875C2721.25 508.789 2722.46 514.7 2722.46 521.608V570.247ZM2704.66 505.513C2701.38 502.095 2697.11 500.386 2691.98 500.386C2686.85 500.386 2682.72 502.095 2679.37 505.513C2676.1 508.932 2674.39 513.418 2674.39 518.973C2674.39 524.528 2676.03 529.014 2679.37 532.432C2682.65 535.851 2686.85 537.56 2691.98 537.56C2697.11 537.56 2701.38 535.851 2704.66 532.432C2707.93 529.014 2709.64 524.528 2709.64 518.973C2709.64 513.418 2708 508.932 2704.66 505.513Z" fill="white" style="fill:white;fill-opacity:1;"/>
<path d="M2790.04 524.314C2790.04 531.934 2787.55 537.916 2782.56 542.403C2777.58 546.889 2770.81 549.097 2762.2 549.097C2753.58 549.097 2746.96 546.889 2741.9 542.403C2736.84 537.916 2734.35 531.934 2734.35 524.314V496.256C2734.35 494.262 2734.99 492.766 2736.27 491.769C2737.56 490.772 2739.27 490.202 2741.26 490.202C2742.33 490.202 2743.4 490.345 2744.54 490.558C2745.68 490.772 2746.6 491.128 2747.24 491.484V521.466C2747.24 532.005 2752.16 537.275 2762.05 537.275C2771.95 537.275 2776.87 532.005 2776.87 521.466V496.256C2776.87 494.262 2777.51 492.766 2778.79 491.769C2780.07 490.772 2781.78 490.202 2783.77 490.202C2784.84 490.202 2785.91 490.345 2787.05 490.558C2788.19 490.772 2789.12 491.128 2789.76 491.484V524.314H2790.04Z" fill="white" style="fill:white;fill-opacity:1;"/>
<path d="M2831.42 549.025C2825.44 549.025 2820.09 547.744 2815.54 545.251C2810.91 542.759 2807.35 539.269 2804.78 534.854C2802.22 530.439 2800.94 525.24 2800.94 519.329C2800.94 513.418 2802.29 508.006 2804.93 503.448C2807.56 498.89 2811.26 495.259 2815.89 492.624C2820.59 489.989 2825.93 488.707 2831.92 488.707C2839.18 488.707 2845.09 490.416 2849.65 493.763C2854.13 497.11 2856.41 501.739 2856.41 507.579C2856.41 513.418 2853.78 517.976 2848.51 520.896C2843.24 523.887 2834.84 525.311 2823.37 525.311C2822.3 525.311 2821.02 525.311 2819.45 525.311C2817.89 525.311 2816.39 525.24 2814.82 525.169C2815.47 529.085 2817.46 532.29 2820.95 534.64C2824.44 536.99 2828.78 538.201 2833.98 538.201C2839.68 538.201 2844.88 536.848 2849.51 534.213L2854.28 543.328C2852.64 544.397 2850.5 545.394 2848.01 546.319C2845.52 547.245 2842.81 547.957 2839.89 548.456C2836.97 548.954 2834.19 549.168 2831.49 549.168L2831.42 549.025ZM2831.63 498.677C2826.65 498.677 2822.52 500.315 2819.24 503.519C2816.03 506.724 2814.33 510.997 2814.18 516.196C2815.47 516.267 2816.82 516.338 2818.31 516.338H2824.01C2837.19 516.338 2843.74 513.347 2843.74 507.365C2843.74 504.73 2842.6 502.594 2840.39 501.027C2838.18 499.46 2835.26 498.677 2831.7 498.677H2831.63Z" fill="white" style="fill:white;fill-opacity:1;"/>
<path d="M60.6638 98.291C87.1911 92.03 103.62 65.4498 97.3592 38.9225C91.0982 12.3952 64.518 -4.03386 37.9907 2.22715C11.4634 8.48817 -4.96571 35.0684 1.29531 61.5957C7.55632 88.123 34.1365 104.552 60.6638 98.291Z" fill="white" style="fill:white;fill-opacity:1;"/>
<path d="M398.944 0.887451C205.881 0.887451 49.3516 157.417 49.3516 350.479C49.3516 543.542 205.881 700.071 398.944 700.071C592.006 700.071 748.536 543.542 748.536 350.479C748.536 157.417 592.006 0.887451 398.944 0.887451ZM408.557 453.242L315.765 546.319C289.772 572.384 247.47 572.455 221.406 546.462C195.27 520.468 195.27 478.167 221.263 452.103L314.056 359.025C340.049 332.889 382.351 332.889 408.415 358.883C434.48 384.876 434.551 427.177 408.557 453.242ZM622.343 586.128H561.669C528.198 586.128 500.994 558.995 500.994 525.453V327.264C500.994 293.793 473.861 266.589 440.319 266.589H242.129C208.658 266.589 181.454 239.456 181.454 205.914C181.454 172.372 208.587 145.239 242.129 145.239H567.793C597.917 145.239 622.343 169.666 622.343 199.79V586.128Z" fill="white" style="fill:white;fill-opacity:1;"/>
</g>
<defs>
<clipPath id="clip0_4_2169">
<rect width="3385.18" height="699.113" fill="white" style="fill:white;fill-opacity:1;" transform="translate(0 0.887451)"/>
</clipPath>
</defs>
</svg>
