<svg width="428" height="100" viewBox="0 0 428 100" fill="none" xmlns="http://www.w3.org/2000/svg">
<path d="M57.4301 99.5838C84.5417 99.5838 106.52 77.6055 106.52 50.4938C106.52 23.3822 84.5417 1.40381 57.4301 1.40381C30.3184 1.40381 8.34009 23.3822 8.34009 50.4938C8.34009 77.6055 30.3184 99.5838 57.4301 99.5838Z" fill="#256360" style="fill:#256360;fill:color(display-p3 0.1451 0.3882 0.3765);fill-opacity:1;"/>
<path d="M81.1401 21.6738H35.4101C30.7101 21.6738 26.8901 25.4838 26.8901 30.1938C26.8901 34.9038 30.7001 38.7138 35.4101 38.7138H63.2401C67.9401 38.7138 71.7601 42.5238 71.7601 47.2338V75.0638C71.7601 79.7638 75.5701 83.5838 80.2801 83.5838H88.8001V29.3338C88.8001 25.1038 85.3701 21.6738 81.1401 21.6738Z" fill="#61E0D4" style="fill:#61E0D4;fill:color(display-p3 0.3804 0.8784 0.8314);fill-opacity:1;"/>
<path d="M58.7603 51.6739C55.1003 48.0239 49.1603 48.0339 45.5103 51.6939L32.4803 64.7639C28.8303 68.4339 28.8403 74.3639 32.5003 78.0139C36.1603 81.6639 42.1003 81.6539 45.7503 77.9939L58.7803 64.9239C62.4303 61.2639 62.4203 55.3239 58.7603 51.6739Z" fill="#61E0D4" style="fill:#61E0D4;fill:color(display-p3 0.3804 0.8784 0.8314);fill-opacity:1;"/>
<path d="M228.736 37.8063C231.442 35.0999 231.442 30.7121 228.736 28.0058C226.03 25.2994 221.642 25.2994 218.935 28.0058C216.229 30.7121 216.229 35.0999 218.935 37.8063C221.642 40.5126 226.03 40.5126 228.736 37.8063Z" fill="#61E0D4" style="fill:#61E0D4;fill:color(display-p3 0.3804 0.8784 0.8314);fill-opacity:1;"/>
<path d="M254.396 39.6594C258.12 38.7803 260.427 35.0479 259.548 31.3229C258.669 27.5979 254.937 25.2909 251.212 26.1701C247.487 27.0493 245.18 30.7817 246.059 34.5066C246.938 38.2316 250.671 40.5386 254.396 39.6594Z" fill="#61E0D4" style="fill:#61E0D4;fill:color(display-p3 0.3804 0.8784 0.8314);fill-opacity:1;"/>
<path d="M131.99 33.9838V26.6738H116.65V74.5438C116.65 78.6938 120.02 82.0638 124.17 82.0638H132.71V55.9138C132.71 45.3138 138.58 40.4738 147.43 40.4738C148.67 40.4738 149.7 40.5738 151.03 40.6838V25.8638C142.48 25.8638 135.9 28.6438 131.98 33.9938L131.99 33.9838Z" fill="#256360" style="fill:#256360;fill:color(display-p3 0.1451 0.3882 0.3765);fill-opacity:1;"/>
<path d="M172.15 43.1438C172.15 40.2638 175.24 37.9937 182.45 37.9937C187.49 37.9937 192.95 39.0237 198.41 42.1137L203.76 30.6838C198.51 27.5938 190.07 25.8438 182.45 25.8438C166.29 25.8438 156.82 33.2537 156.82 43.7537C156.82 65.8837 190.28 56.6237 190.28 65.6837C190.28 68.7737 187.5 70.7237 180.09 70.7237C173.3 70.7237 165.78 68.5637 160.84 65.3737L155.49 76.9037C160.64 80.3037 170.11 82.8737 179.48 82.8737C196.05 82.8737 205.63 75.5638 205.63 65.2738C205.63 43.4538 172.17 52.6138 172.17 43.1438H172.15Z" fill="#256360" style="fill:#256360;fill:color(display-p3 0.1451 0.3882 0.3765);fill-opacity:1;"/>
<path d="M215.49 82.0539H222.71C227.59 82.0539 231.55 78.0939 231.55 73.2139V46.7439H215.49V82.0539Z" fill="#256360" style="fill:#256360;fill:color(display-p3 0.1451 0.3882 0.3765);fill-opacity:1;"/>
<path d="M244.45 46.7439V82.0539H251.67C256.55 82.0539 260.51 78.0939 260.51 73.2139V46.7439H244.45Z" fill="#256360" style="fill:#256360;fill:color(display-p3 0.1451 0.3882 0.3765);fill-opacity:1;"/>
<path d="M9.92847 15.0813C13.6535 14.2021 15.9604 10.4697 15.0813 6.74474C14.2021 3.01976 10.4697 0.712771 6.74469 1.59195C3.0197 2.47112 0.712714 6.20354 1.59189 9.92852C2.47107 13.6535 6.20348 15.9605 9.92847 15.0813Z" fill="#61E0D4" style="fill:#61E0D4;fill:color(display-p3 0.3804 0.8784 0.8314);fill-opacity:1;"/>
<path d="M425.301 39.9215C424.669 39.9215 424.109 39.7895 423.621 39.5255C423.141 39.2615 422.765 38.8975 422.493 38.4335C422.221 37.9615 422.085 37.4135 422.085 36.7895C422.085 36.1575 422.225 35.6015 422.505 35.1215C422.785 34.6335 423.169 34.2535 423.657 33.9815C424.153 33.7015 424.717 33.5615 425.349 33.5615C426.117 33.5615 426.737 33.7415 427.209 34.1015C427.689 34.4535 427.929 34.9375 427.929 35.5535C427.929 36.1775 427.649 36.6455 427.089 36.9575C426.537 37.2695 425.657 37.4255 424.449 37.4255C424.337 37.4255 424.197 37.4255 424.029 37.4255C423.869 37.4175 423.709 37.4095 423.549 37.4015C423.613 37.8175 423.825 38.1495 424.185 38.3975C424.553 38.6455 425.013 38.7695 425.565 38.7695C426.165 38.7695 426.709 38.6295 427.197 38.3495L427.701 39.3095C427.525 39.4215 427.305 39.5255 427.041 39.6215C426.777 39.7175 426.493 39.7895 426.189 39.8375C425.885 39.8935 425.589 39.9215 425.301 39.9215ZM425.325 34.6175C424.797 34.6175 424.361 34.7895 424.017 35.1335C423.681 35.4695 423.505 35.9135 423.489 36.4655C423.625 36.4735 423.769 36.4775 423.921 36.4775C424.073 36.4775 424.273 36.4775 424.521 36.4775C425.905 36.4775 426.597 36.1615 426.597 35.5295C426.597 35.2495 426.477 35.0295 426.237 34.8695C426.005 34.7015 425.701 34.6175 425.325 34.6175Z" fill="white" style="fill:white;fill-opacity:1;"/>
<path d="M415.107 31.5457C415.107 31.3377 415.175 31.1817 415.311 31.0777C415.447 30.9657 415.623 30.9097 415.839 30.9097C415.951 30.9097 416.067 30.9217 416.187 30.9457C416.307 30.9697 416.403 31.0017 416.475 31.0417V34.3537C416.691 34.0977 416.971 33.9017 417.315 33.7657C417.659 33.6297 418.043 33.5617 418.467 33.5617C419.251 33.5617 419.859 33.7817 420.291 34.2217C420.731 34.6537 420.951 35.2497 420.951 36.0097V39.7537H419.583V36.4177C419.583 35.8737 419.471 35.4697 419.247 35.2057C419.023 34.9417 418.663 34.8097 418.167 34.8097C417.639 34.8097 417.223 34.9577 416.919 35.2537C416.623 35.5497 416.475 35.9777 416.475 36.5377V39.7537H415.107V31.5457Z" fill="white" style="fill:white;fill-opacity:1;"/>
<path d="M409.251 35.0975C409.523 34.6175 409.911 34.2415 410.415 33.9695C410.919 33.6975 411.519 33.5615 412.215 33.5615C412.615 33.5615 412.975 33.6095 413.295 33.7055C413.623 33.7935 413.875 33.9175 414.051 34.0775C414.227 34.2295 414.315 34.3975 414.315 34.5815C414.315 34.7095 414.271 34.8415 414.183 34.9775C414.103 35.1055 413.991 35.2255 413.847 35.3375C413.647 35.1535 413.403 35.0135 413.115 34.9175C412.835 34.8135 412.535 34.7615 412.215 34.7615C411.631 34.7615 411.163 34.9375 410.811 35.2895C410.459 35.6335 410.283 36.1135 410.283 36.7295C410.283 37.3375 410.459 37.8215 410.811 38.1815C411.171 38.5335 411.655 38.7095 412.263 38.7095C412.807 38.7095 413.303 38.5735 413.751 38.3015L414.327 39.3215C413.663 39.7215 412.923 39.9215 412.107 39.9215C411.459 39.9215 410.891 39.7935 410.403 39.5375C409.915 39.2735 409.535 38.9055 409.263 38.4335C408.991 37.9615 408.855 37.4055 408.855 36.7655C408.855 36.1335 408.987 35.5775 409.251 35.0975Z" fill="white" style="fill:white;fill-opacity:1;"/>
<path d="M404.255 35.8775C404.255 35.1495 404.479 34.5815 404.927 34.1735C405.383 33.7655 406.011 33.5615 406.811 33.5615C407.355 33.5615 407.775 33.6415 408.071 33.8015C408.367 33.9615 408.515 34.1655 408.515 34.4135C408.515 34.5415 408.479 34.6695 408.407 34.7975C408.343 34.9255 408.279 35.0095 408.215 35.0495C407.863 34.8735 407.467 34.7855 407.027 34.7855C406.091 34.7855 405.623 35.2815 405.623 36.2735V39.7535H404.255V35.8775Z" fill="white" style="fill:white;fill-opacity:1;"/>
<path d="M400.61 39.9215C399.978 39.9215 399.418 39.7895 398.93 39.5255C398.45 39.2615 398.074 38.8975 397.802 38.4335C397.53 37.9615 397.394 37.4135 397.394 36.7895C397.394 36.1575 397.534 35.6015 397.814 35.1215C398.094 34.6335 398.478 34.2535 398.966 33.9815C399.462 33.7015 400.026 33.5615 400.658 33.5615C401.426 33.5615 402.046 33.7415 402.518 34.1015C402.998 34.4535 403.238 34.9375 403.238 35.5535C403.238 36.1775 402.958 36.6455 402.398 36.9575C401.846 37.2695 400.966 37.4255 399.758 37.4255C399.646 37.4255 399.506 37.4255 399.338 37.4255C399.178 37.4175 399.018 37.4095 398.858 37.4015C398.922 37.8175 399.134 38.1495 399.494 38.3975C399.862 38.6455 400.322 38.7695 400.874 38.7695C401.474 38.7695 402.018 38.6295 402.506 38.3495L403.01 39.3095C402.834 39.4215 402.614 39.5255 402.35 39.6215C402.086 39.7175 401.802 39.7895 401.498 39.8375C401.194 39.8935 400.898 39.9215 400.61 39.9215ZM400.634 34.6175C400.106 34.6175 399.67 34.7895 399.326 35.1335C398.99 35.4695 398.814 35.9135 398.798 36.4655C398.934 36.4735 399.078 36.4775 399.23 36.4775C399.382 36.4775 399.582 36.4775 399.83 36.4775C401.214 36.4775 401.906 36.1615 401.906 35.5295C401.906 35.2495 401.786 35.0295 401.546 34.8695C401.314 34.7015 401.01 34.6175 400.634 34.6175Z" fill="white" style="fill:white;fill-opacity:1;"/>
<path d="M390.416 31.5457C390.416 31.3377 390.484 31.1817 390.62 31.0777C390.756 30.9657 390.932 30.9097 391.148 30.9097C391.26 30.9097 391.376 30.9217 391.496 30.9457C391.616 30.9697 391.712 31.0017 391.784 31.0417V34.3537C392 34.0977 392.28 33.9017 392.624 33.7657C392.968 33.6297 393.352 33.5617 393.776 33.5617C394.56 33.5617 395.168 33.7817 395.6 34.2217C396.04 34.6537 396.26 35.2497 396.26 36.0097V39.7537H394.892V36.4177C394.892 35.8737 394.78 35.4697 394.556 35.2057C394.332 34.9417 393.972 34.8097 393.476 34.8097C392.948 34.8097 392.532 34.9577 392.228 35.2537C391.932 35.5497 391.784 35.9777 391.784 36.5377V39.7537H390.416V31.5457Z" fill="white" style="fill:white;fill-opacity:1;"/>
<path d="M384.56 35.0975C384.832 34.6175 385.22 34.2415 385.724 33.9695C386.228 33.6975 386.828 33.5615 387.524 33.5615C387.924 33.5615 388.284 33.6095 388.604 33.7055C388.932 33.7935 389.184 33.9175 389.36 34.0775C389.536 34.2295 389.624 34.3975 389.624 34.5815C389.624 34.7095 389.58 34.8415 389.492 34.9775C389.412 35.1055 389.3 35.2255 389.156 35.3375C388.956 35.1535 388.712 35.0135 388.424 34.9175C388.144 34.8135 387.844 34.7615 387.524 34.7615C386.94 34.7615 386.472 34.9375 386.12 35.2895C385.768 35.6335 385.592 36.1135 385.592 36.7295C385.592 37.3375 385.768 37.8215 386.12 38.1815C386.48 38.5335 386.964 38.7095 387.572 38.7095C388.116 38.7095 388.612 38.5735 389.06 38.3015L389.636 39.3215C388.972 39.7215 388.232 39.9215 387.416 39.9215C386.768 39.9215 386.2 39.7935 385.712 39.5375C385.224 39.2735 384.844 38.9055 384.572 38.4335C384.3 37.9615 384.164 37.4055 384.164 36.7655C384.164 36.1335 384.296 35.5775 384.56 35.0975Z" fill="white" style="fill:white;fill-opacity:1;"/>
<path d="M380.758 39.9215C380.126 39.9215 379.566 39.7895 379.078 39.5255C378.598 39.2615 378.222 38.8975 377.95 38.4335C377.678 37.9615 377.542 37.4135 377.542 36.7895C377.542 36.1575 377.682 35.6015 377.962 35.1215C378.242 34.6335 378.626 34.2535 379.114 33.9815C379.61 33.7015 380.174 33.5615 380.806 33.5615C381.574 33.5615 382.194 33.7415 382.666 34.1015C383.146 34.4535 383.386 34.9375 383.386 35.5535C383.386 36.1775 383.106 36.6455 382.546 36.9575C381.994 37.2695 381.114 37.4255 379.906 37.4255C379.794 37.4255 379.654 37.4255 379.486 37.4255C379.326 37.4175 379.166 37.4095 379.006 37.4015C379.07 37.8175 379.282 38.1495 379.642 38.3975C380.01 38.6455 380.47 38.7695 381.022 38.7695C381.622 38.7695 382.166 38.6295 382.654 38.3495L383.158 39.3095C382.982 39.4215 382.762 39.5255 382.498 39.6215C382.234 39.7175 381.95 39.7895 381.646 39.8375C381.342 39.8935 381.046 39.9215 380.758 39.9215ZM380.782 34.6175C380.254 34.6175 379.818 34.7895 379.474 35.1335C379.138 35.4695 378.962 35.9135 378.946 36.4655C379.082 36.4735 379.226 36.4775 379.378 36.4775C379.53 36.4775 379.73 36.4775 379.978 36.4775C381.362 36.4775 382.054 36.1615 382.054 35.5295C382.054 35.2495 381.934 35.0295 381.694 34.8695C381.462 34.7015 381.158 34.6175 380.782 34.6175Z" fill="white" style="fill:white;fill-opacity:1;"/>
<path d="M370.146 32.3016C370.146 31.8696 370.366 31.6096 370.806 31.5216C370.918 31.4976 371.082 31.4776 371.298 31.4616C371.522 31.4456 371.766 31.4336 372.03 31.4256C372.294 31.4096 372.534 31.4016 372.75 31.4016C374.038 31.4016 375.01 31.6336 375.666 32.0976C376.33 32.5536 376.662 33.2216 376.662 34.1016C376.662 34.6536 376.53 35.1176 376.266 35.4936C376.01 35.8616 375.626 36.1576 375.114 36.3816C375.378 36.7496 375.678 37.2296 376.014 37.8216C376.358 38.4056 376.706 39.0496 377.058 39.7536H375.402C375.298 39.5216 375.166 39.2576 375.006 38.9616C374.846 38.6576 374.678 38.3536 374.502 38.0496C374.334 37.7456 374.178 37.4736 374.034 37.2336C373.89 36.9936 373.778 36.8216 373.698 36.7176C373.586 36.7336 373.45 36.7456 373.29 36.7536C373.13 36.7616 372.982 36.7656 372.846 36.7656C372.598 36.7656 372.35 36.7576 372.102 36.7416C371.854 36.7256 371.666 36.7056 371.538 36.6816V39.7536H370.146V32.3016ZM372.846 35.5536C373.662 35.5536 374.258 35.4296 374.634 35.1816C375.01 34.9336 375.198 34.5696 375.198 34.0896C375.198 33.1056 374.39 32.6136 372.774 32.6136C372.55 32.6136 372.314 32.6216 372.066 32.6376C371.826 32.6536 371.65 32.6696 371.538 32.6856V35.4576C371.722 35.4896 371.93 35.5136 372.162 35.5296C372.394 35.5456 372.622 35.5536 372.846 35.5536Z" fill="white" style="fill:white;fill-opacity:1;"/>
<path d="M363.309 39.9215C362.677 39.9215 362.117 39.7895 361.629 39.5255C361.149 39.2615 360.773 38.8975 360.501 38.4335C360.229 37.9615 360.093 37.4135 360.093 36.7895C360.093 36.1575 360.233 35.6015 360.513 35.1215C360.793 34.6335 361.177 34.2535 361.665 33.9815C362.161 33.7015 362.725 33.5615 363.357 33.5615C364.125 33.5615 364.745 33.7415 365.217 34.1015C365.697 34.4535 365.937 34.9375 365.937 35.5535C365.937 36.1775 365.657 36.6455 365.097 36.9575C364.545 37.2695 363.665 37.4255 362.457 37.4255C362.345 37.4255 362.205 37.4255 362.037 37.4255C361.877 37.4175 361.717 37.4095 361.557 37.4015C361.621 37.8175 361.833 38.1495 362.193 38.3975C362.561 38.6455 363.021 38.7695 363.573 38.7695C364.173 38.7695 364.717 38.6295 365.205 38.3495L365.709 39.3095C365.533 39.4215 365.313 39.5255 365.049 39.6215C364.785 39.7175 364.501 39.7895 364.197 39.8375C363.893 39.8935 363.597 39.9215 363.309 39.9215ZM363.333 34.6175C362.805 34.6175 362.369 34.7895 362.025 35.1335C361.689 35.4695 361.513 35.9135 361.497 36.4655C361.633 36.4735 361.777 36.4775 361.929 36.4775C362.081 36.4775 362.281 36.4775 362.529 36.4775C363.913 36.4775 364.605 36.1615 364.605 35.5295C364.605 35.2495 364.485 35.0295 364.245 34.8695C364.013 34.7015 363.709 34.6175 363.333 34.6175Z" fill="white" style="fill:white;fill-opacity:1;"/>
<path d="M359.085 36.4537C359.085 37.1737 358.953 37.7937 358.689 38.3137C358.433 38.8337 358.069 39.2337 357.597 39.5137C357.125 39.7857 356.565 39.9217 355.917 39.9217C355.261 39.9217 354.685 39.7857 354.189 39.5137C353.693 39.2417 353.305 38.8657 353.025 38.3857C352.745 37.9057 352.605 37.3577 352.605 36.7417C352.605 36.1257 352.741 35.5817 353.013 35.1097C353.285 34.6297 353.653 34.2537 354.117 33.9817C354.581 33.7017 355.101 33.5617 355.677 33.5617C356.117 33.5617 356.509 33.6457 356.853 33.8137C357.205 33.9737 357.493 34.1977 357.717 34.4857V31.5457C357.717 31.3377 357.785 31.1817 357.921 31.0777C358.057 30.9657 358.233 30.9097 358.449 30.9097C358.561 30.9097 358.677 30.9217 358.797 30.9457C358.917 30.9697 359.013 31.0017 359.085 31.0417V36.4537ZM355.869 34.7737C355.333 34.7737 354.889 34.9537 354.537 35.3137C354.193 35.6737 354.021 36.1457 354.021 36.7297C354.021 37.3137 354.193 37.7857 354.537 38.1457C354.889 38.5057 355.333 38.6857 355.869 38.6857C356.413 38.6857 356.857 38.5057 357.201 38.1457C357.553 37.7857 357.729 37.3137 357.729 36.7297C357.729 36.1457 357.553 35.6737 357.201 35.3137C356.857 34.9537 356.413 34.7737 355.869 34.7737Z" fill="white" style="fill:white;fill-opacity:1;"/>
<path d="M342.591 36.1175C342.591 35.6055 342.711 35.1575 342.951 34.7735C343.199 34.3895 343.543 34.0935 343.983 33.8855C344.423 33.6695 344.935 33.5615 345.519 33.5615C346.111 33.5615 346.623 33.6695 347.055 33.8855C347.495 34.0935 347.835 34.3895 348.075 34.7735C348.323 35.1575 348.447 35.6055 348.447 36.1175V39.7535H347.079V36.4655C347.079 35.9215 346.947 35.5095 346.683 35.2295C346.419 34.9415 346.031 34.7975 345.519 34.7975C344.479 34.7975 343.959 35.3535 343.959 36.4655V39.7535H342.591V36.1175Z" fill="white" style="fill:white;fill-opacity:1;"/>
<path d="M335.272 38.3615C334.984 37.8815 334.84 37.3415 334.84 36.7415C334.84 36.1415 334.984 35.6015 335.272 35.1215C335.568 34.6415 335.964 34.2615 336.46 33.9815C336.956 33.7015 337.516 33.5615 338.14 33.5615C338.764 33.5615 339.324 33.7015 339.82 33.9815C340.324 34.2615 340.72 34.6415 341.008 35.1215C341.296 35.6015 341.44 36.1415 341.44 36.7415C341.44 37.3415 341.296 37.8815 341.008 38.3615C340.72 38.8415 340.324 39.2215 339.82 39.5015C339.324 39.7815 338.764 39.9215 338.14 39.9215C337.516 39.9215 336.956 39.7815 336.46 39.5015C335.964 39.2215 335.568 38.8415 335.272 38.3615ZM339.772 37.7735C339.932 37.4695 340.012 37.1255 340.012 36.7415C340.012 36.3575 339.932 36.0175 339.772 35.7215C339.612 35.4175 339.388 35.1815 339.1 35.0135C338.82 34.8455 338.5 34.7615 338.14 34.7615C337.78 34.7615 337.456 34.8455 337.168 35.0135C336.888 35.1815 336.668 35.4175 336.508 35.7215C336.348 36.0175 336.268 36.3575 336.268 36.7415C336.268 37.1255 336.348 37.4695 336.508 37.7735C336.668 38.0695 336.888 38.3015 337.168 38.4695C337.456 38.6375 337.78 38.7215 338.14 38.7215C338.5 38.7215 338.82 38.6375 339.1 38.4695C339.388 38.3015 339.612 38.0695 339.772 37.7735Z" fill="white" style="fill:white;fill-opacity:1;"/>
<path d="M333.613 39.7538H332.245V34.3658C332.245 34.1578 332.313 34.0018 332.449 33.8978C332.585 33.7858 332.761 33.7298 332.977 33.7298C333.089 33.7298 333.205 33.7418 333.325 33.7658C333.445 33.7898 333.541 33.8218 333.613 33.8618V39.7538ZM332.329 32.4698C332.177 32.3098 332.101 32.1098 332.101 31.8698C332.101 31.6298 332.177 31.4298 332.329 31.2698C332.489 31.1098 332.689 31.0298 332.929 31.0298C333.169 31.0298 333.365 31.1098 333.517 31.2698C333.677 31.4298 333.757 31.6298 333.757 31.8698C333.757 32.1098 333.677 32.3098 333.517 32.4698C333.365 32.6298 333.169 32.7098 332.929 32.7098C332.689 32.7098 332.489 32.6298 332.329 32.4698Z" fill="white" style="fill:white;fill-opacity:1;"/>
<path d="M327.38 32.6616C327.38 32.4536 327.448 32.2976 327.584 32.1936C327.72 32.0816 327.896 32.0256 328.112 32.0256C328.224 32.0256 328.34 32.0376 328.46 32.0616C328.58 32.0856 328.676 32.1176 328.748 32.1576V33.7296H330.488C330.968 33.7296 331.208 33.9416 331.208 34.3656C331.208 34.5976 331.156 34.8056 331.052 34.9896H328.748V37.6536C328.748 37.9896 328.836 38.2496 329.012 38.4336C329.188 38.6176 329.448 38.7096 329.792 38.7096C329.984 38.7096 330.18 38.6816 330.38 38.6256C330.588 38.5696 330.764 38.4936 330.908 38.3976L331.46 39.3096C331.252 39.4856 330.968 39.6336 330.608 39.7536C330.256 39.8656 329.892 39.9216 329.516 39.9216C328.868 39.9216 328.348 39.7456 327.956 39.3936C327.572 39.0336 327.38 38.5496 327.38 37.9416V32.6616Z" fill="white" style="fill:white;fill-opacity:1;"/>
<path d="M325.973 39.7295C325.557 39.7855 325.105 39.8295 324.617 39.8615C324.137 39.9015 323.701 39.9215 323.309 39.9215C322.317 39.9215 321.557 39.7655 321.029 39.4535C320.509 39.1415 320.249 38.6335 320.249 37.9295C320.249 37.3055 320.473 36.8255 320.921 36.4895C321.377 36.1535 322.113 35.9855 323.129 35.9855C323.361 35.9855 323.621 35.9935 323.909 36.0095C324.197 36.0255 324.429 36.0455 324.605 36.0695C324.605 35.5815 324.453 35.2255 324.149 35.0015C323.853 34.7775 323.409 34.6655 322.817 34.6655C322.441 34.6655 322.097 34.7055 321.785 34.7855C321.481 34.8655 321.261 34.9655 321.125 35.0855C321.037 35.0215 320.961 34.9335 320.897 34.8215C320.833 34.7015 320.801 34.5775 320.801 34.4495C320.801 34.1775 320.969 33.9615 321.305 33.8015C321.641 33.6415 322.137 33.5615 322.793 33.5615C323.841 33.5615 324.633 33.7775 325.169 34.2095C325.705 34.6335 325.973 35.2695 325.973 36.1175V39.7295ZM322.025 38.7095C322.297 38.8535 322.725 38.9255 323.309 38.9255C323.549 38.9255 323.793 38.9175 324.041 38.9015C324.289 38.8775 324.481 38.8495 324.617 38.8175V37.0655C324.441 37.0255 324.209 36.9975 323.921 36.9815C323.641 36.9575 323.393 36.9455 323.177 36.9455C322.593 36.9455 322.185 37.0335 321.953 37.2095C321.729 37.3775 321.617 37.6295 321.617 37.9655C321.617 38.3095 321.753 38.5575 322.025 38.7095Z" fill="white" style="fill:white;fill-opacity:1;"/>
<path d="M319.082 39.7538H317.714V34.3658C317.714 34.1578 317.782 34.0018 317.918 33.8978C318.054 33.7858 318.23 33.7298 318.446 33.7298C318.558 33.7298 318.674 33.7418 318.794 33.7658C318.914 33.7898 319.01 33.8218 319.082 33.8618V39.7538ZM317.798 32.4698C317.646 32.3098 317.57 32.1098 317.57 31.8698C317.57 31.6298 317.646 31.4298 317.798 31.2698C317.958 31.1098 318.158 31.0298 318.398 31.0298C318.638 31.0298 318.834 31.1098 318.986 31.2698C319.146 31.4298 319.226 31.6298 319.226 31.8698C319.226 32.1098 319.146 32.3098 318.986 32.4698C318.834 32.6298 318.638 32.7098 318.398 32.7098C318.158 32.7098 317.958 32.6298 317.798 32.4698Z" fill="white" style="fill:white;fill-opacity:1;"/>
<path d="M311.786 35.0975C312.058 34.6175 312.446 34.2415 312.95 33.9695C313.454 33.6975 314.054 33.5615 314.75 33.5615C315.15 33.5615 315.51 33.6095 315.83 33.7055C316.158 33.7935 316.41 33.9175 316.586 34.0775C316.762 34.2295 316.85 34.3975 316.85 34.5815C316.85 34.7095 316.806 34.8415 316.718 34.9775C316.638 35.1055 316.526 35.2255 316.382 35.3375C316.182 35.1535 315.938 35.0135 315.65 34.9175C315.37 34.8135 315.07 34.7615 314.75 34.7615C314.166 34.7615 313.698 34.9375 313.346 35.2895C312.994 35.6335 312.818 36.1135 312.818 36.7295C312.818 37.3375 312.994 37.8215 313.346 38.1815C313.706 38.5335 314.19 38.7095 314.798 38.7095C315.342 38.7095 315.838 38.5735 316.286 38.3015L316.862 39.3215C316.198 39.7215 315.458 39.9215 314.642 39.9215C313.994 39.9215 313.426 39.7935 312.938 39.5375C312.45 39.2735 312.07 38.9055 311.798 38.4335C311.526 37.9615 311.39 37.4055 311.39 36.7655C311.39 36.1335 311.522 35.5775 311.786 35.0975Z" fill="white" style="fill:white;fill-opacity:1;"/>
<path d="M304.311 38.3615C304.023 37.8815 303.879 37.3415 303.879 36.7415C303.879 36.1415 304.023 35.6015 304.311 35.1215C304.607 34.6415 305.003 34.2615 305.499 33.9815C305.995 33.7015 306.555 33.5615 307.179 33.5615C307.803 33.5615 308.363 33.7015 308.859 33.9815C309.363 34.2615 309.759 34.6415 310.047 35.1215C310.335 35.6015 310.479 36.1415 310.479 36.7415C310.479 37.3415 310.335 37.8815 310.047 38.3615C309.759 38.8415 309.363 39.2215 308.859 39.5015C308.363 39.7815 307.803 39.9215 307.179 39.9215C306.555 39.9215 305.995 39.7815 305.499 39.5015C305.003 39.2215 304.607 38.8415 304.311 38.3615ZM308.811 37.7735C308.971 37.4695 309.051 37.1255 309.051 36.7415C309.051 36.3575 308.971 36.0175 308.811 35.7215C308.651 35.4175 308.427 35.1815 308.139 35.0135C307.859 34.8455 307.539 34.7615 307.179 34.7615C306.819 34.7615 306.495 34.8455 306.207 35.0135C305.927 35.1815 305.707 35.4175 305.547 35.7215C305.387 36.0175 305.307 36.3575 305.307 36.7415C305.307 37.1255 305.387 37.4695 305.547 37.7735C305.707 38.0695 305.927 38.3015 306.207 38.4695C306.495 38.6375 306.819 38.7215 307.179 38.7215C307.539 38.7215 307.859 38.6375 308.139 38.4695C308.427 38.3015 308.651 38.0695 308.811 37.7735Z" fill="white" style="fill:white;fill-opacity:1;"/>
<path d="M302.981 37.9415C302.981 38.5655 302.725 39.0535 302.213 39.4055C301.709 39.7495 301.041 39.9215 300.209 39.9215C299.833 39.9215 299.441 39.8855 299.033 39.8135C298.633 39.7495 298.265 39.6615 297.929 39.5495C297.601 39.4295 297.349 39.3055 297.173 39.1775L297.689 38.2535C297.945 38.4135 298.297 38.5535 298.745 38.6735C299.193 38.7935 299.657 38.8535 300.137 38.8535C301.081 38.8535 301.553 38.6135 301.553 38.1335C301.553 37.7255 301.169 37.4735 300.401 37.3775L299.177 37.2215C298.569 37.1415 298.101 36.9575 297.773 36.6695C297.445 36.3815 297.281 35.9815 297.281 35.4695C297.281 34.8455 297.525 34.3735 298.013 34.0535C298.501 33.7255 299.209 33.5615 300.137 33.5615C300.625 33.5615 301.057 33.6055 301.433 33.6935C301.809 33.7815 302.105 33.9015 302.321 34.0535C302.537 34.1975 302.645 34.3655 302.645 34.5575C302.645 34.6775 302.601 34.8015 302.513 34.9295C302.433 35.0575 302.337 35.1495 302.225 35.2055C302.121 35.1015 301.949 35.0055 301.709 34.9175C301.469 34.8215 301.197 34.7455 300.893 34.6895C300.589 34.6255 300.285 34.5935 299.981 34.5935C299.557 34.5935 299.225 34.6575 298.985 34.7855C298.753 34.9055 298.637 35.0855 298.637 35.3255C298.637 35.5095 298.717 35.6615 298.877 35.7815C299.045 35.8935 299.305 35.9735 299.657 36.0215L300.881 36.1775C302.281 36.3535 302.981 36.9415 302.981 37.9415Z" fill="white" style="fill:white;fill-opacity:1;"/>
<path d="M296.395 37.9415C296.395 38.5655 296.139 39.0535 295.627 39.4055C295.123 39.7495 294.455 39.9215 293.623 39.9215C293.247 39.9215 292.855 39.8855 292.447 39.8135C292.047 39.7495 291.679 39.6615 291.343 39.5495C291.015 39.4295 290.763 39.3055 290.587 39.1775L291.103 38.2535C291.359 38.4135 291.711 38.5535 292.159 38.6735C292.607 38.7935 293.071 38.8535 293.551 38.8535C294.495 38.8535 294.967 38.6135 294.967 38.1335C294.967 37.7255 294.583 37.4735 293.815 37.3775L292.591 37.2215C291.983 37.1415 291.515 36.9575 291.187 36.6695C290.859 36.3815 290.695 35.9815 290.695 35.4695C290.695 34.8455 290.939 34.3735 291.427 34.0535C291.915 33.7255 292.623 33.5615 293.551 33.5615C294.039 33.5615 294.471 33.6055 294.847 33.6935C295.223 33.7815 295.519 33.9015 295.735 34.0535C295.951 34.1975 296.059 34.3655 296.059 34.5575C296.059 34.6775 296.015 34.8015 295.927 34.9295C295.847 35.0575 295.751 35.1495 295.639 35.2055C295.535 35.1015 295.363 35.0055 295.123 34.9175C294.883 34.8215 294.611 34.7455 294.307 34.6895C294.003 34.6255 293.699 34.5935 293.395 34.5935C292.971 34.5935 292.639 34.6575 292.399 34.7855C292.167 34.9055 292.051 35.0855 292.051 35.3255C292.051 35.5095 292.131 35.6615 292.291 35.7815C292.459 35.8935 292.719 35.9735 293.071 36.0215L294.295 36.1775C295.695 36.3535 296.395 36.9415 296.395 37.9415Z" fill="white" style="fill:white;fill-opacity:1;"/>
<path d="M281.51 39.7537C281.782 39.0337 282.09 38.2497 282.434 37.4017C282.778 36.5457 283.142 35.6697 283.526 34.7737C283.91 33.8777 284.294 33.0057 284.678 32.1577C284.814 31.8537 284.974 31.6377 285.158 31.5097C285.342 31.3737 285.578 31.3057 285.866 31.3057C285.994 31.3057 286.154 31.3377 286.346 31.4017C286.538 31.4577 286.662 31.5137 286.718 31.5697C286.806 31.7137 286.93 31.9617 287.09 32.3137C287.25 32.6577 287.438 33.0737 287.654 33.5617C287.87 34.0417 288.094 34.5617 288.326 35.1217C288.558 35.6737 288.79 36.2337 289.022 36.8017C289.254 37.3617 289.47 37.8977 289.67 38.4097C289.878 38.9217 290.05 39.3697 290.186 39.7537H288.602C288.538 39.5777 288.454 39.3577 288.35 39.0937C288.246 38.8217 288.142 38.5497 288.038 38.2777C287.942 37.9977 287.858 37.7737 287.786 37.6057H283.766C283.638 37.9257 283.506 38.2657 283.37 38.6257C283.234 38.9777 283.094 39.3537 282.95 39.7537H281.51ZM285.806 32.7577C285.662 33.0617 285.502 33.4177 285.326 33.8257C285.15 34.2257 284.97 34.6457 284.786 35.0857C284.602 35.5177 284.43 35.9377 284.27 36.3457H287.306C287.186 36.0337 287.054 35.7017 286.91 35.3497C286.766 34.9897 286.622 34.6377 286.478 34.2937C286.342 33.9497 286.214 33.6417 286.094 33.3697C285.974 33.0977 285.878 32.8937 285.806 32.7577Z" fill="white" style="fill:white;fill-opacity:1;"/>
<path d="M420.216 55.3177C420.216 54.8057 420.336 54.3577 420.576 53.9737C420.824 53.5897 421.168 53.2937 421.608 53.0857C422.048 52.8697 422.56 52.7617 423.144 52.7617C423.736 52.7617 424.248 52.8697 424.68 53.0857C425.12 53.2937 425.46 53.5897 425.7 53.9737C425.948 54.3577 426.072 54.8057 426.072 55.3177V58.9537H424.704V55.6657C424.704 55.1217 424.572 54.7097 424.308 54.4297C424.044 54.1417 423.656 53.9977 423.144 53.9977C422.104 53.9977 421.584 54.5537 421.584 55.6657V58.9537H420.216V55.3177Z" fill="white" style="fill:white;fill-opacity:1;"/>
<path d="M412.897 57.5617C412.609 57.0817 412.465 56.5417 412.465 55.9417C412.465 55.3417 412.609 54.8017 412.897 54.3217C413.193 53.8417 413.589 53.4617 414.085 53.1817C414.581 52.9017 415.141 52.7617 415.765 52.7617C416.389 52.7617 416.949 52.9017 417.445 53.1817C417.949 53.4617 418.345 53.8417 418.633 54.3217C418.921 54.8017 419.065 55.3417 419.065 55.9417C419.065 56.5417 418.921 57.0817 418.633 57.5617C418.345 58.0417 417.949 58.4217 417.445 58.7017C416.949 58.9817 416.389 59.1217 415.765 59.1217C415.141 59.1217 414.581 58.9817 414.085 58.7017C413.589 58.4217 413.193 58.0417 412.897 57.5617ZM417.397 56.9737C417.557 56.6697 417.637 56.3257 417.637 55.9417C417.637 55.5577 417.557 55.2177 417.397 54.9217C417.237 54.6177 417.013 54.3817 416.725 54.2137C416.445 54.0457 416.125 53.9617 415.765 53.9617C415.405 53.9617 415.081 54.0457 414.793 54.2137C414.513 54.3817 414.293 54.6177 414.133 54.9217C413.973 55.2177 413.893 55.5577 413.893 55.9417C413.893 56.3257 413.973 56.6697 414.133 56.9737C414.293 57.2697 414.513 57.5017 414.793 57.6697C415.081 57.8377 415.405 57.9217 415.765 57.9217C416.125 57.9217 416.445 57.8377 416.725 57.6697C417.013 57.5017 417.237 57.2697 417.397 56.9737Z" fill="white" style="fill:white;fill-opacity:1;"/>
<path d="M411.239 58.9535H409.871V53.5655C409.871 53.3575 409.939 53.2015 410.075 53.0975C410.211 52.9855 410.387 52.9295 410.603 52.9295C410.715 52.9295 410.831 52.9415 410.951 52.9655C411.071 52.9895 411.167 53.0215 411.239 53.0615V58.9535ZM409.955 51.6695C409.803 51.5095 409.727 51.3095 409.727 51.0695C409.727 50.8295 409.803 50.6295 409.955 50.4695C410.115 50.3095 410.315 50.2295 410.555 50.2295C410.795 50.2295 410.991 50.3095 411.143 50.4695C411.303 50.6295 411.383 50.8295 411.383 51.0695C411.383 51.3095 411.303 51.5095 411.143 51.6695C410.991 51.8295 410.795 51.9095 410.555 51.9095C410.315 51.9095 410.115 51.8295 409.955 51.6695Z" fill="white" style="fill:white;fill-opacity:1;"/>
<path d="M405.005 51.8616C405.005 51.6536 405.073 51.4976 405.209 51.3936C405.345 51.2816 405.521 51.2256 405.737 51.2256C405.849 51.2256 405.965 51.2376 406.085 51.2616C406.205 51.2856 406.301 51.3176 406.373 51.3576V52.9296H408.113C408.593 52.9296 408.833 53.1416 408.833 53.5656C408.833 53.7976 408.781 54.0056 408.677 54.1896H406.373V56.8536C406.373 57.1896 406.461 57.4496 406.637 57.6336C406.813 57.8176 407.073 57.9096 407.417 57.9096C407.609 57.9096 407.805 57.8816 408.005 57.8256C408.213 57.7696 408.389 57.6936 408.533 57.5976L409.085 58.5096C408.877 58.6856 408.593 58.8336 408.233 58.9536C407.881 59.0656 407.517 59.1216 407.141 59.1216C406.493 59.1216 405.973 58.9456 405.581 58.5936C405.197 58.2336 405.005 57.7496 405.005 57.1416V51.8616Z" fill="white" style="fill:white;fill-opacity:1;"/>
<path d="M403.598 58.9297C403.182 58.9857 402.73 59.0297 402.242 59.0617C401.762 59.1017 401.326 59.1217 400.934 59.1217C399.942 59.1217 399.182 58.9657 398.654 58.6537C398.134 58.3417 397.874 57.8337 397.874 57.1297C397.874 56.5057 398.098 56.0257 398.546 55.6897C399.002 55.3537 399.738 55.1857 400.754 55.1857C400.986 55.1857 401.246 55.1937 401.534 55.2097C401.822 55.2257 402.054 55.2457 402.23 55.2697C402.23 54.7817 402.078 54.4257 401.774 54.2017C401.478 53.9777 401.034 53.8657 400.442 53.8657C400.066 53.8657 399.722 53.9057 399.41 53.9857C399.106 54.0657 398.886 54.1657 398.75 54.2857C398.662 54.2217 398.586 54.1337 398.522 54.0217C398.458 53.9017 398.426 53.7777 398.426 53.6497C398.426 53.3777 398.594 53.1617 398.93 53.0017C399.266 52.8417 399.762 52.7617 400.418 52.7617C401.466 52.7617 402.258 52.9777 402.794 53.4097C403.33 53.8337 403.598 54.4697 403.598 55.3177V58.9297ZM399.65 57.9097C399.922 58.0537 400.35 58.1257 400.934 58.1257C401.174 58.1257 401.418 58.1177 401.666 58.1017C401.914 58.0777 402.106 58.0497 402.242 58.0177V56.2657C402.066 56.2257 401.834 56.1977 401.546 56.1817C401.266 56.1577 401.018 56.1457 400.802 56.1457C400.218 56.1457 399.81 56.2337 399.578 56.4097C399.354 56.5777 399.242 56.8297 399.242 57.1657C399.242 57.5097 399.378 57.7577 399.65 57.9097Z" fill="white" style="fill:white;fill-opacity:1;"/>
<path d="M392.994 55.1137C393.346 55.8977 393.718 56.6937 394.11 57.5017C394.238 57.2617 394.398 56.9297 394.59 56.5057C394.782 56.0737 394.986 55.6017 395.202 55.0897C395.426 54.5777 395.638 54.0737 395.838 53.5777C395.934 53.3377 396.042 53.1697 396.162 53.0737C396.29 52.9777 396.454 52.9297 396.654 52.9297C396.79 52.9297 396.938 52.9577 397.098 53.0137C397.266 53.0617 397.378 53.1177 397.434 53.1817C397.394 53.3337 397.302 53.5777 397.158 53.9137C397.022 54.2417 396.854 54.6257 396.654 55.0657C396.462 55.4977 396.254 55.9497 396.03 56.4217C395.806 56.8857 395.582 57.3417 395.358 57.7897C395.134 58.2297 394.93 58.6177 394.746 58.9537H393.402C392.938 58.0977 392.514 57.2817 392.13 56.5057C391.746 55.7297 391.442 55.0817 391.218 54.5617C391.114 54.3057 391.03 54.0897 390.966 53.9137C390.902 53.7297 390.87 53.6017 390.87 53.5297C390.87 53.3457 390.93 53.2017 391.05 53.0977C391.178 52.9857 391.346 52.9297 391.554 52.9297C391.666 52.9297 391.782 52.9417 391.902 52.9657C392.022 52.9897 392.106 53.0177 392.154 53.0497C392.37 53.6337 392.65 54.3217 392.994 55.1137Z" fill="white" style="fill:white;fill-opacity:1;"/>
<path d="M384.209 57.5617C383.921 57.0817 383.777 56.5417 383.777 55.9417C383.777 55.3417 383.921 54.8017 384.209 54.3217C384.505 53.8417 384.901 53.4617 385.397 53.1817C385.893 52.9017 386.453 52.7617 387.077 52.7617C387.701 52.7617 388.261 52.9017 388.757 53.1817C389.261 53.4617 389.657 53.8417 389.945 54.3217C390.233 54.8017 390.377 55.3417 390.377 55.9417C390.377 56.5417 390.233 57.0817 389.945 57.5617C389.657 58.0417 389.261 58.4217 388.757 58.7017C388.261 58.9817 387.701 59.1217 387.077 59.1217C386.453 59.1217 385.893 58.9817 385.397 58.7017C384.901 58.4217 384.505 58.0417 384.209 57.5617ZM388.709 56.9737C388.869 56.6697 388.949 56.3257 388.949 55.9417C388.949 55.5577 388.869 55.2177 388.709 54.9217C388.549 54.6177 388.325 54.3817 388.037 54.2137C387.757 54.0457 387.437 53.9617 387.077 53.9617C386.717 53.9617 386.393 54.0457 386.105 54.2137C385.825 54.3817 385.605 54.6177 385.445 54.9217C385.285 55.2177 385.205 55.5577 385.205 55.9417C385.205 56.3257 385.285 56.6697 385.445 56.9737C385.605 57.2697 385.825 57.5017 386.105 57.6697C386.393 57.8377 386.717 57.9217 387.077 57.9217C387.437 57.9217 387.757 57.8377 388.037 57.6697C388.325 57.5017 388.549 57.2697 388.709 56.9737Z" fill="white" style="fill:white;fill-opacity:1;"/>
<path d="M376.775 55.3177C376.775 54.8057 376.895 54.3577 377.135 53.9737C377.383 53.5897 377.727 53.2937 378.167 53.0857C378.607 52.8697 379.119 52.7617 379.703 52.7617C380.295 52.7617 380.807 52.8697 381.239 53.0857C381.679 53.2937 382.019 53.5897 382.259 53.9737C382.507 54.3577 382.631 54.8057 382.631 55.3177V58.9537H381.263V55.6657C381.263 55.1217 381.131 54.7097 380.867 54.4297C380.603 54.1417 380.215 53.9977 379.703 53.9977C378.663 53.9977 378.143 54.5537 378.143 55.6657V58.9537H376.775V55.3177Z" fill="white" style="fill:white;fill-opacity:1;"/>
<path d="M369.533 55.3177C369.533 54.8057 369.653 54.3577 369.893 53.9737C370.141 53.5897 370.485 53.2937 370.925 53.0857C371.365 52.8697 371.877 52.7617 372.461 52.7617C373.053 52.7617 373.565 52.8697 373.997 53.0857C374.437 53.2937 374.777 53.5897 375.017 53.9737C375.265 54.3577 375.389 54.8057 375.389 55.3177V58.9537H374.021V55.6657C374.021 55.1217 373.889 54.7097 373.625 54.4297C373.361 54.1417 372.973 53.9977 372.461 53.9977C371.421 53.9977 370.901 54.5537 370.901 55.6657V58.9537H369.533V55.3177Z" fill="white" style="fill:white;fill-opacity:1;"/>
<path d="M367.965 58.9537H366.537V51.3817C366.537 51.1737 366.605 51.0137 366.741 50.9017C366.885 50.7817 367.069 50.7217 367.293 50.7217C367.405 50.7217 367.517 50.7377 367.629 50.7697C367.749 50.7937 367.861 50.8257 367.965 50.8657V58.9537Z" fill="white" style="fill:white;fill-opacity:1;"/>
<path d="M358.552 51.8616C358.552 51.6536 358.62 51.4976 358.756 51.3936C358.892 51.2816 359.068 51.2256 359.284 51.2256C359.396 51.2256 359.512 51.2376 359.632 51.2616C359.752 51.2856 359.848 51.3176 359.92 51.3576V52.9296H361.66C362.14 52.9296 362.38 53.1416 362.38 53.5656C362.38 53.7976 362.328 54.0056 362.224 54.1896H359.92V56.8536C359.92 57.1896 360.008 57.4496 360.184 57.6336C360.36 57.8176 360.62 57.9096 360.964 57.9096C361.156 57.9096 361.352 57.8816 361.552 57.8256C361.76 57.7696 361.936 57.6936 362.08 57.5976L362.632 58.5096C362.424 58.6856 362.14 58.8336 361.78 58.9536C361.428 59.0656 361.064 59.1216 360.688 59.1216C360.04 59.1216 359.52 58.9456 359.128 58.5936C358.744 58.2336 358.552 57.7496 358.552 57.1416V51.8616Z" fill="white" style="fill:white;fill-opacity:1;"/>
<path d="M354.907 59.1217C354.275 59.1217 353.715 58.9897 353.227 58.7257C352.747 58.4617 352.371 58.0977 352.099 57.6337C351.827 57.1617 351.691 56.6137 351.691 55.9897C351.691 55.3577 351.831 54.8017 352.111 54.3217C352.391 53.8337 352.775 53.4537 353.263 53.1817C353.759 52.9017 354.323 52.7617 354.955 52.7617C355.723 52.7617 356.343 52.9417 356.815 53.3017C357.295 53.6537 357.535 54.1377 357.535 54.7537C357.535 55.3777 357.255 55.8457 356.695 56.1577C356.143 56.4697 355.263 56.6257 354.055 56.6257C353.943 56.6257 353.803 56.6257 353.635 56.6257C353.475 56.6177 353.315 56.6097 353.155 56.6017C353.219 57.0177 353.431 57.3497 353.791 57.5977C354.159 57.8457 354.619 57.9697 355.171 57.9697C355.771 57.9697 356.315 57.8297 356.803 57.5497L357.307 58.5097C357.131 58.6217 356.911 58.7257 356.647 58.8217C356.383 58.9177 356.099 58.9897 355.795 59.0377C355.491 59.0937 355.195 59.1217 354.907 59.1217ZM354.931 53.8177C354.403 53.8177 353.967 53.9897 353.623 54.3337C353.287 54.6697 353.111 55.1137 353.095 55.6657C353.231 55.6737 353.375 55.6777 353.527 55.6777C353.679 55.6777 353.879 55.6777 354.127 55.6777C355.511 55.6777 356.203 55.3617 356.203 54.7297C356.203 54.4497 356.083 54.2297 355.843 54.0697C355.611 53.9017 355.307 53.8177 354.931 53.8177Z" fill="white" style="fill:white;fill-opacity:1;"/>
<path d="M345.286 59.1217C344.654 59.1217 344.094 58.9897 343.606 58.7257C343.126 58.4617 342.75 58.0977 342.478 57.6337C342.206 57.1617 342.07 56.6137 342.07 55.9897C342.07 55.3577 342.21 54.8017 342.49 54.3217C342.77 53.8337 343.154 53.4537 343.642 53.1817C344.138 52.9017 344.702 52.7617 345.334 52.7617C346.102 52.7617 346.722 52.9417 347.194 53.3017C347.674 53.6537 347.914 54.1377 347.914 54.7537C347.914 55.3777 347.634 55.8457 347.074 56.1577C346.522 56.4697 345.642 56.6257 344.434 56.6257C344.322 56.6257 344.182 56.6257 344.014 56.6257C343.854 56.6177 343.694 56.6097 343.534 56.6017C343.598 57.0177 343.81 57.3497 344.17 57.5977C344.538 57.8457 344.998 57.9697 345.55 57.9697C346.15 57.9697 346.694 57.8297 347.182 57.5497L347.686 58.5097C347.51 58.6217 347.29 58.7257 347.026 58.8217C346.762 58.9177 346.478 58.9897 346.174 59.0377C345.87 59.0937 345.574 59.1217 345.286 59.1217ZM345.31 53.8177C344.782 53.8177 344.346 53.9897 344.002 54.3337C343.666 54.6697 343.49 55.1137 343.474 55.6657C343.61 55.6737 343.754 55.6777 343.906 55.6777C344.058 55.6777 344.258 55.6777 344.506 55.6777C345.89 55.6777 346.582 55.3617 346.582 54.7297C346.582 54.4497 346.462 54.2297 346.222 54.0697C345.99 53.9017 345.686 53.8177 345.31 53.8177Z" fill="white" style="fill:white;fill-opacity:1;"/>
<path d="M340.936 56.5177C340.936 57.3177 340.672 57.9537 340.144 58.4257C339.624 58.8897 338.912 59.1217 338.008 59.1217C337.112 59.1217 336.4 58.8897 335.872 58.4257C335.344 57.9537 335.08 57.3177 335.08 56.5177V53.5657C335.08 53.3577 335.148 53.2017 335.284 53.0977C335.42 52.9857 335.596 52.9297 335.812 52.9297C335.924 52.9297 336.04 52.9417 336.16 52.9657C336.28 52.9897 336.376 53.0217 336.448 53.0617V56.2177C336.448 57.3297 336.968 57.8857 338.008 57.8857C339.048 57.8857 339.568 57.3297 339.568 56.2177V53.5657C339.568 53.3577 339.636 53.2017 339.772 53.0977C339.908 52.9857 340.084 52.9297 340.3 52.9297C340.412 52.9297 340.528 52.9417 340.648 52.9657C340.768 52.9897 340.864 53.0217 340.936 53.0617V56.5177Z" fill="white" style="fill:white;fill-opacity:1;"/>
<path d="M333.82 61.3537H332.452V58.1977C332.228 58.4857 331.94 58.7137 331.588 58.8817C331.244 59.0417 330.852 59.1217 330.412 59.1217C329.836 59.1217 329.316 58.9857 328.852 58.7137C328.388 58.4337 328.02 58.0537 327.748 57.5737C327.476 57.0937 327.34 56.5497 327.34 55.9417C327.34 55.3257 327.48 54.7777 327.76 54.2977C328.04 53.8177 328.428 53.4417 328.924 53.1697C329.42 52.8977 329.996 52.7617 330.652 52.7617C331.3 52.7617 331.86 52.9017 332.332 53.1817C332.804 53.4537 333.168 53.8497 333.424 54.3697C333.688 54.8817 333.82 55.5017 333.82 56.2297V61.3537ZM331.936 54.5377C331.592 54.1777 331.148 53.9977 330.604 53.9977C330.068 53.9977 329.624 54.1777 329.272 54.5377C328.928 54.8977 328.756 55.3697 328.756 55.9537C328.756 56.5377 328.928 57.0097 329.272 57.3697C329.624 57.7297 330.068 57.9097 330.604 57.9097C331.148 57.9097 331.592 57.7297 331.936 57.3697C332.288 57.0097 332.464 56.5377 332.464 55.9537C332.464 55.3697 332.288 54.8977 331.936 54.5377Z" fill="white" style="fill:white;fill-opacity:1;"/>
<path d="M320.737 52.5576C320.737 50.9256 321.677 50.1096 323.557 50.1096C323.973 50.1096 324.325 50.1456 324.613 50.2176C324.909 50.2896 325.129 50.3896 325.273 50.5176C325.409 50.6376 325.477 50.7776 325.477 50.9376C325.477 51.0576 325.441 51.1736 325.369 51.2856C325.297 51.3976 325.213 51.4856 325.117 51.5496C325.005 51.4536 324.797 51.3696 324.493 51.2976C324.197 51.2256 323.909 51.1896 323.629 51.1896C323.141 51.1896 322.765 51.3136 322.501 51.5616C322.237 51.8016 322.105 52.1576 322.105 52.6296V52.9296H325.561C325.817 52.9296 325.997 52.9856 326.101 53.0976C326.205 53.2096 326.257 53.4056 326.257 53.6856V58.9536H324.889V54.1896H322.105V58.9536H320.737V52.5576Z" fill="white" style="fill:white;fill-opacity:1;"/>
<path d="M319.235 58.9535H317.867V53.5655C317.867 53.3575 317.935 53.2015 318.071 53.0975C318.207 52.9855 318.383 52.9295 318.599 52.9295C318.711 52.9295 318.827 52.9415 318.947 52.9655C319.067 52.9895 319.163 53.0215 319.235 53.0615V58.9535ZM317.951 51.6695C317.799 51.5095 317.723 51.3095 317.723 51.0695C317.723 50.8295 317.799 50.6295 317.951 50.4695C318.111 50.3095 318.311 50.2295 318.551 50.2295C318.791 50.2295 318.987 50.3095 319.139 50.4695C319.299 50.6295 319.379 50.8295 319.379 51.0695C319.379 51.3095 319.299 51.5095 319.139 51.6695C318.987 51.8295 318.791 51.9095 318.551 51.9095C318.311 51.9095 318.111 51.8295 317.951 51.6695Z" fill="white" style="fill:white;fill-opacity:1;"/>
<path d="M313.001 51.8616C313.001 51.6536 313.069 51.4976 313.205 51.3936C313.341 51.2816 313.517 51.2256 313.733 51.2256C313.845 51.2256 313.961 51.2376 314.081 51.2616C314.201 51.2856 314.297 51.3176 314.369 51.3576V52.9296H316.109C316.589 52.9296 316.829 53.1416 316.829 53.5656C316.829 53.7976 316.777 54.0056 316.673 54.1896H314.369V56.8536C314.369 57.1896 314.457 57.4496 314.633 57.6336C314.809 57.8176 315.069 57.9096 315.413 57.9096C315.605 57.9096 315.801 57.8816 316.001 57.8256C316.209 57.7696 316.385 57.6936 316.529 57.5976L317.081 58.5096C316.873 58.6856 316.589 58.8336 316.229 58.9536C315.877 59.0656 315.513 59.1216 315.137 59.1216C314.489 59.1216 313.969 58.9456 313.577 58.5936C313.193 58.2336 313.001 57.7496 313.001 57.1416V51.8616Z" fill="white" style="fill:white;fill-opacity:1;"/>
<path d="M305.759 55.3177C305.759 54.8057 305.879 54.3577 306.119 53.9737C306.367 53.5897 306.711 53.2937 307.151 53.0857C307.591 52.8697 308.103 52.7617 308.687 52.7617C309.279 52.7617 309.791 52.8697 310.223 53.0857C310.663 53.2937 311.003 53.5897 311.243 53.9737C311.491 54.3577 311.615 54.8057 311.615 55.3177V58.9537H310.247V55.6657C310.247 55.1217 310.115 54.7097 309.851 54.4297C309.587 54.1417 309.199 53.9977 308.687 53.9977C307.647 53.9977 307.127 54.5537 307.127 55.6657V58.9537H305.759V55.3177Z" fill="white" style="fill:white;fill-opacity:1;"/>
<path d="M302.114 59.1217C301.482 59.1217 300.922 58.9897 300.434 58.7257C299.954 58.4617 299.578 58.0977 299.306 57.6337C299.034 57.1617 298.898 56.6137 298.898 55.9897C298.898 55.3577 299.038 54.8017 299.318 54.3217C299.598 53.8337 299.982 53.4537 300.47 53.1817C300.966 52.9017 301.53 52.7617 302.162 52.7617C302.93 52.7617 303.55 52.9417 304.022 53.3017C304.502 53.6537 304.742 54.1377 304.742 54.7537C304.742 55.3777 304.462 55.8457 303.902 56.1577C303.35 56.4697 302.47 56.6257 301.262 56.6257C301.15 56.6257 301.01 56.6257 300.842 56.6257C300.682 56.6177 300.522 56.6097 300.362 56.6017C300.426 57.0177 300.638 57.3497 300.998 57.5977C301.366 57.8457 301.826 57.9697 302.378 57.9697C302.978 57.9697 303.522 57.8297 304.01 57.5497L304.514 58.5097C304.338 58.6217 304.118 58.7257 303.854 58.8217C303.59 58.9177 303.306 58.9897 303.002 59.0377C302.698 59.0937 302.402 59.1217 302.114 59.1217ZM302.138 53.8177C301.61 53.8177 301.174 53.9897 300.83 54.3337C300.494 54.6697 300.318 55.1137 300.302 55.6657C300.438 55.6737 300.582 55.6777 300.734 55.6777C300.886 55.6777 301.086 55.6777 301.334 55.6777C302.718 55.6777 303.41 55.3617 303.41 54.7297C303.41 54.4497 303.29 54.2297 303.05 54.0697C302.818 53.9017 302.514 53.8177 302.138 53.8177Z" fill="white" style="fill:white;fill-opacity:1;"/>
<path d="M297.684 58.9535H296.316V53.5655C296.316 53.3575 296.384 53.2015 296.52 53.0975C296.656 52.9855 296.832 52.9295 297.048 52.9295C297.16 52.9295 297.276 52.9415 297.396 52.9655C297.516 52.9895 297.612 53.0215 297.684 53.0615V58.9535ZM296.4 51.6695C296.248 51.5095 296.172 51.3095 296.172 51.0695C296.172 50.8295 296.248 50.6295 296.4 50.4695C296.56 50.3095 296.76 50.2295 297 50.2295C297.24 50.2295 297.436 50.3095 297.588 50.4695C297.748 50.6295 297.828 50.8295 297.828 51.0695C297.828 51.3095 297.748 51.5095 297.588 51.6695C297.436 51.8295 297.24 51.9095 297 51.9095C296.76 51.9095 296.56 51.8295 296.4 51.6695Z" fill="white" style="fill:white;fill-opacity:1;"/>
<path d="M290.388 54.2977C290.66 53.8177 291.048 53.4417 291.552 53.1697C292.056 52.8977 292.656 52.7617 293.352 52.7617C293.752 52.7617 294.112 52.8097 294.432 52.9057C294.76 52.9937 295.012 53.1177 295.188 53.2777C295.364 53.4297 295.452 53.5977 295.452 53.7817C295.452 53.9097 295.408 54.0417 295.32 54.1777C295.24 54.3057 295.128 54.4257 294.984 54.5377C294.784 54.3537 294.54 54.2137 294.252 54.1177C293.972 54.0137 293.672 53.9617 293.352 53.9617C292.768 53.9617 292.3 54.1377 291.948 54.4897C291.596 54.8337 291.42 55.3137 291.42 55.9297C291.42 56.5377 291.596 57.0217 291.948 57.3817C292.308 57.7337 292.792 57.9097 293.4 57.9097C293.944 57.9097 294.44 57.7737 294.888 57.5017L295.464 58.5217C294.8 58.9217 294.06 59.1217 293.244 59.1217C292.596 59.1217 292.028 58.9937 291.54 58.7377C291.052 58.4737 290.672 58.1057 290.4 57.6337C290.128 57.1617 289.992 56.6057 289.992 55.9657C289.992 55.3337 290.124 54.7777 290.388 54.2977Z" fill="white" style="fill:white;fill-opacity:1;"/>
<path d="M282.038 52.9896C282.038 52.2056 282.33 51.5976 282.914 51.1656C283.506 50.7256 284.322 50.5056 285.362 50.5056C285.914 50.5056 286.446 50.5656 286.958 50.6856C287.47 50.7976 287.866 50.9456 288.146 51.1296C288.434 51.3216 288.578 51.5376 288.578 51.7776C288.578 51.9216 288.53 52.0776 288.434 52.2456C288.346 52.4056 288.234 52.5296 288.098 52.6176C287.946 52.4496 287.722 52.3016 287.426 52.1736C287.138 52.0376 286.814 51.9336 286.454 51.8616C286.102 51.7816 285.746 51.7416 285.386 51.7416C284.122 51.7416 283.49 52.1256 283.49 52.8936C283.49 53.1896 283.61 53.4256 283.85 53.6016C284.09 53.7776 284.482 53.9176 285.026 54.0216L286.346 54.2616C287.274 54.4296 287.946 54.7016 288.362 55.0776C288.786 55.4536 288.998 55.9736 288.998 56.6376C288.998 57.4296 288.69 58.0496 288.074 58.4976C287.458 58.9456 286.602 59.1696 285.506 59.1696C285.09 59.1696 284.65 59.1256 284.186 59.0376C283.722 58.9496 283.286 58.8336 282.878 58.6896C282.478 58.5376 282.146 58.3696 281.882 58.1856L282.506 57.0696C282.746 57.2296 283.034 57.3736 283.37 57.5016C283.714 57.6296 284.074 57.7296 284.45 57.8016C284.826 57.8736 285.186 57.9096 285.53 57.9096C286.826 57.9096 287.474 57.5176 287.474 56.7336C287.474 56.4056 287.358 56.1576 287.126 55.9896C286.902 55.8136 286.51 55.6736 285.95 55.5696L284.63 55.3296C282.902 55.0176 282.038 54.2376 282.038 52.9896Z" fill="white" style="fill:white;fill-opacity:1;"/>
<path d="M369.602 78.3214C368.97 78.3214 368.41 78.1894 367.922 77.9254C367.442 77.6614 367.066 77.2974 366.794 76.8334C366.522 76.3614 366.386 75.8134 366.386 75.1894C366.386 74.5574 366.526 74.0014 366.806 73.5214C367.086 73.0334 367.47 72.6534 367.958 72.3814C368.454 72.1014 369.018 71.9614 369.65 71.9614C370.418 71.9614 371.038 72.1414 371.51 72.5014C371.99 72.8534 372.23 73.3374 372.23 73.9534C372.23 74.5774 371.95 75.0454 371.39 75.3574C370.838 75.6694 369.958 75.8254 368.75 75.8254C368.638 75.8254 368.498 75.8254 368.33 75.8254C368.17 75.8174 368.01 75.8094 367.85 75.8014C367.914 76.2174 368.126 76.5494 368.486 76.7974C368.854 77.0454 369.314 77.1694 369.866 77.1694C370.466 77.1694 371.01 77.0294 371.498 76.7494L372.002 77.7094C371.826 77.8214 371.606 77.9254 371.342 78.0214C371.078 78.1174 370.794 78.1894 370.49 78.2374C370.186 78.2934 369.89 78.3214 369.602 78.3214ZM369.626 73.0174C369.098 73.0174 368.662 73.1894 368.318 73.5334C367.982 73.8694 367.806 74.3134 367.79 74.8654C367.926 74.8734 368.07 74.8774 368.222 74.8774C368.374 74.8774 368.574 74.8774 368.822 74.8774C370.206 74.8774 370.898 74.5614 370.898 73.9294C370.898 73.6494 370.778 73.4294 370.538 73.2694C370.306 73.1014 370.002 73.0174 369.626 73.0174Z" fill="white" style="fill:white;fill-opacity:1;"/>
<path d="M365.252 75.7176C365.252 76.5176 364.988 77.1536 364.46 77.6256C363.94 78.0896 363.228 78.3216 362.324 78.3216C361.428 78.3216 360.716 78.0896 360.188 77.6256C359.66 77.1536 359.396 76.5176 359.396 75.7176V72.7656C359.396 72.5576 359.464 72.4016 359.6 72.2976C359.736 72.1856 359.912 72.1296 360.128 72.1296C360.24 72.1296 360.356 72.1416 360.476 72.1656C360.596 72.1896 360.692 72.2216 360.764 72.2616V75.4176C360.764 76.5296 361.284 77.0856 362.324 77.0856C363.364 77.0856 363.884 76.5296 363.884 75.4176V72.7656C363.884 72.5576 363.952 72.4016 364.088 72.2976C364.224 72.1856 364.4 72.1296 364.616 72.1296C364.728 72.1296 364.844 72.1416 364.964 72.1656C365.084 72.1896 365.18 72.2216 365.252 72.2616V75.7176Z" fill="white" style="fill:white;fill-opacity:1;"/>
<path d="M358.136 80.5534H356.768V77.3974C356.544 77.6854 356.256 77.9134 355.904 78.0814C355.56 78.2414 355.168 78.3214 354.728 78.3214C354.152 78.3214 353.632 78.1854 353.168 77.9134C352.704 77.6334 352.336 77.2534 352.064 76.7734C351.792 76.2934 351.656 75.7494 351.656 75.1414C351.656 74.5254 351.796 73.9774 352.076 73.4974C352.356 73.0174 352.744 72.6414 353.24 72.3694C353.736 72.0974 354.312 71.9614 354.968 71.9614C355.616 71.9614 356.176 72.1014 356.648 72.3814C357.12 72.6534 357.484 73.0494 357.74 73.5694C358.004 74.0814 358.136 74.7014 358.136 75.4294V80.5534ZM356.252 73.7374C355.908 73.3774 355.464 73.1974 354.92 73.1974C354.384 73.1974 353.94 73.3774 353.588 73.7374C353.244 74.0974 353.072 74.5694 353.072 75.1534C353.072 75.7374 353.244 76.2094 353.588 76.5694C353.94 76.9294 354.384 77.1094 354.92 77.1094C355.464 77.1094 355.908 76.9294 356.252 76.5694C356.604 76.2094 356.78 75.7374 356.78 75.1534C356.78 74.5694 356.604 74.0974 356.252 73.7374Z" fill="white" style="fill:white;fill-opacity:1;"/>
<path d="M350.43 78.1537H349.062V72.7657C349.062 72.5577 349.13 72.4017 349.266 72.2977C349.402 72.1857 349.578 72.1297 349.794 72.1297C349.906 72.1297 350.022 72.1417 350.142 72.1657C350.262 72.1897 350.358 72.2217 350.43 72.2617V78.1537ZM349.146 70.8697C348.994 70.7097 348.918 70.5097 348.918 70.2697C348.918 70.0297 348.994 69.8297 349.146 69.6697C349.306 69.5097 349.506 69.4297 349.746 69.4297C349.986 69.4297 350.182 69.5097 350.334 69.6697C350.494 69.8297 350.574 70.0297 350.574 70.2697C350.574 70.5097 350.494 70.7097 350.334 70.8697C350.182 71.0297 349.986 71.1097 349.746 71.1097C349.506 71.1097 349.306 71.0297 349.146 70.8697Z" fill="white" style="fill:white;fill-opacity:1;"/>
<path d="M344.197 71.0615C344.197 70.8535 344.265 70.6975 344.401 70.5935C344.537 70.4815 344.713 70.4255 344.929 70.4255C345.041 70.4255 345.157 70.4375 345.277 70.4615C345.397 70.4855 345.493 70.5175 345.565 70.5575V72.1295H347.305C347.785 72.1295 348.025 72.3415 348.025 72.7655C348.025 72.9975 347.973 73.2055 347.869 73.3895H345.565V76.0535C345.565 76.3895 345.653 76.6495 345.829 76.8335C346.005 77.0175 346.265 77.1095 346.609 77.1095C346.801 77.1095 346.997 77.0815 347.197 77.0255C347.405 76.9695 347.581 76.8935 347.725 76.7975L348.277 77.7095C348.069 77.8855 347.785 78.0335 347.425 78.1535C347.073 78.2655 346.709 78.3215 346.333 78.3215C345.685 78.3215 345.165 78.1455 344.773 77.7935C344.389 77.4335 344.197 76.9495 344.197 76.3415V71.0615Z" fill="white" style="fill:white;fill-opacity:1;"/>
<path d="M342.789 78.1294C342.373 78.1854 341.921 78.2294 341.433 78.2614C340.953 78.3014 340.517 78.3214 340.125 78.3214C339.133 78.3214 338.373 78.1654 337.845 77.8534C337.325 77.5414 337.065 77.0334 337.065 76.3294C337.065 75.7054 337.289 75.2254 337.737 74.8894C338.193 74.5534 338.929 74.3854 339.945 74.3854C340.177 74.3854 340.437 74.3934 340.725 74.4094C341.013 74.4254 341.245 74.4454 341.421 74.4694C341.421 73.9814 341.269 73.6254 340.965 73.4014C340.669 73.1774 340.225 73.0654 339.633 73.0654C339.257 73.0654 338.913 73.1054 338.601 73.1854C338.297 73.2654 338.077 73.3654 337.941 73.4854C337.853 73.4214 337.777 73.3334 337.713 73.2214C337.649 73.1014 337.617 72.9774 337.617 72.8494C337.617 72.5774 337.785 72.3614 338.121 72.2014C338.457 72.0414 338.953 71.9614 339.609 71.9614C340.657 71.9614 341.449 72.1774 341.985 72.6094C342.521 73.0334 342.789 73.6694 342.789 74.5174V78.1294ZM338.841 77.1094C339.113 77.2534 339.541 77.3254 340.125 77.3254C340.365 77.3254 340.609 77.3174 340.857 77.3014C341.105 77.2774 341.297 77.2494 341.433 77.2174V75.4654C341.257 75.4254 341.025 75.3974 340.737 75.3814C340.457 75.3574 340.209 75.3454 339.993 75.3454C339.409 75.3454 339.001 75.4334 338.769 75.6094C338.545 75.7774 338.433 76.0294 338.433 76.3654C338.433 76.7094 338.569 76.9574 338.841 77.1094Z" fill="white" style="fill:white;fill-opacity:1;"/>
<path d="M335.976 78.1534H334.608V74.7334C334.608 74.2214 334.492 73.8374 334.26 73.5814C334.028 73.3254 333.692 73.1974 333.252 73.1974C332.78 73.1974 332.416 73.3454 332.16 73.6414C331.912 73.9294 331.788 74.3414 331.788 74.8774V78.1534H330.42V74.8774C330.42 74.3414 330.296 73.9294 330.048 73.6414C329.808 73.3454 329.452 73.1974 328.98 73.1974C328.54 73.1974 328.196 73.3294 327.948 73.5934C327.708 73.8574 327.588 74.2414 327.588 74.7454V78.1534H326.22V74.2774C326.22 73.8054 326.328 73.3974 326.544 73.0534C326.768 72.7014 327.076 72.4334 327.468 72.2494C327.868 72.0574 328.332 71.9614 328.86 71.9614C329.9 71.9614 330.656 72.3254 331.128 73.0534C331.6 72.3254 332.344 71.9614 333.36 71.9614C333.88 71.9614 334.336 72.0574 334.728 72.2494C335.12 72.4334 335.424 72.6974 335.64 73.0414C335.864 73.3854 335.976 73.7934 335.976 74.2654V78.1534Z" fill="white" style="fill:white;fill-opacity:1;"/>
<path d="M321.263 74.2774C321.263 73.5494 321.487 72.9814 321.935 72.5734C322.391 72.1654 323.019 71.9614 323.819 71.9614C324.363 71.9614 324.783 72.0414 325.079 72.2014C325.375 72.3614 325.523 72.5654 325.523 72.8134C325.523 72.9414 325.487 73.0694 325.415 73.1974C325.351 73.3254 325.287 73.4094 325.223 73.4494C324.871 73.2734 324.475 73.1854 324.035 73.1854C323.099 73.1854 322.631 73.6814 322.631 74.6734V78.1534H321.263V74.2774Z" fill="white" style="fill:white;fill-opacity:1;"/>
<path d="M313.943 76.7614C313.655 76.2814 313.511 75.7414 313.511 75.1414C313.511 74.5414 313.655 74.0014 313.943 73.5214C314.239 73.0414 314.635 72.6614 315.131 72.3814C315.627 72.1014 316.187 71.9614 316.811 71.9614C317.435 71.9614 317.995 72.1014 318.491 72.3814C318.995 72.6614 319.391 73.0414 319.679 73.5214C319.967 74.0014 320.111 74.5414 320.111 75.1414C320.111 75.7414 319.967 76.2814 319.679 76.7614C319.391 77.2414 318.995 77.6214 318.491 77.9014C317.995 78.1814 317.435 78.3214 316.811 78.3214C316.187 78.3214 315.627 78.1814 315.131 77.9014C314.635 77.6214 314.239 77.2414 313.943 76.7614ZM318.443 76.1734C318.603 75.8694 318.683 75.5254 318.683 75.1414C318.683 74.7574 318.603 74.4174 318.443 74.1214C318.283 73.8174 318.059 73.5814 317.771 73.4134C317.491 73.2454 317.171 73.1614 316.811 73.1614C316.451 73.1614 316.127 73.2454 315.839 73.4134C315.559 73.5814 315.339 73.8174 315.179 74.1214C315.019 74.4174 314.939 74.7574 314.939 75.1414C314.939 75.5254 315.019 75.8694 315.179 76.1734C315.339 76.4694 315.559 76.7014 315.839 76.8694C316.127 77.0374 316.451 77.1214 316.811 77.1214C317.171 77.1214 317.491 77.0374 317.771 76.8694C318.059 76.7014 318.283 76.4694 318.443 76.1734Z" fill="white" style="fill:white;fill-opacity:1;"/>
<path d="M309.463 71.7576C309.463 70.9656 309.675 70.3616 310.099 69.9456C310.523 69.5216 311.171 69.3096 312.043 69.3096C312.675 69.3096 313.143 69.4176 313.447 69.6336C313.631 69.7696 313.723 69.9376 313.723 70.1376C313.723 70.3936 313.603 70.5936 313.363 70.7376C313.227 70.6256 313.047 70.5416 312.823 70.4856C312.599 70.4216 312.371 70.3896 312.139 70.3896C311.267 70.3896 310.831 70.8496 310.831 71.7696V72.1296H312.631C313.111 72.1296 313.351 72.3416 313.351 72.7656C313.351 72.9976 313.299 73.2056 313.195 73.3896H310.831V78.1536H309.463V71.7576Z" fill="white" style="fill:white;fill-opacity:1;"/>
<path d="M302.185 74.5174C302.185 74.0054 302.305 73.5574 302.545 73.1734C302.793 72.7894 303.137 72.4934 303.577 72.2854C304.017 72.0694 304.529 71.9614 305.113 71.9614C305.705 71.9614 306.217 72.0694 306.649 72.2854C307.089 72.4934 307.429 72.7894 307.669 73.1734C307.917 73.5574 308.041 74.0054 308.041 74.5174V78.1534H306.673V74.8654C306.673 74.3214 306.541 73.9094 306.277 73.6294C306.013 73.3414 305.625 73.1974 305.113 73.1974C304.073 73.1974 303.553 73.7534 303.553 74.8654V78.1534H302.185V74.5174Z" fill="white" style="fill:white;fill-opacity:1;"/>
<path d="M300.617 78.1536H299.189V70.5816C299.189 70.3736 299.257 70.2136 299.393 70.1016C299.537 69.9816 299.721 69.9216 299.945 69.9216C300.057 69.9216 300.169 69.9376 300.281 69.9696C300.401 69.9936 300.513 70.0256 300.617 70.0656V78.1536Z" fill="white" style="fill:white;fill-opacity:1;"/>
<path d="M288.755 74.5174C288.755 74.0054 288.875 73.5574 289.115 73.1734C289.363 72.7894 289.707 72.4934 290.147 72.2854C290.587 72.0694 291.099 71.9614 291.683 71.9614C292.275 71.9614 292.787 72.0694 293.219 72.2854C293.659 72.4934 293.999 72.7894 294.239 73.1734C294.487 73.5574 294.611 74.0054 294.611 74.5174V78.1534H293.243V74.8654C293.243 74.3214 293.111 73.9094 292.847 73.6294C292.583 73.3414 292.195 73.1974 291.683 73.1974C290.643 73.1974 290.123 73.7534 290.123 74.8654V78.1534H288.755V74.5174Z" fill="white" style="fill:white;fill-opacity:1;"/>
<path d="M285.11 78.3214C284.478 78.3214 283.918 78.1894 283.43 77.9254C282.95 77.6614 282.574 77.2974 282.302 76.8334C282.03 76.3614 281.894 75.8134 281.894 75.1894C281.894 74.5574 282.034 74.0014 282.314 73.5214C282.594 73.0334 282.978 72.6534 283.466 72.3814C283.962 72.1014 284.526 71.9614 285.158 71.9614C285.926 71.9614 286.546 72.1414 287.018 72.5014C287.498 72.8534 287.738 73.3374 287.738 73.9534C287.738 74.5774 287.458 75.0454 286.898 75.3574C286.346 75.6694 285.466 75.8254 284.258 75.8254C284.146 75.8254 284.006 75.8254 283.838 75.8254C283.678 75.8174 283.518 75.8094 283.358 75.8014C283.422 76.2174 283.634 76.5494 283.994 76.7974C284.362 77.0454 284.822 77.1694 285.374 77.1694C285.974 77.1694 286.518 77.0294 287.006 76.7494L287.51 77.7094C287.334 77.8214 287.114 77.9254 286.85 78.0214C286.586 78.1174 286.302 78.1894 285.998 78.2374C285.694 78.2934 285.398 78.3214 285.11 78.3214ZM285.134 73.0174C284.606 73.0174 284.17 73.1894 283.826 73.5334C283.49 73.8694 283.314 74.3134 283.298 74.8654C283.434 74.8734 283.578 74.8774 283.73 74.8774C283.882 74.8774 284.082 74.8774 284.33 74.8774C285.714 74.8774 286.406 74.5614 286.406 73.9294C286.406 73.6494 286.286 73.4294 286.046 73.2694C285.814 73.1014 285.51 73.0174 285.134 73.0174Z" fill="white" style="fill:white;fill-opacity:1;"/>
</svg>
