<svg width="3038" height="700" viewBox="0 0 3038 700" fill="none" xmlns="http://www.w3.org/2000/svg">
<path d="M398.902 700.071C591.956 700.071 748.457 543.355 748.457 350.036C748.457 156.716 591.956 0 398.902 0C205.848 0 49.3467 156.716 49.3467 350.036C49.3467 543.355 205.848 700.071 398.902 700.071Z" fill="#256360" style="fill:#256360;fill:color(display-p3 0.1451 0.3882 0.3765);fill-opacity:1;"/>
<path d="M567.734 144.535H242.104C208.637 144.535 181.436 171.702 181.436 205.287C181.436 238.871 208.565 266.038 242.104 266.038H440.273C473.74 266.038 500.941 293.206 500.941 326.79V525.232C500.941 558.745 528.071 585.983 561.61 585.983H622.278V199.155C622.278 168.993 597.854 144.535 567.734 144.535Z" fill="#61E0D4" style="fill:#61E0D4;fill:color(display-p3 0.3804 0.8784 0.8314);fill-opacity:1;"/>
<path d="M408.372 358.45C382.311 332.423 340.014 332.495 314.023 358.592L221.24 451.788C195.25 477.957 195.321 520.24 221.383 546.267C247.444 572.293 289.741 572.222 315.732 546.124L408.515 452.929C434.505 426.831 434.434 384.476 408.372 358.45Z" fill="#61E0D4" style="fill:#61E0D4;fill:color(display-p3 0.3804 0.8784 0.8314);fill-opacity:1;"/>
<path d="M1618.72 259.567C1637.99 240.269 1637.99 208.982 1618.72 189.684C1599.45 170.387 1568.2 170.387 1548.93 189.684C1529.66 208.982 1529.66 240.269 1548.93 259.567C1568.2 278.864 1599.45 278.864 1618.72 259.567Z" fill="#61E0D4" style="fill:#61E0D4;fill:color(display-p3 0.3804 0.8784 0.8314);fill-opacity:1;"/>
<path d="M1801.43 272.781C1827.96 266.512 1844.39 239.898 1838.13 213.337C1831.86 186.776 1805.29 170.326 1778.76 176.595C1752.24 182.864 1735.81 209.478 1742.07 236.039C1748.33 262.6 1774.91 279.05 1801.43 272.781Z" fill="#61E0D4" style="fill:#61E0D4;fill:color(display-p3 0.3804 0.8784 0.8314);fill-opacity:1;"/>
<path d="M929.821 232.311V180.187H820.59V521.524C820.59 551.115 844.587 575.145 874.138 575.145H934.948V388.683C934.948 313.1 976.747 278.588 1039.77 278.588C1048.59 278.588 1055.93 279.301 1065.4 280.086V174.412C1004.52 174.412 957.663 194.234 929.75 232.383L929.821 232.311Z" fill="#256360" style="fill:#256360;fill:color(display-p3 0.1451 0.3882 0.3765);fill-opacity:1;"/>
<path d="M1215.79 297.627C1215.79 277.091 1237.79 260.905 1289.13 260.905C1325.02 260.905 1363.9 268.249 1402.78 290.282L1440.87 208.781C1403.49 186.747 1343.39 174.269 1289.13 174.269C1174.06 174.269 1106.63 227.106 1106.63 301.976C1106.63 459.774 1344.89 393.746 1344.89 458.348C1344.89 480.381 1325.09 494.285 1272.33 494.285C1223.98 494.285 1170.43 478.884 1135.25 456.137L1097.16 538.352C1133.83 562.595 1201.26 580.921 1267.98 580.921C1385.97 580.921 1454.19 528.797 1454.19 455.424C1454.19 299.837 1215.93 365.152 1215.93 297.627H1215.79Z" fill="#256360" style="fill:#256360;fill:color(display-p3 0.1451 0.3882 0.3765);fill-opacity:1;"/>
<path d="M1524.4 575.074H1575.81C1610.56 575.074 1638.76 546.837 1638.76 512.04V323.296H1524.4V575.074Z" fill="#256360" style="fill:#256360;fill:color(display-p3 0.1451 0.3882 0.3765);fill-opacity:1;"/>
<path d="M1730.62 323.296V575.074H1782.03C1816.78 575.074 1844.97 546.837 1844.97 512.04V323.296H1730.62Z" fill="#256360" style="fill:#256360;fill:color(display-p3 0.1451 0.3882 0.3765);fill-opacity:1;"/>
<path d="M60.6576 97.5271C87.1821 91.2581 103.609 64.6442 97.3491 38.0832C91.0888 11.5223 64.5114 -4.92765 37.9869 1.3413C11.4623 7.61026 -4.96502 34.2242 1.29534 60.7852C7.55569 87.3461 34.1331 103.796 60.6576 97.5271Z" fill="#61E0D4" style="fill:#61E0D4;fill:color(display-p3 0.3804 0.8784 0.8314);fill-opacity:1;"/>
<path d="M3018.4 274.652C3013.9 274.652 3009.92 273.711 3006.44 271.828C3003.02 269.946 3000.35 267.351 2998.41 264.042C2996.47 260.676 2995.5 256.769 2995.5 252.319C2995.5 247.813 2996.5 243.848 2998.5 240.426C3000.49 236.946 3003.22 234.237 3006.7 232.297C3010.23 230.301 3014.25 229.302 3018.75 229.302C3024.22 229.302 3028.63 230.586 3031.99 233.153C3035.41 235.663 3037.12 239.114 3037.12 243.506C3037.12 247.956 3035.12 251.293 3031.14 253.517C3027.21 255.742 3020.94 256.854 3012.34 256.854C3011.54 256.854 3010.54 256.854 3009.35 256.854C3008.21 256.797 3007.07 256.74 3005.93 256.683C3006.38 259.65 3007.89 262.017 3010.46 263.785C3013.08 265.554 3016.35 266.438 3020.28 266.438C3024.56 266.438 3028.43 265.44 3031.91 263.443L3035.49 270.288C3034.24 271.087 3032.67 271.828 3030.79 272.513C3028.91 273.198 3026.89 273.711 3024.73 274.053C3022.56 274.452 3020.46 274.652 3018.4 274.652ZM3018.58 236.832C3014.82 236.832 3011.71 238.058 3009.26 240.511C3006.87 242.907 3005.62 246.073 3005.5 250.009C3006.47 250.066 3007.5 250.095 3008.58 250.095C3009.66 250.095 3011.08 250.095 3012.85 250.095C3022.71 250.095 3027.63 247.842 3027.63 243.335C3027.63 241.339 3026.78 239.77 3025.07 238.629C3023.42 237.431 3021.25 236.832 3018.58 236.832Z" fill="#3A3A3A" style="fill:#3A3A3A;fill:color(display-p3 0.2275 0.2275 0.2275);fill-opacity:1;"/>
<path d="M2945.81 214.927C2945.81 213.444 2946.3 212.332 2947.27 211.59C2948.23 210.791 2949.49 210.392 2951.03 210.392C2951.82 210.392 2952.65 210.478 2953.5 210.649C2954.36 210.82 2955.04 211.048 2955.55 211.333V234.95C2957.09 233.124 2959.09 231.727 2961.54 230.757C2963.98 229.787 2966.72 229.302 2969.74 229.302C2975.32 229.302 2979.65 230.871 2982.73 234.008C2985.86 237.089 2987.43 241.338 2987.43 246.758V273.454H2977.68V249.667C2977.68 245.788 2976.89 242.907 2975.29 241.025C2973.7 239.142 2971.13 238.201 2967.6 238.201C2963.84 238.201 2960.88 239.256 2958.72 241.367C2956.61 243.478 2955.55 246.529 2955.55 250.523V273.454H2945.81V214.927Z" fill="#3A3A3A" style="fill:#3A3A3A;fill:color(display-p3 0.2275 0.2275 0.2275);fill-opacity:1;"/>
<path d="M2904.12 240.255C2906.05 236.832 2908.82 234.151 2912.4 232.211C2915.99 230.272 2920.27 229.302 2925.22 229.302C2928.07 229.302 2930.63 229.645 2932.91 230.329C2935.25 230.957 2937.04 231.841 2938.3 232.982C2939.55 234.065 2940.18 235.263 2940.18 236.575C2940.18 237.488 2939.86 238.429 2939.24 239.399C2938.67 240.312 2937.87 241.167 2936.84 241.966C2935.42 240.654 2933.68 239.656 2931.63 238.971C2929.64 238.23 2927.5 237.859 2925.22 237.859C2921.06 237.859 2917.73 239.114 2915.22 241.624C2912.72 244.077 2911.46 247.499 2911.46 251.892C2911.46 256.227 2912.72 259.678 2915.22 262.245C2917.79 264.755 2921.23 266.01 2925.56 266.01C2929.44 266.01 2932.97 265.04 2936.16 263.101L2940.26 270.374C2935.53 273.226 2930.26 274.652 2924.45 274.652C2919.84 274.652 2915.79 273.739 2912.32 271.914C2908.84 270.032 2906.14 267.408 2904.2 264.042C2902.26 260.676 2901.3 256.712 2901.3 252.148C2901.3 247.642 2902.24 243.677 2904.12 240.255Z" fill="#3A3A3A" style="fill:#3A3A3A;fill:color(display-p3 0.2275 0.2275 0.2275);fill-opacity:1;"/>
<path d="M2868.54 245.816C2868.54 240.625 2870.14 236.575 2873.33 233.666C2876.57 230.757 2881.05 229.302 2886.74 229.302C2890.62 229.302 2893.61 229.873 2895.71 231.014C2897.82 232.154 2898.88 233.609 2898.88 235.377C2898.88 236.29 2898.62 237.203 2898.11 238.116C2897.65 239.028 2897.2 239.627 2896.74 239.912C2894.23 238.657 2891.41 238.03 2888.28 238.03C2881.62 238.03 2878.28 241.567 2878.28 248.64V273.454H2868.54V245.816Z" fill="#3A3A3A" style="fill:#3A3A3A;fill:color(display-p3 0.2275 0.2275 0.2275);fill-opacity:1;"/>
<path d="M2842.58 274.652C2838.08 274.652 2834.1 273.711 2830.62 271.828C2827.2 269.946 2824.53 267.351 2822.59 264.042C2820.65 260.676 2819.68 256.769 2819.68 252.319C2819.68 247.813 2820.68 243.848 2822.67 240.426C2824.67 236.946 2827.4 234.237 2830.88 232.297C2834.41 230.301 2838.43 229.302 2842.93 229.302C2848.39 229.302 2852.81 230.586 2856.17 233.153C2859.59 235.663 2861.3 239.114 2861.3 243.506C2861.3 247.956 2859.3 251.293 2855.32 253.517C2851.39 255.742 2845.12 256.854 2836.52 256.854C2835.72 256.854 2834.72 256.854 2833.53 256.854C2832.39 256.797 2831.25 256.74 2830.11 256.683C2830.56 259.65 2832.07 262.017 2834.64 263.785C2837.26 265.554 2840.53 266.438 2844.46 266.438C2848.74 266.438 2852.61 265.44 2856.09 263.443L2859.67 270.288C2858.42 271.087 2856.85 271.828 2854.97 272.513C2853.09 273.198 2851.07 273.711 2848.91 274.053C2846.74 274.452 2844.64 274.652 2842.58 274.652ZM2842.76 236.832C2839 236.832 2835.89 238.058 2833.44 240.511C2831.05 242.907 2829.8 246.073 2829.68 250.009C2830.65 250.066 2831.68 250.095 2832.76 250.095C2833.84 250.095 2835.26 250.095 2837.03 250.095C2846.89 250.095 2851.81 247.842 2851.81 243.335C2851.81 241.339 2850.96 239.77 2849.25 238.629C2847.6 237.431 2845.43 236.832 2842.76 236.832Z" fill="#3A3A3A" style="fill:#3A3A3A;fill:color(display-p3 0.2275 0.2275 0.2275);fill-opacity:1;"/>
<path d="M2769.99 214.927C2769.99 213.444 2770.48 212.332 2771.45 211.59C2772.41 210.791 2773.67 210.392 2775.2 210.392C2776 210.392 2776.83 210.478 2777.68 210.649C2778.54 210.82 2779.22 211.048 2779.73 211.333V234.95C2781.27 233.124 2783.27 231.727 2785.72 230.757C2788.16 229.787 2790.9 229.302 2793.92 229.302C2799.5 229.302 2803.83 230.871 2806.91 234.008C2810.04 237.089 2811.61 241.338 2811.61 246.758V273.454H2801.86V249.667C2801.86 245.788 2801.07 242.907 2799.47 241.025C2797.88 239.142 2795.31 238.201 2791.78 238.201C2788.02 238.201 2785.06 239.256 2782.9 241.367C2780.79 243.478 2779.73 246.529 2779.73 250.523V273.454H2769.99V214.927Z" fill="#3A3A3A" style="fill:#3A3A3A;fill:color(display-p3 0.2275 0.2275 0.2275);fill-opacity:1;"/>
<path d="M2728.3 240.255C2730.23 236.832 2733 234.151 2736.58 232.211C2740.17 230.272 2744.45 229.302 2749.4 229.302C2752.25 229.302 2754.81 229.645 2757.09 230.329C2759.43 230.957 2761.22 231.841 2762.47 232.982C2763.73 234.065 2764.35 235.263 2764.35 236.575C2764.35 237.488 2764.04 238.429 2763.41 239.399C2762.85 240.312 2762.05 241.167 2761.02 241.966C2759.6 240.654 2757.86 239.656 2755.81 238.971C2753.82 238.23 2751.68 237.859 2749.4 237.859C2745.24 237.859 2741.91 239.114 2739.4 241.624C2736.9 244.077 2735.64 247.499 2735.64 251.892C2735.64 256.227 2736.9 259.678 2739.4 262.245C2741.97 264.755 2745.41 266.01 2749.74 266.01C2753.62 266.01 2757.15 265.04 2760.34 263.101L2764.44 270.374C2759.71 273.226 2754.44 274.652 2748.63 274.652C2744.02 274.652 2739.97 273.739 2736.5 271.914C2733.02 270.032 2730.32 267.408 2728.38 264.042C2726.44 260.676 2725.48 256.712 2725.48 252.148C2725.48 247.642 2726.42 243.677 2728.3 240.255Z" fill="#3A3A3A" style="fill:#3A3A3A;fill:color(display-p3 0.2275 0.2275 0.2275);fill-opacity:1;"/>
<path d="M2701.23 274.652C2696.73 274.652 2692.74 273.711 2689.26 271.828C2685.85 269.946 2683.17 267.351 2681.23 264.042C2679.3 260.676 2678.33 256.769 2678.33 252.319C2678.33 247.813 2679.32 243.848 2681.32 240.426C2683.31 236.946 2686.05 234.237 2689.52 232.297C2693.05 230.301 2697.07 229.302 2701.57 229.302C2707.04 229.302 2711.45 230.586 2714.81 233.153C2718.23 235.663 2719.94 239.114 2719.94 243.506C2719.94 247.956 2717.95 251.293 2713.96 253.517C2710.03 255.742 2703.76 256.854 2695.16 256.854C2694.36 256.854 2693.37 256.854 2692.17 256.854C2691.03 256.797 2689.89 256.74 2688.75 256.683C2689.21 259.65 2690.72 262.017 2693.28 263.785C2695.9 265.554 2699.18 266.438 2703.11 266.438C2707.38 266.438 2711.25 265.44 2714.73 263.443L2718.32 270.288C2717.06 271.087 2715.5 271.828 2713.62 272.513C2711.74 273.198 2709.72 273.711 2707.55 274.053C2705.39 274.452 2703.28 274.652 2701.23 274.652ZM2701.4 236.832C2697.64 236.832 2694.53 238.058 2692.08 240.511C2689.69 242.907 2688.44 246.073 2688.32 250.009C2689.29 250.066 2690.32 250.095 2691.4 250.095C2692.48 250.095 2693.91 250.095 2695.67 250.095C2705.53 250.095 2710.46 247.842 2710.46 243.335C2710.46 241.339 2709.6 239.77 2707.89 238.629C2706.24 237.431 2704.08 236.832 2701.4 236.832Z" fill="#3A3A3A" style="fill:#3A3A3A;fill:color(display-p3 0.2275 0.2275 0.2275);fill-opacity:1;"/>
<path d="M2625.66 220.318C2625.66 217.237 2627.23 215.383 2630.36 214.756C2631.16 214.585 2632.33 214.442 2633.86 214.328C2635.46 214.214 2637.2 214.129 2639.08 214.071C2640.96 213.957 2642.67 213.9 2644.2 213.9C2653.38 213.9 2660.3 215.555 2664.97 218.863C2669.7 222.115 2672.06 226.878 2672.06 233.153C2672.06 237.089 2671.12 240.397 2669.24 243.078C2667.42 245.702 2664.68 247.813 2661.04 249.41C2662.92 252.034 2665.05 255.457 2667.45 259.678C2669.9 263.842 2672.37 268.434 2674.88 273.454H2663.09C2662.35 271.8 2661.41 269.917 2660.27 267.807C2659.13 265.639 2657.93 263.471 2656.68 261.304C2655.48 259.136 2654.37 257.197 2653.35 255.485C2652.32 253.774 2651.52 252.548 2650.95 251.806C2650.16 251.92 2649.19 252.006 2648.05 252.063C2646.91 252.12 2645.86 252.148 2644.89 252.148C2643.12 252.148 2641.36 252.091 2639.59 251.977C2637.82 251.863 2636.48 251.72 2635.57 251.549V273.454H2625.66V220.318ZM2644.89 243.506C2650.7 243.506 2654.94 242.622 2657.62 240.854C2660.3 239.085 2661.64 236.49 2661.64 233.067C2661.64 226.051 2655.88 222.542 2644.37 222.542C2642.78 222.542 2641.1 222.6 2639.33 222.714C2637.62 222.828 2636.37 222.942 2635.57 223.056V242.822C2636.88 243.05 2638.36 243.221 2640.02 243.335C2641.67 243.449 2643.29 243.506 2644.89 243.506Z" fill="#3A3A3A" style="fill:#3A3A3A;fill:color(display-p3 0.2275 0.2275 0.2275);fill-opacity:1;"/>
<path d="M2576.98 274.652C2572.48 274.652 2568.49 273.711 2565.01 271.828C2561.6 269.946 2558.92 267.351 2556.98 264.042C2555.04 260.676 2554.08 256.769 2554.08 252.319C2554.08 247.813 2555.07 243.848 2557.07 240.426C2559.06 236.946 2561.8 234.237 2565.27 232.297C2568.8 230.301 2572.82 229.302 2577.32 229.302C2582.79 229.302 2587.2 230.586 2590.56 233.153C2593.98 235.663 2595.69 239.114 2595.69 243.506C2595.69 247.956 2593.7 251.293 2589.71 253.517C2585.78 255.742 2579.51 256.854 2570.91 256.854C2570.11 256.854 2569.12 256.854 2567.92 256.854C2566.78 256.797 2565.64 256.74 2564.5 256.683C2564.96 259.65 2566.47 262.017 2569.03 263.785C2571.65 265.554 2574.93 266.438 2578.86 266.438C2583.13 266.438 2587 265.44 2590.48 263.443L2594.07 270.288C2592.81 271.087 2591.25 271.828 2589.37 272.513C2587.49 273.198 2585.46 273.711 2583.3 274.053C2581.13 274.452 2579.03 274.652 2576.98 274.652ZM2577.15 236.832C2573.39 236.832 2570.28 238.058 2567.83 240.511C2565.44 242.907 2564.19 246.073 2564.07 250.009C2565.04 250.066 2566.07 250.095 2567.15 250.095C2568.23 250.095 2569.66 250.095 2571.42 250.095C2581.28 250.095 2586.2 247.842 2586.2 243.335C2586.2 241.339 2585.35 239.77 2583.64 238.629C2581.99 237.431 2579.82 236.832 2577.15 236.832Z" fill="#3A3A3A" style="fill:#3A3A3A;fill:color(display-p3 0.2275 0.2275 0.2275);fill-opacity:1;"/>
<path d="M2546.9 249.924C2546.9 255.058 2545.96 259.478 2544.08 263.186C2542.26 266.894 2539.66 269.746 2536.3 271.743C2532.94 273.682 2528.95 274.652 2524.34 274.652C2519.67 274.652 2515.57 273.682 2512.04 271.743C2508.5 269.803 2505.74 267.122 2503.75 263.7C2501.75 260.277 2500.76 256.37 2500.76 251.977C2500.76 247.585 2501.73 243.706 2503.66 240.34C2505.6 236.918 2508.22 234.237 2511.52 232.297C2514.83 230.3 2518.53 229.302 2522.63 229.302C2525.76 229.302 2528.56 229.901 2531.01 231.099C2533.51 232.24 2535.56 233.837 2537.16 235.891V214.927C2537.16 213.444 2537.64 212.332 2538.61 211.59C2539.58 210.791 2540.83 210.392 2542.37 210.392C2543.17 210.392 2543.99 210.478 2544.85 210.649C2545.7 210.82 2546.39 211.048 2546.9 211.333V249.924ZM2524 237.944C2520.18 237.944 2517.02 239.228 2514.51 241.795C2512.06 244.362 2510.84 247.727 2510.84 251.892C2510.84 256.056 2512.06 259.421 2514.51 261.988C2517.02 264.555 2520.18 265.839 2524 265.839C2527.87 265.839 2531.03 264.555 2533.48 261.988C2535.99 259.421 2537.24 256.056 2537.24 251.892C2537.24 247.727 2535.99 244.362 2533.48 241.795C2531.03 239.228 2527.87 237.944 2524 237.944Z" fill="#3A3A3A" style="fill:#3A3A3A;fill:color(display-p3 0.2275 0.2275 0.2275);fill-opacity:1;"/>
<path d="M2429.45 247.528C2429.45 243.877 2430.31 240.683 2432.01 237.944C2433.78 235.206 2436.23 233.096 2439.36 231.613C2442.5 230.072 2446.14 229.302 2450.3 229.302C2454.52 229.302 2458.16 230.072 2461.24 231.613C2464.37 233.096 2466.79 235.206 2468.5 237.944C2470.27 240.683 2471.15 243.877 2471.15 247.528V273.454H2461.41V250.009C2461.41 246.13 2460.47 243.192 2458.59 241.196C2456.71 239.142 2453.95 238.116 2450.3 238.116C2442.89 238.116 2439.19 242.08 2439.19 250.009V273.454H2429.45V247.528Z" fill="#3A3A3A" style="fill:#3A3A3A;fill:color(display-p3 0.2275 0.2275 0.2275);fill-opacity:1;"/>
<path d="M2377.33 263.529C2375.28 260.106 2374.25 256.255 2374.25 251.977C2374.25 247.699 2375.28 243.848 2377.33 240.426C2379.44 237.003 2382.26 234.294 2385.79 232.297C2389.32 230.301 2393.31 229.302 2397.75 229.302C2402.19 229.302 2406.18 230.301 2409.71 232.297C2413.3 234.294 2416.12 237.003 2418.17 240.426C2420.22 243.848 2421.25 247.699 2421.25 251.977C2421.25 256.255 2420.22 260.106 2418.17 263.529C2416.12 266.951 2413.3 269.661 2409.71 271.657C2406.18 273.654 2402.19 274.652 2397.75 274.652C2393.31 274.652 2389.32 273.654 2385.79 271.657C2382.26 269.661 2379.44 266.951 2377.33 263.529ZM2409.37 259.336C2410.51 257.168 2411.08 254.715 2411.08 251.977C2411.08 249.239 2410.51 246.815 2409.37 244.704C2408.23 242.536 2406.64 240.854 2404.59 239.656C2402.59 238.458 2400.31 237.859 2397.75 237.859C2395.19 237.859 2392.88 238.458 2390.83 239.656C2388.84 240.854 2387.27 242.536 2386.13 244.704C2384.99 246.815 2384.42 249.239 2384.42 251.977C2384.42 254.715 2384.99 257.168 2386.13 259.336C2387.27 261.446 2388.84 263.101 2390.83 264.299C2392.88 265.497 2395.19 266.096 2397.75 266.096C2400.31 266.096 2402.59 265.497 2404.59 264.299C2406.64 263.101 2408.23 261.446 2409.37 259.336Z" fill="#3A3A3A" style="fill:#3A3A3A;fill:color(display-p3 0.2275 0.2275 0.2275);fill-opacity:1;"/>
<path d="M2365.52 273.454H2355.78V235.035C2355.78 233.552 2356.26 232.44 2357.23 231.698C2358.2 230.899 2359.45 230.5 2360.99 230.5C2361.79 230.5 2362.62 230.586 2363.47 230.757C2364.32 230.928 2365.01 231.156 2365.52 231.441V273.454ZM2356.38 221.516C2355.3 220.375 2354.75 218.949 2354.75 217.237C2354.75 215.526 2355.3 214.1 2356.38 212.959C2357.52 211.818 2358.94 211.248 2360.65 211.248C2362.36 211.248 2363.76 211.818 2364.84 212.959C2365.98 214.1 2366.55 215.526 2366.55 217.237C2366.55 218.949 2365.98 220.375 2364.84 221.516C2363.76 222.657 2362.36 223.227 2360.65 223.227C2358.94 223.227 2357.52 222.657 2356.38 221.516Z" fill="#3A3A3A" style="fill:#3A3A3A;fill:color(display-p3 0.2275 0.2275 0.2275);fill-opacity:1;"/>
<path d="M2321.14 222.885C2321.14 221.402 2321.62 220.289 2322.59 219.548C2323.56 218.749 2324.81 218.35 2326.35 218.35C2327.15 218.35 2327.97 218.435 2328.83 218.606C2329.68 218.778 2330.37 219.006 2330.88 219.291V230.5H2343.27C2346.69 230.5 2348.4 232.012 2348.4 235.035C2348.4 236.689 2348.03 238.173 2347.29 239.485H2330.88V258.48C2330.88 260.876 2331.51 262.73 2332.76 264.042C2334.01 265.354 2335.86 266.01 2338.31 266.01C2339.68 266.01 2341.08 265.81 2342.5 265.411C2343.98 265.012 2345.23 264.47 2346.26 263.785L2350.19 270.288C2348.71 271.543 2346.69 272.599 2344.12 273.454C2341.62 274.253 2339.03 274.652 2336.35 274.652C2331.73 274.652 2328.03 273.397 2325.24 270.887C2322.51 268.32 2321.14 264.869 2321.14 260.534V222.885Z" fill="#3A3A3A" style="fill:#3A3A3A;fill:color(display-p3 0.2275 0.2275 0.2275);fill-opacity:1;"/>
<path d="M2311.11 273.283C2308.15 273.682 2304.93 273.996 2301.46 274.224C2298.04 274.51 2294.93 274.652 2292.14 274.652C2285.08 274.652 2279.67 273.54 2275.91 271.315C2272.2 269.09 2270.35 265.468 2270.35 260.448C2270.35 255.999 2271.95 252.576 2275.14 250.18C2278.39 247.784 2283.63 246.587 2290.86 246.587C2292.51 246.587 2294.36 246.644 2296.41 246.758C2298.47 246.872 2300.12 247.014 2301.37 247.186C2301.37 243.706 2300.29 241.167 2298.12 239.57C2296.02 237.973 2292.85 237.174 2288.64 237.174C2285.96 237.174 2283.51 237.46 2281.29 238.03C2279.13 238.6 2277.56 239.313 2276.59 240.169C2275.96 239.713 2275.42 239.085 2274.97 238.287C2274.51 237.431 2274.28 236.547 2274.28 235.634C2274.28 233.695 2275.48 232.154 2277.87 231.014C2280.26 229.873 2283.8 229.302 2288.47 229.302C2295.93 229.302 2301.57 230.842 2305.39 233.923C2309.2 236.946 2311.11 241.481 2311.11 247.528V273.283ZM2283 266.01C2284.94 267.037 2287.98 267.55 2292.14 267.55C2293.85 267.55 2295.59 267.493 2297.35 267.379C2299.12 267.208 2300.49 267.008 2301.46 266.78V254.287C2300.2 254.002 2298.55 253.803 2296.5 253.689C2294.51 253.517 2292.74 253.432 2291.2 253.432C2287.04 253.432 2284.14 254.059 2282.49 255.314C2280.89 256.512 2280.09 258.309 2280.09 260.705C2280.09 263.158 2281.06 264.926 2283 266.01Z" fill="#3A3A3A" style="fill:#3A3A3A;fill:color(display-p3 0.2275 0.2275 0.2275);fill-opacity:1;"/>
<path d="M2262.05 273.454H2252.31V235.035C2252.31 233.552 2252.79 232.44 2253.76 231.698C2254.73 230.899 2255.98 230.5 2257.52 230.5C2258.32 230.5 2259.14 230.586 2260 230.757C2260.85 230.928 2261.54 231.156 2262.05 231.441V273.454ZM2252.91 221.516C2251.82 220.375 2251.28 218.949 2251.28 217.237C2251.28 215.526 2251.82 214.1 2252.91 212.959C2254.04 211.818 2255.47 211.248 2257.18 211.248C2258.89 211.248 2260.28 211.818 2261.36 212.959C2262.5 214.1 2263.07 215.526 2263.07 217.237C2263.07 218.949 2262.5 220.375 2261.36 221.516C2260.28 222.657 2258.89 223.227 2257.18 223.227C2255.47 223.227 2254.04 222.657 2252.91 221.516Z" fill="#3A3A3A" style="fill:#3A3A3A;fill:color(display-p3 0.2275 0.2275 0.2275);fill-opacity:1;"/>
<path d="M2210.1 240.255C2212.03 236.832 2214.8 234.151 2218.39 232.211C2221.98 230.272 2226.25 229.302 2231.2 229.302C2234.05 229.302 2236.62 229.645 2238.89 230.329C2241.23 230.957 2243.02 231.841 2244.28 232.982C2245.53 234.065 2246.16 235.263 2246.16 236.575C2246.16 237.488 2245.84 238.429 2245.22 239.399C2244.65 240.312 2243.85 241.167 2242.82 241.966C2241.4 240.654 2239.66 239.656 2237.61 238.971C2235.62 238.23 2233.48 237.859 2231.2 237.859C2227.05 237.859 2223.71 239.114 2221.21 241.624C2218.7 244.077 2217.45 247.499 2217.45 251.892C2217.45 256.227 2218.7 259.678 2221.21 262.245C2223.77 264.755 2227.22 266.01 2231.55 266.01C2235.42 266.01 2238.95 265.04 2242.14 263.101L2246.24 270.374C2241.51 273.226 2236.24 274.652 2230.43 274.652C2225.82 274.652 2221.78 273.739 2218.3 271.914C2214.83 270.032 2212.12 267.408 2210.18 264.042C2208.25 260.676 2207.28 256.712 2207.28 252.148C2207.28 247.642 2208.22 243.677 2210.1 240.255Z" fill="#3A3A3A" style="fill:#3A3A3A;fill:color(display-p3 0.2275 0.2275 0.2275);fill-opacity:1;"/>
<path d="M2156.87 263.529C2154.81 260.106 2153.79 256.255 2153.79 251.977C2153.79 247.699 2154.81 243.848 2156.87 240.426C2158.97 237.003 2161.79 234.294 2165.32 232.297C2168.86 230.301 2172.84 229.302 2177.29 229.302C2181.73 229.302 2185.72 230.301 2189.25 232.297C2192.84 234.294 2195.66 237.003 2197.71 240.426C2199.76 243.848 2200.79 247.699 2200.79 251.977C2200.79 256.255 2199.76 260.106 2197.71 263.529C2195.66 266.951 2192.84 269.661 2189.25 271.657C2185.72 273.654 2181.73 274.652 2177.29 274.652C2172.84 274.652 2168.86 273.654 2165.32 271.657C2161.79 269.661 2158.97 266.951 2156.87 263.529ZM2188.91 259.336C2190.05 257.168 2190.62 254.715 2190.62 251.977C2190.62 249.239 2190.05 246.815 2188.91 244.704C2187.77 242.536 2186.17 240.854 2184.12 239.656C2182.13 238.458 2179.85 237.859 2177.29 237.859C2174.72 237.859 2172.42 238.458 2170.37 239.656C2168.37 240.854 2166.81 242.536 2165.67 244.704C2164.53 246.815 2163.96 249.239 2163.96 251.977C2163.96 254.715 2164.53 257.168 2165.67 259.336C2166.81 261.446 2168.37 263.101 2170.37 264.299C2172.42 265.497 2174.72 266.096 2177.29 266.096C2179.85 266.096 2182.13 265.497 2184.12 264.299C2186.17 263.101 2187.77 261.446 2188.91 259.336Z" fill="#3A3A3A" style="fill:#3A3A3A;fill:color(display-p3 0.2275 0.2275 0.2275);fill-opacity:1;"/>
<path d="M2147.4 260.534C2147.4 264.983 2145.57 268.463 2141.93 270.973C2138.34 273.426 2133.58 274.652 2127.66 274.652C2124.98 274.652 2122.19 274.395 2119.28 273.882C2116.43 273.426 2113.81 272.798 2111.42 272C2109.09 271.144 2107.29 270.26 2106.04 269.347L2109.71 262.758C2111.54 263.899 2114.04 264.898 2117.23 265.753C2120.42 266.609 2123.73 267.037 2127.14 267.037C2133.87 267.037 2137.23 265.325 2137.23 261.903C2137.23 258.994 2134.49 257.197 2129.02 256.512L2120.31 255.4C2115.98 254.829 2112.65 253.517 2110.31 251.464C2107.98 249.41 2106.81 246.558 2106.81 242.907C2106.81 238.458 2108.54 235.092 2112.02 232.81C2115.49 230.472 2120.54 229.302 2127.14 229.302C2130.62 229.302 2133.7 229.616 2136.37 230.243C2139.05 230.871 2141.16 231.727 2142.7 232.81C2144.23 233.837 2145 235.035 2145 236.404C2145 237.26 2144.69 238.144 2144.06 239.057C2143.49 239.969 2142.81 240.625 2142.01 241.025C2141.27 240.283 2140.05 239.599 2138.34 238.971C2136.63 238.287 2134.69 237.745 2132.53 237.345C2130.36 236.889 2128.2 236.661 2126.03 236.661C2123.01 236.661 2120.65 237.117 2118.94 238.03C2117.29 238.886 2116.46 240.169 2116.46 241.88C2116.46 243.192 2117.03 244.276 2118.17 245.132C2119.37 245.931 2121.22 246.501 2123.73 246.843L2132.44 247.956C2142.41 249.211 2147.4 253.403 2147.4 260.534Z" fill="#3A3A3A" style="fill:#3A3A3A;fill:color(display-p3 0.2275 0.2275 0.2275);fill-opacity:1;"/>
<path d="M2100.5 260.534C2100.5 264.983 2098.68 268.463 2095.03 270.973C2091.44 273.426 2086.68 274.652 2080.76 274.652C2078.08 274.652 2075.29 274.395 2072.39 273.882C2069.54 273.426 2066.92 272.798 2064.52 272C2062.19 271.144 2060.39 270.26 2059.14 269.347L2062.82 262.758C2064.64 263.899 2067.15 264.898 2070.34 265.753C2073.53 266.609 2076.83 267.037 2080.25 267.037C2086.97 267.037 2090.33 265.325 2090.33 261.903C2090.33 258.994 2087.6 257.197 2082.13 256.512L2073.41 255.4C2069.08 254.829 2065.75 253.517 2063.41 251.464C2061.08 249.41 2059.91 246.558 2059.91 242.907C2059.91 238.458 2061.65 235.092 2065.12 232.81C2068.6 230.472 2073.64 229.302 2080.25 229.302C2083.72 229.302 2086.8 229.616 2089.48 230.243C2092.15 230.871 2094.26 231.727 2095.8 232.81C2097.34 233.837 2098.11 235.035 2098.11 236.404C2098.11 237.26 2097.79 238.144 2097.17 239.057C2096.6 239.969 2095.91 240.625 2095.12 241.025C2094.37 240.283 2093.15 239.599 2091.44 238.971C2089.73 238.287 2087.8 237.745 2085.63 237.345C2083.47 236.889 2081.3 236.661 2079.14 236.661C2076.12 236.661 2073.75 237.117 2072.04 238.03C2070.39 238.886 2069.57 240.169 2069.57 241.88C2069.57 243.192 2070.14 244.276 2071.28 245.132C2072.47 245.931 2074.32 246.501 2076.83 246.843L2085.55 247.956C2095.51 249.211 2100.5 253.403 2100.5 260.534Z" fill="#3A3A3A" style="fill:#3A3A3A;fill:color(display-p3 0.2275 0.2275 0.2275);fill-opacity:1;"/>
<path d="M1994.51 273.454C1996.45 268.32 1998.64 262.73 2001.09 256.683C2003.54 250.58 2006.13 244.333 2008.86 237.944C2011.6 231.555 2014.33 225.338 2017.07 219.291C2018.04 217.123 2019.17 215.583 2020.49 214.67C2021.8 213.701 2023.48 213.216 2025.53 213.216C2026.44 213.216 2027.58 213.444 2028.94 213.9C2030.31 214.3 2031.19 214.699 2031.59 215.098C2032.22 216.125 2033.1 217.893 2034.24 220.403C2035.38 222.856 2036.72 225.823 2038.26 229.302C2039.8 232.725 2041.39 236.433 2043.04 240.426C2044.7 244.362 2046.35 248.355 2048 252.405C2049.65 256.398 2051.19 260.22 2052.61 263.871C2054.09 267.522 2055.32 270.716 2056.29 273.454H2045.01C2044.55 272.199 2043.95 270.631 2043.21 268.748C2042.47 266.809 2041.73 264.869 2040.99 262.93C2040.31 260.933 2039.71 259.336 2039.2 258.138H2010.57C2009.66 260.42 2008.72 262.844 2007.75 265.411C2006.78 267.921 2005.79 270.602 2004.76 273.454H1994.51ZM2025.1 223.569C2024.07 225.737 2022.93 228.275 2021.68 231.185C2020.43 234.037 2019.15 237.032 2017.84 240.169C2016.53 243.249 2015.3 246.244 2014.16 249.153H2035.78C2034.93 246.929 2033.99 244.561 2032.96 242.052C2031.94 239.485 2030.91 236.975 2029.88 234.522C2028.92 232.069 2028 229.873 2027.15 227.933C2026.3 225.994 2025.61 224.539 2025.1 223.569Z" fill="#3A3A3A" style="fill:#3A3A3A;fill:color(display-p3 0.2275 0.2275 0.2275);fill-opacity:1;"/>
<path d="M2982.2 384.433C2982.2 380.782 2983.05 377.588 2984.76 374.85C2986.52 372.112 2988.97 370.001 2992.11 368.518C2995.24 366.978 2998.89 366.208 3003.04 366.208C3007.26 366.208 3010.91 366.978 3013.98 368.518C3017.12 370.001 3019.54 372.112 3021.25 374.85C3023.01 377.588 3023.89 380.782 3023.89 384.433V410.36H3014.15V386.914C3014.15 383.035 3013.21 380.098 3011.33 378.101C3009.45 376.048 3006.69 375.021 3003.04 375.021C2995.64 375.021 2991.94 378.985 2991.94 386.914V410.36H2982.2V384.433Z" fill="#3A3A3A" style="fill:#3A3A3A;fill:color(display-p3 0.2275 0.2275 0.2275);fill-opacity:1;"/>
<path d="M2930.07 400.434C2928.02 397.011 2927 393.161 2927 388.882C2927 384.604 2928.02 380.754 2930.07 377.331C2932.18 373.908 2935 371.199 2938.53 369.202C2942.06 367.206 2946.05 366.208 2950.5 366.208C2954.94 366.208 2958.93 367.206 2962.46 369.202C2966.05 371.199 2968.87 373.908 2970.92 377.331C2972.97 380.754 2973.99 384.604 2973.99 388.882C2973.99 393.161 2972.97 397.011 2970.92 400.434C2968.87 403.856 2966.05 406.566 2962.46 408.563C2958.93 410.559 2954.94 411.557 2950.5 411.557C2946.05 411.557 2942.06 410.559 2938.53 408.563C2935 406.566 2932.18 403.856 2930.07 400.434ZM2962.12 396.241C2963.26 394.073 2963.83 391.621 2963.83 388.882C2963.83 386.144 2963.26 383.72 2962.12 381.609C2960.98 379.442 2959.38 377.759 2957.33 376.561C2955.34 375.363 2953.06 374.764 2950.5 374.764C2947.93 374.764 2945.63 375.363 2943.57 376.561C2941.58 377.759 2940.01 379.442 2938.87 381.609C2937.74 383.72 2937.17 386.144 2937.17 388.882C2937.17 391.621 2937.74 394.073 2938.87 396.241C2940.01 398.352 2941.58 400.006 2943.57 401.204C2945.63 402.402 2947.93 403.001 2950.5 403.001C2953.06 403.001 2955.34 402.402 2957.33 401.204C2959.38 400.006 2960.98 398.352 2962.12 396.241Z" fill="#3A3A3A" style="fill:#3A3A3A;fill:color(display-p3 0.2275 0.2275 0.2275);fill-opacity:1;"/>
<path d="M2918.27 410.36H2908.52V371.94C2908.52 370.457 2909.01 369.345 2909.98 368.603C2910.95 367.805 2912.2 367.405 2913.74 367.405C2914.53 367.405 2915.36 367.491 2916.21 367.662C2917.07 367.833 2917.75 368.061 2918.27 368.347V410.36ZM2909.12 358.421C2908.04 357.28 2907.5 355.854 2907.5 354.143C2907.5 352.431 2908.04 351.005 2909.12 349.864C2910.26 348.724 2911.69 348.153 2913.39 348.153C2915.1 348.153 2916.5 348.724 2917.58 349.864C2918.72 351.005 2919.29 352.431 2919.29 354.143C2919.29 355.854 2918.72 357.28 2917.58 358.421C2916.5 359.562 2915.1 360.132 2913.39 360.132C2911.69 360.132 2910.26 359.562 2909.12 358.421Z" fill="#3A3A3A" style="fill:#3A3A3A;fill:color(display-p3 0.2275 0.2275 0.2275);fill-opacity:1;"/>
<path d="M2873.88 359.79C2873.88 358.307 2874.37 357.195 2875.34 356.453C2876.3 355.654 2877.56 355.255 2879.09 355.255C2879.89 355.255 2880.72 355.341 2881.57 355.512C2882.43 355.683 2883.11 355.911 2883.62 356.196V367.405H2896.01C2899.43 367.405 2901.14 368.917 2901.14 371.94C2901.14 373.595 2900.77 375.078 2900.03 376.39H2883.62V395.386C2883.62 397.781 2884.25 399.635 2885.5 400.947C2886.76 402.259 2888.61 402.915 2891.06 402.915C2892.42 402.915 2893.82 402.716 2895.24 402.316C2896.73 401.917 2897.98 401.375 2899 400.691L2902.94 407.194C2901.45 408.449 2899.43 409.504 2896.87 410.36C2894.36 411.158 2891.77 411.557 2889.09 411.557C2884.48 411.557 2880.78 410.303 2877.98 407.793C2875.25 405.226 2873.88 401.774 2873.88 397.439V359.79Z" fill="#3A3A3A" style="fill:#3A3A3A;fill:color(display-p3 0.2275 0.2275 0.2275);fill-opacity:1;"/>
<path d="M2863.86 410.188C2860.89 410.588 2857.68 410.901 2854.2 411.13C2850.78 411.415 2847.68 411.557 2844.89 411.557C2837.82 411.557 2832.41 410.445 2828.65 408.22C2824.95 405.996 2823.1 402.373 2823.1 397.353C2823.1 392.904 2824.69 389.481 2827.88 387.086C2831.13 384.69 2836.37 383.492 2843.61 383.492C2845.26 383.492 2847.11 383.549 2849.16 383.663C2851.21 383.777 2852.86 383.92 2854.12 384.091C2854.12 380.611 2853.03 378.073 2850.87 376.475C2848.76 374.878 2845.6 374.08 2841.38 374.08C2838.71 374.08 2836.26 374.365 2834.03 374.935C2831.87 375.506 2830.3 376.219 2829.34 377.074C2828.71 376.618 2828.17 375.991 2827.71 375.192C2827.26 374.336 2827.03 373.452 2827.03 372.539C2827.03 370.6 2828.22 369.06 2830.62 367.919C2833.01 366.778 2836.54 366.208 2841.21 366.208C2848.67 366.208 2854.31 367.748 2858.13 370.828C2861.95 373.851 2863.86 378.386 2863.86 384.433V410.188ZM2835.74 402.915C2837.68 403.942 2840.73 404.455 2844.89 404.455C2846.6 404.455 2848.33 404.398 2850.1 404.284C2851.87 404.113 2853.23 403.914 2854.2 403.685V391.193C2852.95 390.908 2851.3 390.708 2849.24 390.594C2847.25 390.423 2845.48 390.337 2843.95 390.337C2839.79 390.337 2836.88 390.965 2835.23 392.22C2833.64 393.417 2832.84 395.214 2832.84 397.61C2832.84 400.063 2833.81 401.831 2835.74 402.915Z" fill="#3A3A3A" style="fill:#3A3A3A;fill:color(display-p3 0.2275 0.2275 0.2275);fill-opacity:1;"/>
<path d="M2788.35 382.978C2790.86 388.569 2793.51 394.245 2796.3 400.006C2797.21 398.295 2798.35 395.927 2799.72 392.904C2801.09 389.824 2802.54 386.458 2804.08 382.807C2805.67 379.157 2807.18 375.563 2808.61 372.026C2809.29 370.315 2810.06 369.117 2810.91 368.432C2811.82 367.748 2812.99 367.405 2814.42 367.405C2815.38 367.405 2816.44 367.605 2817.58 368.004C2818.77 368.347 2819.57 368.746 2819.97 369.202C2819.69 370.286 2819.03 372.026 2818.01 374.422C2817.04 376.761 2815.84 379.499 2814.42 382.636C2813.05 385.717 2811.57 388.94 2809.97 392.305C2808.38 395.614 2806.78 398.865 2805.19 402.06C2803.59 405.197 2802.14 407.964 2800.83 410.36H2791.26C2787.96 404.256 2784.94 398.437 2782.2 392.904C2779.47 387.371 2777.3 382.75 2775.71 379.042C2774.97 377.217 2774.37 375.677 2773.91 374.422C2773.46 373.11 2773.23 372.197 2773.23 371.684C2773.23 370.372 2773.66 369.345 2774.51 368.603C2775.42 367.805 2776.62 367.405 2778.1 367.405C2778.9 367.405 2779.72 367.491 2780.58 367.662C2781.43 367.833 2782.03 368.033 2782.37 368.261C2783.91 372.425 2785.91 377.331 2788.35 382.978Z" fill="#3A3A3A" style="fill:#3A3A3A;fill:color(display-p3 0.2275 0.2275 0.2275);fill-opacity:1;"/>
<path d="M2725.8 400.434C2723.75 397.011 2722.72 393.161 2722.72 388.882C2722.72 384.604 2723.75 380.754 2725.8 377.331C2727.91 373.908 2730.73 371.199 2734.26 369.202C2737.79 367.206 2741.78 366.208 2746.22 366.208C2750.66 366.208 2754.65 367.206 2758.18 369.202C2761.77 371.199 2764.59 373.908 2766.64 377.331C2768.69 380.754 2769.72 384.604 2769.72 388.882C2769.72 393.161 2768.69 397.011 2766.64 400.434C2764.59 403.856 2761.77 406.566 2758.18 408.563C2754.65 410.559 2750.66 411.557 2746.22 411.557C2741.78 411.557 2737.79 410.559 2734.26 408.563C2730.73 406.566 2727.91 403.856 2725.8 400.434ZM2757.84 396.241C2758.98 394.073 2759.55 391.621 2759.55 388.882C2759.55 386.144 2758.98 383.72 2757.84 381.609C2756.7 379.442 2755.11 377.759 2753.06 376.561C2751.06 375.363 2748.78 374.764 2746.22 374.764C2743.66 374.764 2741.35 375.363 2739.3 376.561C2737.31 377.759 2735.74 379.442 2734.6 381.609C2733.46 383.72 2732.89 386.144 2732.89 388.882C2732.89 391.621 2733.46 394.073 2734.6 396.241C2735.74 398.352 2737.31 400.006 2739.3 401.204C2741.35 402.402 2743.66 403.001 2746.22 403.001C2748.78 403.001 2751.06 402.402 2753.06 401.204C2755.11 400.006 2756.7 398.352 2757.84 396.241Z" fill="#3A3A3A" style="fill:#3A3A3A;fill:color(display-p3 0.2275 0.2275 0.2275);fill-opacity:1;"/>
<path d="M2672.86 384.433C2672.86 380.782 2673.72 377.588 2675.43 374.85C2677.19 372.112 2679.64 370.001 2682.77 368.518C2685.91 366.978 2689.55 366.208 2693.71 366.208C2697.93 366.208 2701.57 366.978 2704.65 368.518C2707.78 370.001 2710.2 372.112 2711.91 374.85C2713.68 377.588 2714.56 380.782 2714.56 384.433V410.36H2704.82V386.914C2704.82 383.035 2703.88 380.098 2702 378.101C2700.12 376.048 2697.36 375.021 2693.71 375.021C2686.31 375.021 2682.6 378.985 2682.6 386.914V410.36H2672.86V384.433Z" fill="#3A3A3A" style="fill:#3A3A3A;fill:color(display-p3 0.2275 0.2275 0.2275);fill-opacity:1;"/>
<path d="M2621.29 384.433C2621.29 380.782 2622.15 377.588 2623.86 374.85C2625.62 372.112 2628.07 370.001 2631.2 368.518C2634.34 366.978 2637.98 366.208 2642.14 366.208C2646.36 366.208 2650 366.978 2653.08 368.518C2656.21 370.001 2658.63 372.112 2660.34 374.85C2662.11 377.588 2662.99 380.782 2662.99 384.433V410.36H2653.25V386.914C2653.25 383.035 2652.31 380.098 2650.43 378.101C2648.55 376.048 2645.79 375.021 2642.14 375.021C2634.74 375.021 2631.03 378.985 2631.03 386.914V410.36H2621.29V384.433Z" fill="#3A3A3A" style="fill:#3A3A3A;fill:color(display-p3 0.2275 0.2275 0.2275);fill-opacity:1;"/>
<path d="M2610.13 410.359H2599.96V356.367C2599.96 354.884 2600.44 353.743 2601.41 352.945C2602.44 352.089 2603.75 351.661 2605.34 351.661C2606.14 351.661 2606.94 351.775 2607.74 352.004C2608.59 352.175 2609.39 352.403 2610.13 352.688V410.359Z" fill="#3A3A3A" style="fill:#3A3A3A;fill:color(display-p3 0.2275 0.2275 0.2275);fill-opacity:1;"/>
<path d="M2543.1 359.79C2543.1 358.307 2543.59 357.195 2544.56 356.453C2545.52 355.654 2546.78 355.255 2548.32 355.255C2549.11 355.255 2549.94 355.341 2550.79 355.512C2551.65 355.683 2552.33 355.911 2552.84 356.196V367.405H2565.23C2568.65 367.405 2570.36 368.917 2570.36 371.94C2570.36 373.595 2569.99 375.078 2569.25 376.39H2552.84V395.386C2552.84 397.781 2553.47 399.635 2554.72 400.947C2555.98 402.259 2557.83 402.915 2560.28 402.915C2561.65 402.915 2563.04 402.716 2564.47 402.316C2565.95 401.917 2567.2 401.375 2568.23 400.691L2572.16 407.194C2570.68 408.449 2568.65 409.504 2566.09 410.36C2563.58 411.158 2560.99 411.557 2558.31 411.557C2553.7 411.557 2550 410.303 2547.21 407.793C2544.47 405.226 2543.1 401.774 2543.1 397.439V359.79Z" fill="#3A3A3A" style="fill:#3A3A3A;fill:color(display-p3 0.2275 0.2275 0.2275);fill-opacity:1;"/>
<path d="M2517.15 411.557C2512.65 411.557 2508.66 410.616 2505.18 408.734C2501.77 406.851 2499.09 404.256 2497.15 400.947C2495.21 397.582 2494.25 393.674 2494.25 389.225C2494.25 384.718 2495.24 380.754 2497.24 377.331C2499.23 373.851 2501.96 371.142 2505.44 369.202C2508.97 367.206 2512.99 366.208 2517.49 366.208C2522.96 366.208 2527.37 367.491 2530.73 370.058C2534.15 372.568 2535.86 376.019 2535.86 380.411C2535.86 384.861 2533.87 388.198 2529.88 390.423C2525.95 392.647 2519.68 393.76 2511.08 393.76C2510.28 393.76 2509.28 393.76 2508.09 393.76C2506.95 393.703 2505.81 393.646 2504.67 393.589C2505.13 396.555 2506.64 398.922 2509.2 400.691C2511.82 402.459 2515.1 403.343 2519.03 403.343C2523.3 403.343 2527.17 402.345 2530.65 400.348L2534.24 407.194C2532.98 407.992 2531.42 408.734 2529.54 409.418C2527.66 410.103 2525.63 410.616 2523.47 410.958C2521.3 411.358 2519.2 411.557 2517.15 411.557ZM2517.32 373.737C2513.56 373.737 2510.45 374.964 2508 377.417C2505.61 379.812 2504.36 382.978 2504.24 386.914C2505.21 386.972 2506.24 387 2507.32 387C2508.4 387 2509.83 387 2511.59 387C2521.45 387 2526.37 384.747 2526.37 380.24C2526.37 378.244 2525.52 376.675 2523.81 375.534C2522.16 374.336 2519.99 373.737 2517.32 373.737Z" fill="#3A3A3A" style="fill:#3A3A3A;fill:color(display-p3 0.2275 0.2275 0.2275);fill-opacity:1;"/>
<path d="M2448.64 411.557C2444.14 411.557 2440.15 410.616 2436.67 408.734C2433.26 406.851 2430.58 404.256 2428.64 400.947C2426.71 397.582 2425.74 393.674 2425.74 389.225C2425.74 384.718 2426.73 380.754 2428.73 377.331C2430.72 373.851 2433.46 371.142 2436.93 369.202C2440.46 367.206 2444.48 366.208 2448.98 366.208C2454.45 366.208 2458.86 367.491 2462.22 370.058C2465.64 372.568 2467.35 376.019 2467.35 380.411C2467.35 384.861 2465.36 388.198 2461.37 390.423C2457.44 392.647 2451.17 393.76 2442.57 393.76C2441.77 393.76 2440.78 393.76 2439.58 393.76C2438.44 393.703 2437.3 393.646 2436.16 393.589C2436.62 396.555 2438.13 398.922 2440.69 400.691C2443.31 402.459 2446.59 403.343 2450.52 403.343C2454.79 403.343 2458.66 402.345 2462.14 400.348L2465.73 407.194C2464.47 407.992 2462.91 408.734 2461.03 409.418C2459.15 410.103 2457.12 410.616 2454.96 410.958C2452.8 411.358 2450.69 411.557 2448.64 411.557ZM2448.81 373.737C2445.05 373.737 2441.94 374.964 2439.49 377.417C2437.1 379.812 2435.85 382.978 2435.73 386.914C2436.7 386.972 2437.73 387 2438.81 387C2439.89 387 2441.32 387 2443.08 387C2452.94 387 2457.87 384.747 2457.87 380.24C2457.87 378.244 2457.01 376.675 2455.3 375.534C2453.65 374.336 2451.49 373.737 2448.81 373.737Z" fill="#3A3A3A" style="fill:#3A3A3A;fill:color(display-p3 0.2275 0.2275 0.2275);fill-opacity:1;"/>
<path d="M2417.66 392.99C2417.66 398.694 2415.78 403.229 2412.02 406.595C2408.32 409.903 2403.25 411.557 2396.81 411.557C2390.43 411.557 2385.36 409.903 2381.6 406.595C2377.84 403.229 2375.96 398.694 2375.96 392.99V371.94C2375.96 370.457 2376.45 369.345 2377.41 368.603C2378.38 367.805 2379.64 367.405 2381.17 367.405C2381.97 367.405 2382.8 367.491 2383.65 367.662C2384.51 367.833 2385.19 368.061 2385.7 368.347V390.851C2385.7 398.78 2389.41 402.744 2396.81 402.744C2404.22 402.744 2407.92 398.78 2407.92 390.851V371.94C2407.92 370.457 2408.4 369.345 2409.37 368.603C2410.34 367.805 2411.59 367.405 2413.13 367.405C2413.93 367.405 2414.76 367.491 2415.61 367.662C2416.46 367.833 2417.15 368.061 2417.66 368.347V392.99Z" fill="#3A3A3A" style="fill:#3A3A3A;fill:color(display-p3 0.2275 0.2275 0.2275);fill-opacity:1;"/>
<path d="M2366.99 427.473H2357.25V404.969C2355.65 407.022 2353.6 408.648 2351.1 409.846C2348.65 410.987 2345.86 411.557 2342.72 411.557C2338.62 411.557 2334.92 410.588 2331.61 408.648C2328.31 406.652 2325.69 403.942 2323.75 400.519C2321.82 397.097 2320.85 393.218 2320.85 388.882C2320.85 384.49 2321.84 380.583 2323.84 377.16C2325.83 373.737 2328.59 371.056 2332.13 369.117C2335.66 367.177 2339.76 366.208 2344.43 366.208C2349.05 366.208 2353.03 367.206 2356.39 369.202C2359.76 371.142 2362.35 373.965 2364.17 377.673C2366.05 381.324 2366.99 385.745 2366.99 390.936V427.473ZM2353.57 378.871C2351.12 376.304 2347.96 375.021 2344.09 375.021C2340.27 375.021 2337.11 376.304 2334.6 378.871C2332.16 381.438 2330.93 384.804 2330.93 388.968C2330.93 393.132 2332.16 396.498 2334.6 399.065C2337.11 401.632 2340.27 402.915 2344.09 402.915C2347.96 402.915 2351.12 401.632 2353.57 399.065C2356.08 396.498 2357.33 393.132 2357.33 388.968C2357.33 384.804 2356.08 381.438 2353.57 378.871Z" fill="#3A3A3A" style="fill:#3A3A3A;fill:color(display-p3 0.2275 0.2275 0.2275);fill-opacity:1;"/>
<path d="M2273.83 364.753C2273.83 353.116 2280.52 347.297 2293.91 347.297C2296.87 347.297 2299.38 347.554 2301.43 348.068C2303.54 348.581 2305.1 349.294 2306.13 350.207C2307.1 351.062 2307.58 352.061 2307.58 353.202C2307.58 354.057 2307.33 354.884 2306.81 355.683C2306.3 356.482 2305.7 357.109 2305.02 357.565C2304.22 356.881 2302.74 356.282 2300.58 355.769C2298.47 355.255 2296.42 354.998 2294.42 354.998C2290.95 354.998 2288.27 355.883 2286.39 357.651C2284.51 359.362 2283.57 361.901 2283.57 365.266V367.405H2308.18C2310 367.405 2311.29 367.805 2312.03 368.603C2312.77 369.402 2313.14 370.8 2313.14 372.796V410.36H2303.4V376.39H2283.57V410.36H2273.83V364.753Z" fill="#3A3A3A" style="fill:#3A3A3A;fill:color(display-p3 0.2275 0.2275 0.2275);fill-opacity:1;"/>
<path d="M2263.13 410.36H2253.39V371.94C2253.39 370.457 2253.88 369.345 2254.84 368.603C2255.81 367.805 2257.07 367.405 2258.6 367.405C2259.4 367.405 2260.23 367.491 2261.08 367.662C2261.94 367.833 2262.62 368.061 2263.13 368.347V410.36ZM2253.99 358.421C2252.91 357.28 2252.37 355.854 2252.37 354.143C2252.37 352.431 2252.91 351.005 2253.99 349.864C2255.13 348.724 2256.55 348.153 2258.26 348.153C2259.97 348.153 2261.37 348.724 2262.45 349.864C2263.59 351.005 2264.16 352.431 2264.16 354.143C2264.16 355.854 2263.59 357.28 2262.45 358.421C2261.37 359.562 2259.97 360.132 2258.26 360.132C2256.55 360.132 2255.13 359.562 2253.99 358.421Z" fill="#3A3A3A" style="fill:#3A3A3A;fill:color(display-p3 0.2275 0.2275 0.2275);fill-opacity:1;"/>
<path d="M2218.75 359.79C2218.75 358.307 2219.23 357.195 2220.2 356.453C2221.17 355.654 2222.42 355.255 2223.96 355.255C2224.76 355.255 2225.59 355.341 2226.44 355.512C2227.29 355.683 2227.98 355.911 2228.49 356.196V367.405H2240.88C2244.3 367.405 2246.01 368.917 2246.01 371.94C2246.01 373.595 2245.64 375.078 2244.9 376.39H2228.49V395.386C2228.49 397.781 2229.12 399.635 2230.37 400.947C2231.62 402.259 2233.48 402.915 2235.93 402.915C2237.29 402.915 2238.69 402.716 2240.11 402.316C2241.59 401.917 2242.85 401.375 2243.87 400.691L2247.8 407.194C2246.32 408.449 2244.3 409.504 2241.74 410.36C2239.23 411.158 2236.64 411.557 2233.96 411.557C2229.35 411.557 2225.64 410.303 2222.85 407.793C2220.12 405.226 2218.75 401.774 2218.75 397.439V359.79Z" fill="#3A3A3A" style="fill:#3A3A3A;fill:color(display-p3 0.2275 0.2275 0.2275);fill-opacity:1;"/>
<path d="M2167.18 384.433C2167.18 380.782 2168.04 377.588 2169.74 374.85C2171.51 372.112 2173.96 370.001 2177.09 368.518C2180.23 366.978 2183.87 366.208 2188.03 366.208C2192.25 366.208 2195.89 366.978 2198.97 368.518C2202.1 370.001 2204.52 372.112 2206.23 374.85C2208 377.588 2208.88 380.782 2208.88 384.433V410.36H2199.14V386.914C2199.14 383.035 2198.2 380.098 2196.32 378.101C2194.44 376.048 2191.68 375.021 2188.03 375.021C2180.62 375.021 2176.92 378.985 2176.92 386.914V410.36H2167.18V384.433Z" fill="#3A3A3A" style="fill:#3A3A3A;fill:color(display-p3 0.2275 0.2275 0.2275);fill-opacity:1;"/>
<path d="M2141.22 411.557C2136.72 411.557 2132.74 410.616 2129.26 408.734C2125.84 406.851 2123.16 404.256 2121.23 400.947C2119.29 397.582 2118.32 393.674 2118.32 389.225C2118.32 384.718 2119.32 380.754 2121.31 377.331C2123.31 373.851 2126.04 371.142 2129.52 369.202C2133.05 367.206 2137.06 366.208 2141.56 366.208C2147.03 366.208 2151.45 367.491 2154.81 370.058C2158.23 372.568 2159.94 376.019 2159.94 380.411C2159.94 384.861 2157.94 388.198 2153.95 390.423C2150.02 392.647 2143.76 393.76 2135.16 393.76C2134.36 393.76 2133.36 393.76 2132.17 393.76C2131.03 393.703 2129.89 393.646 2128.75 393.589C2129.2 396.555 2130.71 398.922 2133.28 400.691C2135.9 402.459 2139.17 403.343 2143.1 403.343C2147.38 403.343 2151.25 402.345 2154.72 400.348L2158.31 407.194C2157.06 407.992 2155.49 408.734 2153.61 409.418C2151.73 410.103 2149.71 410.616 2147.55 410.958C2145.38 411.358 2143.27 411.557 2141.22 411.557ZM2141.39 373.737C2137.63 373.737 2134.53 374.964 2132.08 377.417C2129.69 379.812 2128.43 382.978 2128.32 386.914C2129.29 386.972 2130.31 387 2131.4 387C2132.48 387 2133.9 387 2135.67 387C2145.52 387 2150.45 384.747 2150.45 380.24C2150.45 378.244 2149.6 376.675 2147.89 375.534C2146.24 374.336 2144.07 373.737 2141.39 373.737Z" fill="#3A3A3A" style="fill:#3A3A3A;fill:color(display-p3 0.2275 0.2275 0.2275);fill-opacity:1;"/>
<path d="M2109.68 410.36H2099.94V371.94C2099.94 370.457 2100.42 369.345 2101.39 368.603C2102.36 367.805 2103.61 367.405 2105.15 367.405C2105.95 367.405 2106.77 367.491 2107.63 367.662C2108.48 367.833 2109.16 368.061 2109.68 368.347V410.36ZM2100.53 358.421C2099.45 357.28 2098.91 355.854 2098.91 354.143C2098.91 352.431 2099.45 351.005 2100.53 349.864C2101.67 348.724 2103.1 348.153 2104.81 348.153C2106.51 348.153 2107.91 348.724 2108.99 349.864C2110.13 351.005 2110.7 352.431 2110.7 354.143C2110.7 355.854 2110.13 357.28 2108.99 358.421C2107.91 359.562 2106.51 360.132 2104.81 360.132C2103.1 360.132 2101.67 359.562 2100.53 358.421Z" fill="#3A3A3A" style="fill:#3A3A3A;fill:color(display-p3 0.2275 0.2275 0.2275);fill-opacity:1;"/>
<path d="M2057.73 377.16C2059.66 373.737 2062.43 371.056 2066.01 369.117C2069.6 367.177 2073.88 366.208 2078.83 366.208C2081.68 366.208 2084.24 366.55 2086.52 367.234C2088.86 367.862 2090.65 368.746 2091.91 369.887C2093.16 370.971 2093.79 372.169 2093.79 373.481C2093.79 374.393 2093.47 375.335 2092.85 376.304C2092.28 377.217 2091.48 378.073 2090.45 378.871C2089.03 377.559 2087.29 376.561 2085.24 375.876C2083.25 375.135 2081.11 374.764 2078.83 374.764C2074.67 374.764 2071.34 376.019 2068.83 378.529C2066.33 380.982 2065.07 384.405 2065.07 388.797C2065.07 393.132 2066.33 396.583 2068.83 399.15C2071.4 401.66 2074.84 402.915 2079.17 402.915C2083.05 402.915 2086.58 401.946 2089.77 400.006L2093.87 407.279C2089.14 410.131 2083.87 411.557 2078.06 411.557C2073.45 411.557 2069.4 410.645 2065.93 408.819C2062.45 406.937 2059.75 404.313 2057.81 400.947C2055.87 397.582 2054.91 393.617 2054.91 389.054C2054.91 384.547 2055.85 380.583 2057.73 377.16Z" fill="#3A3A3A" style="fill:#3A3A3A;fill:color(display-p3 0.2275 0.2275 0.2275);fill-opacity:1;"/>
<path d="M1998.27 367.833C1998.27 362.243 2000.35 357.908 2004.51 354.827C2008.72 351.69 2014.53 350.121 2021.94 350.121C2025.87 350.121 2029.66 350.549 2033.3 351.405C2036.95 352.203 2039.77 353.259 2041.76 354.571C2043.81 355.94 2044.84 357.48 2044.84 359.191C2044.84 360.218 2044.5 361.33 2043.81 362.528C2043.19 363.669 2042.39 364.553 2041.42 365.181C2040.34 363.983 2038.74 362.928 2036.63 362.015C2034.58 361.045 2032.28 360.303 2029.71 359.79C2027.21 359.22 2024.67 358.934 2022.11 358.934C2013.11 358.934 2008.61 361.673 2008.61 367.149C2008.61 369.259 2009.46 370.942 2011.17 372.197C2012.88 373.452 2015.67 374.45 2019.55 375.192L2028.94 376.903C2035.55 378.101 2040.34 380.041 2043.3 382.722C2046.32 385.403 2047.83 389.111 2047.83 393.845C2047.83 399.493 2045.64 403.914 2041.25 407.108C2036.86 410.302 2030.77 411.9 2022.96 411.9C2020 411.9 2016.87 411.586 2013.56 410.958C2010.26 410.331 2007.16 409.504 2004.25 408.477C2001.4 407.393 1999.04 406.195 1997.16 404.883L2001.6 396.926C2003.31 398.067 2005.36 399.093 2007.75 400.006C2010.2 400.919 2012.77 401.632 2015.44 402.145C2018.12 402.659 2020.68 402.915 2023.13 402.915C2032.36 402.915 2036.98 400.12 2036.98 394.53C2036.98 392.191 2036.15 390.423 2034.5 389.225C2032.9 387.97 2030.11 386.972 2026.12 386.23L2016.73 384.519C2004.42 382.294 1998.27 376.732 1998.27 367.833Z" fill="#3A3A3A" style="fill:#3A3A3A;fill:color(display-p3 0.2275 0.2275 0.2275);fill-opacity:1;"/>
<path d="M2621.79 548.463C2617.29 548.463 2613.3 547.522 2609.82 545.639C2606.41 543.757 2603.73 541.161 2601.79 537.853C2599.86 534.487 2598.89 530.58 2598.89 526.13C2598.89 521.624 2599.88 517.659 2601.88 514.237C2603.87 510.757 2606.61 508.047 2610.08 506.108C2613.61 504.111 2617.63 503.113 2622.13 503.113C2627.6 503.113 2632.01 504.397 2635.37 506.964C2638.79 509.473 2640.5 512.925 2640.5 517.317C2640.5 521.766 2638.51 525.103 2634.52 527.328C2630.59 529.553 2624.32 530.665 2615.72 530.665C2614.92 530.665 2613.93 530.665 2612.73 530.665C2611.59 530.608 2610.45 530.551 2609.31 530.494C2609.77 533.46 2611.28 535.828 2613.84 537.596C2616.46 539.364 2619.74 540.249 2623.67 540.249C2627.94 540.249 2631.81 539.25 2635.29 537.254L2638.88 544.099C2637.62 544.898 2636.06 545.639 2634.18 546.324C2632.3 547.008 2630.27 547.522 2628.11 547.864C2625.95 548.263 2623.84 548.463 2621.79 548.463ZM2621.96 510.643C2618.2 510.643 2615.09 511.869 2612.64 514.322C2610.25 516.718 2609 519.884 2608.88 523.82C2609.85 523.877 2610.88 523.906 2611.96 523.906C2613.04 523.906 2614.47 523.906 2616.23 523.906C2626.09 523.906 2631.02 521.652 2631.02 517.146C2631.02 515.149 2630.16 513.581 2628.45 512.44C2626.8 511.242 2624.64 510.643 2621.96 510.643Z" fill="#3A3A3A" style="fill:#3A3A3A;fill:color(display-p3 0.2275 0.2275 0.2275);fill-opacity:1;"/>
<path d="M2590.81 529.895C2590.81 535.599 2588.93 540.134 2585.17 543.5C2581.47 546.809 2576.4 548.463 2569.96 548.463C2563.58 548.463 2558.51 546.809 2554.75 543.5C2550.99 540.134 2549.11 535.599 2549.11 529.895V508.846C2549.11 507.363 2549.6 506.25 2550.56 505.509C2551.53 504.71 2552.79 504.311 2554.32 504.311C2555.12 504.311 2555.95 504.396 2556.8 504.568C2557.66 504.739 2558.34 504.967 2558.85 505.252V527.756C2558.85 535.685 2562.56 539.65 2569.96 539.65C2577.37 539.65 2581.07 535.685 2581.07 527.756V508.846C2581.07 507.363 2581.55 506.25 2582.52 505.509C2583.49 504.71 2584.74 504.311 2586.28 504.311C2587.08 504.311 2587.91 504.396 2588.76 504.568C2589.61 504.739 2590.3 504.967 2590.81 505.252V529.895Z" fill="#3A3A3A" style="fill:#3A3A3A;fill:color(display-p3 0.2275 0.2275 0.2275);fill-opacity:1;"/>
<path d="M2540.14 564.378H2530.4V541.874C2528.8 543.928 2526.75 545.554 2524.25 546.752C2521.8 547.893 2519.01 548.463 2515.87 548.463C2511.77 548.463 2508.07 547.493 2504.76 545.554C2501.46 543.557 2498.84 540.848 2496.9 537.425C2494.97 534.002 2494 530.123 2494 525.788C2494 521.396 2494.99 517.488 2496.99 514.065C2498.98 510.643 2501.74 507.962 2505.28 506.022C2508.81 504.083 2512.91 503.113 2517.58 503.113C2522.2 503.113 2526.18 504.111 2529.54 506.108C2532.9 508.047 2535.5 510.871 2537.32 514.579C2539.2 518.23 2540.14 522.651 2540.14 527.842V564.378ZM2526.72 515.777C2524.27 513.21 2521.11 511.926 2517.24 511.926C2513.42 511.926 2510.26 513.21 2507.75 515.777C2505.31 518.344 2504.08 521.709 2504.08 525.874C2504.08 530.038 2505.31 533.403 2507.75 535.97C2510.26 538.537 2513.42 539.821 2517.24 539.821C2521.11 539.821 2524.27 538.537 2526.72 535.97C2529.23 533.403 2530.48 530.038 2530.48 525.874C2530.48 521.709 2529.23 518.344 2526.72 515.777Z" fill="#3A3A3A" style="fill:#3A3A3A;fill:color(display-p3 0.2275 0.2275 0.2275);fill-opacity:1;"/>
<path d="M2485.27 547.265H2475.52V508.846C2475.52 507.363 2476.01 506.25 2476.98 505.509C2477.95 504.71 2479.2 504.311 2480.74 504.311C2481.53 504.311 2482.36 504.396 2483.21 504.568C2484.07 504.739 2484.75 504.967 2485.27 505.252V547.265ZM2476.12 495.326C2475.04 494.186 2474.5 492.76 2474.5 491.048C2474.5 489.337 2475.04 487.911 2476.12 486.77C2477.26 485.629 2478.69 485.059 2480.4 485.059C2482.1 485.059 2483.5 485.629 2484.58 486.77C2485.72 487.911 2486.29 489.337 2486.29 491.048C2486.29 492.76 2485.72 494.186 2484.58 495.326C2483.5 496.467 2482.1 497.038 2480.4 497.038C2478.69 497.038 2477.26 496.467 2476.12 495.326Z" fill="#3A3A3A" style="fill:#3A3A3A;fill:color(display-p3 0.2275 0.2275 0.2275);fill-opacity:1;"/>
<path d="M2440.88 496.696C2440.88 495.212 2441.37 494.1 2442.34 493.359C2443.3 492.56 2444.56 492.161 2446.09 492.161C2446.89 492.161 2447.72 492.246 2448.57 492.417C2449.43 492.588 2450.11 492.817 2450.62 493.102V504.311H2463.01C2466.43 504.311 2468.14 505.823 2468.14 508.846C2468.14 510.5 2467.77 511.983 2467.03 513.295H2450.62V532.291C2450.62 534.687 2451.25 536.541 2452.5 537.853C2453.76 539.165 2455.61 539.821 2458.06 539.821C2459.42 539.821 2460.82 539.621 2462.24 539.222C2463.73 538.823 2464.98 538.281 2466 537.596L2469.94 544.099C2468.45 545.354 2466.43 546.409 2463.87 547.265C2461.36 548.064 2458.77 548.463 2456.09 548.463C2451.48 548.463 2447.78 547.208 2444.98 544.698C2442.25 542.131 2440.88 538.68 2440.88 534.345V496.696Z" fill="#3A3A3A" style="fill:#3A3A3A;fill:color(display-p3 0.2275 0.2275 0.2275);fill-opacity:1;"/>
<path d="M2430.86 547.094C2427.89 547.493 2424.68 547.807 2421.2 548.035C2417.78 548.32 2414.68 548.463 2411.89 548.463C2404.82 548.463 2399.41 547.351 2395.65 545.126C2391.95 542.901 2390.1 539.279 2390.1 534.259C2390.1 529.81 2391.69 526.387 2394.88 523.991C2398.13 521.595 2403.37 520.397 2410.61 520.397C2412.26 520.397 2414.11 520.454 2416.16 520.568C2418.21 520.683 2419.86 520.825 2421.12 520.996C2421.12 517.517 2420.03 514.978 2417.87 513.381C2415.76 511.784 2412.6 510.985 2408.38 510.985C2405.71 510.985 2403.26 511.27 2401.03 511.841C2398.87 512.411 2397.3 513.124 2396.34 513.98C2395.71 513.524 2395.17 512.896 2394.71 512.097C2394.26 511.242 2394.03 510.358 2394.03 509.445C2394.03 507.505 2395.22 505.965 2397.62 504.824C2400.01 503.683 2403.54 503.113 2408.21 503.113C2415.68 503.113 2421.31 504.653 2425.13 507.734C2428.95 510.757 2430.86 515.292 2430.86 521.339V547.094ZM2402.74 539.821C2404.68 540.848 2407.73 541.361 2411.89 541.361C2413.6 541.361 2415.33 541.304 2417.1 541.19C2418.87 541.019 2420.23 540.819 2421.2 540.591V528.098C2419.95 527.813 2418.3 527.613 2416.24 527.499C2414.25 527.328 2412.49 527.243 2410.95 527.243C2406.79 527.243 2403.88 527.87 2402.23 529.125C2400.64 530.323 2399.84 532.12 2399.84 534.516C2399.84 536.969 2400.81 538.737 2402.74 539.821Z" fill="#3A3A3A" style="fill:#3A3A3A;fill:color(display-p3 0.2275 0.2275 0.2275);fill-opacity:1;"/>
<path d="M2382.35 547.265H2372.61V522.879C2372.61 519.228 2371.78 516.49 2370.13 514.664C2368.48 512.839 2366.08 511.926 2362.95 511.926C2359.59 511.926 2357 512.982 2355.17 515.092C2353.41 517.146 2352.52 520.084 2352.52 523.906V547.265H2342.78V523.906C2342.78 520.084 2341.9 517.146 2340.13 515.092C2338.43 512.982 2335.89 511.926 2332.53 511.926C2329.4 511.926 2326.95 512.868 2325.18 514.75C2323.47 516.632 2322.62 519.371 2322.62 522.964V547.265H2312.88V519.627C2312.88 516.262 2313.65 513.352 2315.18 510.9C2316.78 508.39 2318.97 506.479 2321.76 505.167C2324.61 503.798 2327.92 503.113 2331.68 503.113C2339.08 503.113 2344.46 505.709 2347.83 510.9C2351.19 505.709 2356.48 503.113 2363.72 503.113C2367.42 503.113 2370.67 503.798 2373.46 505.167C2376.25 506.479 2378.42 508.361 2379.95 510.814C2381.55 513.267 2382.35 516.176 2382.35 519.542V547.265Z" fill="#3A3A3A" style="fill:#3A3A3A;fill:color(display-p3 0.2275 0.2275 0.2275);fill-opacity:1;"/>
<path d="M2277.58 519.627C2277.58 514.436 2279.17 510.386 2282.36 507.477C2285.61 504.568 2290.08 503.113 2295.78 503.113C2299.65 503.113 2302.64 503.683 2304.75 504.824C2306.86 505.965 2307.91 507.42 2307.91 509.188C2307.91 510.101 2307.66 511.014 2307.14 511.926C2306.69 512.839 2306.23 513.438 2305.78 513.723C2303.27 512.468 2300.45 511.841 2297.32 511.841C2290.65 511.841 2287.32 515.377 2287.32 522.451V547.265H2277.58V519.627Z" fill="#3A3A3A" style="fill:#3A3A3A;fill:color(display-p3 0.2275 0.2275 0.2275);fill-opacity:1;"/>
<path d="M2225.46 537.339C2223.41 533.917 2222.38 530.066 2222.38 525.788C2222.38 521.51 2223.41 517.659 2225.46 514.237C2227.57 510.814 2230.39 508.104 2233.92 506.108C2237.45 504.111 2241.44 503.113 2245.88 503.113C2250.32 503.113 2254.31 504.111 2257.84 506.108C2261.43 508.104 2264.25 510.814 2266.3 514.237C2268.35 517.659 2269.38 521.51 2269.38 525.788C2269.38 530.066 2268.35 533.917 2266.3 537.339C2264.25 540.762 2261.43 543.472 2257.84 545.468C2254.31 547.465 2250.32 548.463 2245.88 548.463C2241.44 548.463 2237.45 547.465 2233.92 545.468C2230.39 543.472 2227.57 540.762 2225.46 537.339ZM2257.5 533.147C2258.64 530.979 2259.21 528.526 2259.21 525.788C2259.21 523.05 2258.64 520.626 2257.5 518.515C2256.36 516.347 2254.77 514.664 2252.72 513.467C2250.72 512.269 2248.44 511.67 2245.88 511.67C2243.32 511.67 2241.01 512.269 2238.96 513.467C2236.96 514.664 2235.4 516.347 2234.26 518.515C2233.12 520.626 2232.55 523.05 2232.55 525.788C2232.55 528.526 2233.12 530.979 2234.26 533.147C2235.4 535.257 2236.96 536.912 2238.96 538.109C2241.01 539.307 2243.32 539.906 2245.88 539.906C2248.44 539.906 2250.72 539.307 2252.72 538.109C2254.77 536.912 2256.36 535.257 2257.5 533.147Z" fill="#3A3A3A" style="fill:#3A3A3A;fill:color(display-p3 0.2275 0.2275 0.2275);fill-opacity:1;"/>
<path d="M2193.56 501.658C2193.56 496.011 2195.07 491.704 2198.08 488.738C2201.1 485.715 2205.72 484.203 2211.93 484.203C2216.43 484.203 2219.76 484.973 2221.92 486.513C2223.23 487.483 2223.89 488.681 2223.89 490.107C2223.89 491.932 2223.04 493.358 2221.33 494.385C2220.36 493.587 2219.08 492.988 2217.48 492.588C2215.89 492.132 2214.26 491.904 2212.61 491.904C2206.4 491.904 2203.3 495.184 2203.3 501.744V504.311H2216.11C2219.53 504.311 2221.24 505.823 2221.24 508.846C2221.24 510.5 2220.87 511.983 2220.13 513.295H2203.3V547.265H2193.56V501.658Z" fill="#3A3A3A" style="fill:#3A3A3A;fill:color(display-p3 0.2275 0.2275 0.2275);fill-opacity:1;"/>
<path d="M2141.73 521.339C2141.73 517.688 2142.58 514.493 2144.29 511.755C2146.06 509.017 2148.51 506.906 2151.64 505.423C2154.77 503.883 2158.42 503.113 2162.58 503.113C2166.79 503.113 2170.44 503.883 2173.52 505.423C2176.65 506.906 2179.07 509.017 2180.78 511.755C2182.55 514.493 2183.43 517.688 2183.43 521.339V547.265H2173.69V523.82C2173.69 519.941 2172.75 517.003 2170.87 515.007C2168.99 512.953 2166.22 511.926 2162.58 511.926C2155.17 511.926 2151.47 515.891 2151.47 523.82V547.265H2141.73V521.339Z" fill="#3A3A3A" style="fill:#3A3A3A;fill:color(display-p3 0.2275 0.2275 0.2275);fill-opacity:1;"/>
<path d="M2130.57 547.265H2120.4V493.273C2120.4 491.79 2120.88 490.649 2121.85 489.85C2122.88 488.995 2124.19 488.567 2125.78 488.567C2126.58 488.567 2127.38 488.681 2128.17 488.909C2129.03 489.08 2129.83 489.308 2130.57 489.594V547.265Z" fill="#3A3A3A" style="fill:#3A3A3A;fill:color(display-p3 0.2275 0.2275 0.2275);fill-opacity:1;"/>
<path d="M2046.1 521.339C2046.1 517.688 2046.96 514.493 2048.66 511.755C2050.43 509.017 2052.88 506.906 2056.01 505.423C2059.15 503.883 2062.79 503.113 2066.95 503.113C2071.17 503.113 2074.81 503.883 2077.89 505.423C2081.02 506.906 2083.44 509.017 2085.15 511.755C2086.92 514.493 2087.8 517.688 2087.8 521.339V547.265H2078.06V523.82C2078.06 519.941 2077.12 517.003 2075.24 515.007C2073.36 512.953 2070.6 511.926 2066.95 511.926C2059.54 511.926 2055.84 515.891 2055.84 523.82V547.265H2046.1V521.339Z" fill="#3A3A3A" style="fill:#3A3A3A;fill:color(display-p3 0.2275 0.2275 0.2275);fill-opacity:1;"/>
<path d="M2020.14 548.463C2015.64 548.463 2011.66 547.522 2008.18 545.639C2004.76 543.757 2002.09 541.161 2000.15 537.853C1998.21 534.487 1997.24 530.58 1997.24 526.13C1997.24 521.624 1998.24 517.659 2000.23 514.237C2002.23 510.757 2004.96 508.047 2008.44 506.108C2011.97 504.111 2015.98 503.113 2020.49 503.113C2025.95 503.113 2030.37 504.397 2033.73 506.964C2037.15 509.473 2038.86 512.925 2038.86 517.317C2038.86 521.766 2036.86 525.103 2032.88 527.328C2028.94 529.553 2022.68 530.665 2014.08 530.665C2013.28 530.665 2012.28 530.665 2011.09 530.665C2009.95 530.608 2008.81 530.551 2007.67 530.494C2008.12 533.46 2009.63 535.828 2012.2 537.596C2014.82 539.364 2018.09 540.249 2022.02 540.249C2026.3 540.249 2030.17 539.25 2033.64 537.254L2037.23 544.099C2035.98 544.898 2034.41 545.639 2032.53 546.324C2030.65 547.008 2028.63 547.522 2026.47 547.864C2024.3 548.263 2022.19 548.463 2020.14 548.463ZM2020.31 510.643C2016.55 510.643 2013.45 511.869 2011 514.322C2008.61 516.718 2007.35 519.884 2007.24 523.82C2008.21 523.877 2009.23 523.906 2010.32 523.906C2011.4 523.906 2012.82 523.906 2014.59 523.906C2024.44 523.906 2029.37 521.652 2029.37 517.146C2029.37 515.149 2028.52 513.581 2026.81 512.44C2025.16 511.242 2022.99 510.643 2020.31 510.643Z" fill="#3A3A3A" style="fill:#3A3A3A;fill:color(display-p3 0.2275 0.2275 0.2275);fill-opacity:1;"/>
</svg>
