<svg width="253" height="96" viewBox="0 0 253 96" fill="none" xmlns="http://www.w3.org/2000/svg">
<g clip-path="url(#clip0_13_15)">
<path d="M34.6492 80.6369C34.8055 80.5607 34.9618 80.4959 35.1143 80.4196C35.1601 80.3967 35.1944 80.3396 35.2783 80.248C35.2211 80.0689 35.1448 79.863 35.0838 79.6495C34.8436 78.8221 34.4128 78.6239 33.555 78.9518C32.4951 79.3597 31.3665 79.6113 30.2532 79.8592C28.8921 80.1642 27.6835 79.7524 26.4864 79.0661C24.6868 78.0329 23.2571 76.607 21.9341 75.0553C21.6177 74.6854 21.427 74.205 21.103 73.6408H22.1743C20.6226 71.0825 20.9161 68.5433 22.1934 65.9507C22.4907 66.1833 22.811 66.4349 23.1732 66.7209C23.3486 65.0891 24.1416 63.8919 25.5752 63.1256C25.6895 63.0646 25.781 62.8816 25.8077 62.7443C25.9755 61.8026 26.5893 61.2421 27.4662 61.0973C29.037 60.838 30.5544 60.6092 30.3295 58.2988C30.4363 58.3255 30.543 58.3522 30.6536 58.3788C31.0043 58.8859 31.3513 59.3892 31.7325 59.9382C31.8584 59.6599 31.9994 59.4159 32.0757 59.1528C32.232 58.6076 32.598 58.4894 33.1203 58.478C33.7265 58.4627 34.3442 58.4017 34.9313 58.253C35.7396 58.051 36.1933 58.1768 36.3153 59.0156C36.4335 59.8391 36.3687 60.716 36.2314 61.5433C36.1514 62.0237 36.1399 62.283 36.5479 62.6261C37.3104 63.2666 38.0119 63.991 38.6868 64.7307C39.2358 65.3331 39.5827 66.1299 40.6426 66.0422C40.8295 66.027 41.0963 66.6904 41.287 67.0602C41.4395 67.3576 41.5234 67.6893 41.6606 67.9905C41.7178 68.1125 41.9313 68.2078 41.9275 68.3107C41.8932 69.1991 42.6061 69.6909 43.0065 70.3391C43.4487 71.0558 43.3496 71.6582 42.8082 72.192C42.2173 72.7715 41.5767 73.3053 40.9248 73.8162C39.6475 74.8151 39.5103 76.138 40.574 77.3733C40.9019 77.7546 41.2183 77.7546 41.7064 77.625C43.9024 77.0416 45.5304 75.6272 47.0631 74.0716C48.8512 72.2568 50.6927 70.4801 52.3626 68.5586C53.1862 67.6092 53.7771 66.4197 54.3033 65.2606C55.447 62.7329 56.4498 60.1441 57.5707 57.6087C58.7564 54.9246 59.5418 52.2215 58.5315 49.2934C58.459 49.0837 58.3866 48.7939 58.4743 48.6262C58.6077 48.3783 58.8593 48.1496 59.1148 48.039C59.2101 47.9971 59.5647 48.2792 59.6219 48.4698C59.8278 49.1447 59.9536 49.8424 60.3386 50.6469C60.7047 50.1398 61.1584 49.6746 61.4138 49.118C61.8294 48.2106 62.0848 47.2307 62.4775 46.3119C62.5995 46.026 62.9465 45.8353 63.1905 45.5989C63.3239 45.9611 63.6213 46.3577 63.5527 46.6779C63.404 47.3528 63.0647 47.9856 62.8054 48.6376C62.8817 48.691 62.9579 48.7444 63.0342 48.7977C63.4002 48.4165 63.7586 48.02 64.1436 47.6539C64.3495 47.4595 64.5821 47.2689 64.8375 47.1583C65.0167 47.0782 65.2569 47.1316 65.4704 47.1278C65.4247 47.3528 65.4552 47.6425 65.3256 47.795C64.8147 48.405 64.2542 48.9769 63.7128 49.5603C63.7586 49.6213 63.8043 49.6861 63.8501 49.7471C64.1551 49.5526 64.4372 49.3048 64.7689 49.1752C65.0053 49.0837 65.2989 49.1561 65.5696 49.1561C65.4666 49.4382 65.4018 49.7471 65.2417 49.9949C65.1502 50.1398 64.9062 50.1893 64.5783 50.3647H65.6725C65.5429 50.8489 65.5276 51.295 65.3179 51.6191C64.7155 52.5532 64.1741 53.5978 63.3582 54.3108C61.9056 55.5804 61.5358 57.2122 61.2651 58.9622C60.9258 61.143 60.7313 63.3696 60.1175 65.4703C59.5609 67.369 58.562 69.1419 57.6889 70.9376C57.1513 72.0433 56.446 73.0689 55.8969 74.1669C55.7139 74.5329 55.6529 75.0476 55.7406 75.448C56.1295 77.217 55.1535 78.4714 54.2079 79.741C53.3044 80.961 52.355 82.1467 51.4705 83.3782C50.8528 84.2361 50.7499 85.1435 51.0854 86.211C52.0462 89.2611 52.6181 92.3646 52.9498 95.4985C53.3387 95.5062 53.7314 95.5138 54.1241 95.5138C80.4922 95.5138 101.866 74.1364 101.866 47.7721C101.866 21.4079 80.496 0.0266724 54.1279 0.0266724C27.7598 0.0266724 6.38623 21.4002 6.38623 47.7683C6.38623 64.3799 14.8731 79.0089 27.7445 87.5607C27.9771 87.168 28.2021 86.7753 28.3851 86.3635C29.6509 83.5422 31.9956 81.9256 34.6492 80.6369ZM77.0722 18.1138C77.545 18.8191 77.8424 19.4482 78.3075 19.9057C78.7574 20.3479 79.3789 20.611 80.0652 21.0418C78.6392 21.5337 77.6632 22.4563 77.0989 23.9509C76.4851 22.4868 75.6044 21.465 74.1136 20.9656C75.5853 20.4928 76.588 19.6464 77.0722 18.1138ZM54.4138 30.2493C56.3506 29.8719 58.3027 29.5516 60.2357 29.1475C60.5598 29.0789 60.9449 28.7738 61.0974 28.4765C62.0467 26.6464 62.9312 24.7858 63.8501 22.9405C64.0369 22.5631 64.2733 22.2085 64.5668 21.7014C64.8261 22.0751 65.0358 22.3229 65.1883 22.6012C66.2253 24.5113 67.2319 26.4405 68.307 28.3316C68.4977 28.6671 68.9475 28.9912 69.325 29.0598C71.5821 29.4563 73.8506 29.7613 76.1115 30.1311C76.4508 30.1883 76.7634 30.4171 77.0875 30.5658C76.9045 30.9051 76.7977 31.3245 76.5309 31.5647C75.0249 32.9296 73.4884 34.264 71.9366 35.5794C71.4296 36.0102 71.2237 36.422 71.3647 37.1273C71.8032 39.2852 72.154 41.4661 72.5314 43.6354C72.581 43.9328 72.5886 44.2378 72.6344 44.7335C72.1235 44.5619 71.7384 44.4895 71.4067 44.3141C69.4813 43.2961 67.5559 42.2858 65.6649 41.2068C65.0777 40.8713 64.624 40.8065 64.0254 41.1458C62.1306 42.2133 60.2128 43.2389 58.2913 44.2569C57.9634 44.4285 57.5631 44.4628 57.197 44.5581C57.1513 44.2073 57.0293 43.8451 57.075 43.5058C57.3686 41.4089 57.666 39.3081 58.0358 37.2226C58.1655 36.4944 57.9596 36.0483 57.4144 35.5946C55.8893 34.3365 54.4062 33.0325 52.9117 31.7362C52.66 31.5189 52.4503 31.2444 52.0691 30.8327C52.965 30.6077 53.6818 30.3904 54.4138 30.2493Z" fill="#DBE11F" style="fill:#DBE11F;fill:color(display-p3 0.8588 0.8824 0.1216);fill-opacity:1;"/>
<path d="M126.945 31.9345V24.7744H111.919V71.6621C111.919 75.7301 115.217 79.028 119.285 79.028H127.654V53.4149C127.654 43.0293 133.404 38.2902 142.073 38.2902C143.282 38.2902 144.292 38.3931 145.604 38.4922V23.97C137.231 23.97 130.78 26.6922 126.949 31.9384L126.945 31.9345Z" fill="#DBE11F" style="fill:#DBE11F;fill:color(display-p3 0.8588 0.8824 0.1216);fill-opacity:1;"/>
<path d="M166.276 40.9133C166.276 38.0881 169.303 35.8692 176.361 35.8692C181.302 35.8692 186.647 36.8795 191.992 39.9029L197.235 28.7091C192.091 25.6818 183.822 23.97 176.361 23.97C160.527 23.97 151.251 31.2292 151.251 41.5157C151.251 63.198 184.024 54.1202 184.024 62.996C184.024 66.0194 181.302 67.9371 174.042 67.9371C167.386 67.9371 160.023 65.8211 155.185 62.6948L149.943 73.9878C154.983 77.3162 164.263 79.8363 173.44 79.8363C189.674 79.8363 199.053 72.6762 199.053 62.5918C199.053 41.2145 166.28 50.1856 166.28 40.9095L166.276 40.9133Z" fill="#DBE11F" style="fill:#DBE11F;fill:color(display-p3 0.8588 0.8824 0.1216);fill-opacity:1;"/>
<path d="M208.737 79.0319H215.814C220.595 79.0319 224.472 75.1544 224.472 70.3734V44.4399H208.741V79.028L208.737 79.0319Z" fill="#DBE11F" style="fill:#DBE11F;fill:color(display-p3 0.8588 0.8824 0.1216);fill-opacity:1;"/>
<path d="M237.107 44.4399V79.028H244.183C248.964 79.028 252.842 75.1506 252.842 70.3696V44.4361H237.111L237.107 44.4399Z" fill="#DBE11F" style="fill:#DBE11F;fill:color(display-p3 0.8588 0.8824 0.1216);fill-opacity:1;"/>
<path d="M8.31204 13.34C11.9455 12.4824 14.1958 8.84167 13.3383 5.20818C12.4807 1.57469 8.83995 -0.675629 5.20646 0.181952C1.57297 1.03953 -0.677351 4.68027 0.18023 8.31376C1.03781 11.9472 4.67855 14.1976 8.31204 13.34Z" fill="#DBE11F" style="fill:#DBE11F;fill:color(display-p3 0.8588 0.8824 0.1216);fill-opacity:1;"/>
<path d="M208.917 37.1616C209.134 37.1807 209.389 37.1807 209.607 37.1807C210.239 37.1807 210.75 36.9443 210.75 35.9645V26.2804H212.744V35.8196C212.744 38.3588 211.383 39.0107 209.881 39.0107C209.519 39.0107 209.248 39.0107 208.92 38.9726V37.1578L208.917 37.1616Z" fill="#DBE11F" style="fill:#DBE11F;fill:color(display-p3 0.8588 0.8824 0.1216);fill-opacity:1;"/>
<path d="M216.008 26.2804V36.0712C216.008 36.9786 216.408 37.3027 217.041 37.3027C217.674 37.3027 218.074 36.9748 218.074 36.0712V26.2804H219.962V35.9454C219.962 37.9775 218.947 39.1366 216.988 39.1366C215.028 39.1366 214.014 37.9775 214.014 35.9454V26.2804H216.008Z" fill="#DBE11F" style="fill:#DBE11F;fill:color(display-p3 0.8588 0.8824 0.1216);fill-opacity:1;"/>
<path d="M223.134 29.7804H223.099V38.9726H221.304V26.2804H223.805L225.818 33.879H225.856V26.2804H227.633V38.9726H225.581L223.134 29.7804Z" fill="#DBE11F" style="fill:#DBE11F;fill:color(display-p3 0.8588 0.8824 0.1216);fill-opacity:1;"/>
<path d="M229.066 26.2804H231.06V38.9726H229.066V26.2804Z" fill="#DBE11F" style="fill:#DBE11F;fill:color(display-p3 0.8588 0.8824 0.1216);fill-opacity:1;"/>
<path d="M232.349 29.3267C232.349 27.2945 233.42 26.1355 235.376 26.1355C237.332 26.1355 238.403 27.2945 238.403 29.3267V35.9263C238.403 37.9584 237.332 39.1175 235.376 39.1175C233.42 39.1175 232.349 37.9584 232.349 35.9263V29.3267ZM234.343 36.0559C234.343 36.9633 234.743 37.3065 235.376 37.3065C236.009 37.3065 236.409 36.9633 236.409 36.0559V29.2008C236.409 28.2934 236.009 27.9503 235.376 27.9503C234.743 27.9503 234.343 28.2934 234.343 29.2008V36.0559Z" fill="#DBE11F" style="fill:#DBE11F;fill:color(display-p3 0.8588 0.8824 0.1216);fill-opacity:1;"/>
<path d="M243.863 38.9764C243.752 38.6485 243.68 38.4503 243.68 37.417V35.423C243.68 34.2449 243.28 33.8103 242.376 33.8103H241.686V38.9764H239.692V26.2842H242.704C244.77 26.2842 245.659 27.245 245.659 29.2046V30.2036C245.659 31.5075 245.243 32.3424 244.355 32.7618V32.7961C245.354 33.2117 245.678 34.1572 245.678 35.4802V37.4399C245.678 38.0576 245.697 38.5113 245.895 38.9802H243.863V38.9764ZM241.69 28.0952V31.9955H242.471C243.215 31.9955 243.668 31.6676 243.668 30.6534V29.4029C243.668 28.4955 243.36 28.099 242.654 28.099H241.694L241.69 28.0952Z" fill="#DBE11F" style="fill:#DBE11F;fill:color(display-p3 0.8588 0.8824 0.1216);fill-opacity:1;"/>
<path d="M249.67 26.1355C251.61 26.1355 252.609 27.2945 252.609 29.3267V29.727H250.722V29.2008C250.722 28.2934 250.36 27.9503 249.723 27.9503C249.086 27.9503 248.724 28.2934 248.724 29.2008C248.724 30.1082 249.124 30.8136 250.428 31.9574C252.098 33.4252 252.621 34.4775 252.621 35.9301C252.621 37.9622 251.606 39.1213 249.647 39.1213C247.687 39.1213 246.673 37.9622 246.673 35.9301V35.1523H248.56V36.0598C248.56 36.9672 248.96 37.2912 249.593 37.2912C250.226 37.2912 250.627 36.9633 250.627 36.0598C250.627 35.1562 250.226 34.447 248.922 33.3032C247.252 31.8354 246.73 30.7831 246.73 29.3305C246.73 27.2983 247.729 26.1393 249.67 26.1393V26.1355Z" fill="#DBE11F" style="fill:#DBE11F;fill:color(display-p3 0.8588 0.8824 0.1216);fill-opacity:1;"/>
</g>
<defs>
<clipPath id="clip0_13_15">
<rect width="252.838" height="95.51" fill="white" style="fill:white;fill-opacity:1;"/>
</clipPath>
</defs>
</svg>
